<?xml version="1.0" encoding="UTF-8"?>
<svg id="Layer_1" data-name="Layer 1" xmlns="http://www.w3.org/2000/svg" viewBox="0 0 2409.49 3238.26">
  <defs>
    <style>
      .cls-1 {
        opacity: .6;
      }

      .cls-2 {
        fill: #000072;
      }

      .cls-3 {
        fill: #fff;
      }

      .cls-4 {
        fill: #ff9827;
      }

      .cls-5 {
        fill: #fc3c53;
      }

      .cls-6 {
        fill: #f2be61;
      }

      .cls-7 {
        fill: #ffbb4c;
      }

      .cls-8 {
        fill: #e22747;
      }

      .cls-9 {
        fill: #ffd984;
      }
    </style>
  </defs>
  <g>
    <g>
      <path class="cls-5" d="M181.73,2907.26c87.27,25.83,174.87,41.62,262.81,46.71,40.09,2.3,80.27,2.4,120.5.24l23.97-62.41-9.59-67.21c-33.23,17.86-68.18,29.81-103.91,36.78-96.62,18.96-199.18,1.92-289.14-32.45-80.56-30.77-113.83-129.15-66.07-201.02,6.57-9.84,14.38-18.87,23.35-26.69,27.52-24.1,66.89-27.99,98.15-9.03,15.2,9.22,26.85,21.84,33.76,38.07,7.58,17.76.1,39.08-17.5,46.95-26.13,11.71-45.17-16.9-52.65-54.25-9.06,14.5-12.66,30.39-11.8,45.61,2.73,48.2,55.81,76.19,98.54,53.82,7.91-4.18,15.3-9.75,22.15-16.8,12.18-12.48,18.6-29.48,18.56-46.95-.1-55.45-37.45-101.73-94.56-119.3-32.84-10.13-68.47-8.59-100.45,3.94-55.52,21.75-89.09,69.09-101.12,123.1-23.5,105.38,41.62,210.33,145,240.91Z"/>
      <path class="cls-8" d="M444.55,2953.97c40.09,2.3,80.27,2.4,120.5.24l23.97-62.41-9.59-67.21c-33.23,17.86-68.18,29.81-103.91,36.78,4.41,15.94,4.65,33.03-.14,48.87-5.27,17.43-16.45,32.69-30.83,43.74Z"/>
      <path class="cls-2" d="M507.8,2967.75c-108.83,0-219.37-16.42-329.45-48.98-110.57-32.71-177.92-144.73-153.31-255.02,13.86-62.11,53.38-110.11,108.44-131.68,34.64-13.57,73.13-15.07,108.37-4.24,62.48,19.22,102.92,70.55,103.01,130.78.03,21.14-7.76,40.8-21.94,55.36-7.69,7.9-16.17,14.3-25.2,19.04-24.31,12.73-53.1,12.23-77-1.35-22.96-13.04-37.56-36.38-39.04-62.43-1.05-18.51,3.64-36.71,13.59-52.64,2.6-4.17,7.47-6.32,12.32-5.44,4.83.88,8.64,4.63,9.6,9.45,4.62,23.12,13.65,40.67,23.58,45.8,2.41,1.25,6.33,2.59,12.45-.15,11.23-5.03,16.43-19.36,11.35-31.29-5.68-13.34-15.42-24.28-28.96-32.5-26.53-16.13-60.3-12.98-84.04,7.79-8.07,7.07-15.23,15.24-21.25,24.31-20.34,30.6-25.5,68.55-14.13,104.13,11.69,36.6,38.85,65.41,74.5,79.02,82.09,31.36,241.03,72.58,383.09-3.69,3.45-1.86,7.59-1.9,11.08-.13,3.49,1.77,5.9,5.13,6.45,9.01l9.59,67.21c.29,2.03.06,4.1-.68,6.01l-23.97,62.41c-1.7,4.42-5.82,7.42-10.54,7.68-19.23,1.04-38.54,1.56-57.89,1.56ZM565.04,2954.21h.05-.05ZM193.9,2544.66c-17.54,0-35.13,3.26-51.69,9.75-48.2,18.89-81.5,59.58-93.77,114.57-21.87,98.01,38.18,197.62,136.71,226.77,124.39,36.8,249.33,52.55,371.5,46.86l20.05-52.21-6.78-47.53c-146.35,70.21-304.76,28.99-387.8-2.73-42.51-16.24-74.87-50.55-88.79-94.15-13.6-42.56-7.4-88.03,17.01-124.74,7.2-10.83,15.76-20.62,25.43-29.09,31.65-27.7,76.78-31.81,112.26-10.24,17.92,10.88,30.89,25.56,38.58,43.62,10.25,24.1-.35,52.19-23.63,62.61-11.35,5.09-22.84,4.93-33.23-.43-10.75-5.56-18.55-15.62-24.18-26.62-.1,2.24-.09,4.49.03,6.75,1.03,18.14,10.85,33.78,26.93,42.91,16.8,9.54,37.01,9.9,54.06.96,6.79-3.56,13.24-8.45,19.16-14.53,9.78-10.04,15.16-23.74,15.13-38.56-.08-49.47-33.86-91.81-86.08-107.87-13.26-4.08-27.07-6.11-40.9-6.11Z"/>
    </g>
    <g>
      <path class="cls-7" d="M310.91,2493.32c54.81-61.69,118.29-104.8,190.5-129.43,9.59-3.26,20.14-1.49,28.1,4.8l54.71,43.02c100.69-48.01,220.57-43.21,306.88,24l62.33-144.03c-2.35-.14-4.7-.29-7-.48-140.3-10.51-245.31-104.23-349.5-200.2-17.21-15.89-42.34-20.16-63.58-10.32-141.5,65.29-204.65,201.83-219.32,358.53-1.63,17.81-2.68,35.86-3.12,54.11Z"/>
      <path class="cls-4" d="M858.24,2405.15c1.02-43.18-28.03-84.37-67.49-101.83-39.46-17.47-86.99-12.41-124.39,9.12-37.4,21.54-64.87,58.2-79.68,98.77,6.79-6.07,3.52-17.13-.24-25.43-4.9-10.81-9.81-21.63-14.71-32.44-10.65-23.47-22.39-48.25-44.1-62.11-31.15-19.89-71.79-11.06-107.5-1.55-18.34,4.88-38.33,10.91-48.73,26.8-4.95-42.5,21.67-81.82,49.33-114.44,30.16-35.57,67.62-70.88,114.12-73.99,26.01-1.74,51.77,7.11,74.52,19.84,22.75,12.73,43.09,29.29,64.19,44.61,72.09,52.35,154.22,90.8,240.57,112.62-6.26,41-21.02,80.69-43.1,115.79-6.43-5.67-12.85-11.34-19.28-17.01"/>
      <path class="cls-2" d="M310.91,2505.32c-1.47,0-2.96-.27-4.39-.84-4.68-1.85-7.71-6.42-7.59-11.45.43-18.24,1.5-36.71,3.16-54.91,16.9-180.48,95.14-307.84,226.24-368.34,25.59-11.87,55.72-7,76.73,12.4,94.94,87.45,202.56,186.58,342.27,197.05,2.15.18,4.22.31,6.29.44l.56.03c3.9.24,7.43,2.37,9.48,5.7,2.04,3.34,2.33,7.46.78,11.04l-62.33,144.03c-1.47,3.41-4.44,5.94-8.03,6.86-3.6.93-7.41.12-10.33-2.15-80.08-62.36-192.87-71.04-294.36-22.64-4.11,1.96-8.98,1.42-12.56-1.4l-54.71-43.02c-4.78-3.77-11.06-4.85-16.83-2.88-69.91,23.84-132.29,66.25-185.41,126.05-2.32,2.61-5.6,4.02-8.96,4.02ZM557.34,2087.39c-6.43,0-12.89,1.37-18.96,4.18-155.28,71.66-201.22,229.21-212.42,348.76-.64,7.08-1.2,14.21-1.66,21.35,50.84-50.58,108.99-87.24,173.25-109.16,13.5-4.59,28.23-2.08,39.39,6.74l48.91,38.46c102.86-46.44,215.85-38.94,300.23,19.42l49.7-114.84c-143.1-14.68-251.27-114.33-346.96-202.47-8.85-8.17-20.12-12.45-31.47-12.45Z"/>
      <path class="cls-5" d="M314.03,2439.21l.05.05c27.19-125.45,121.5-209.99,231.79-262.8l38.36,235.25,14.38-235.25c108.17,91.46,215.34,145.47,321.26,153.63l26.56-38.89c-140.3-10.51-245.31-104.23-349.5-200.2-17.21-15.89-42.34-20.16-63.58-10.32-141.5,65.29-204.65,201.83-219.32,358.53Z"/>
      <path class="cls-2" d="M314.07,2448.86c-2.34,0-4.63-.85-6.42-2.46-2.25-2.03-3.46-5.05-3.18-8.08,16.81-179.55,94.57-306.24,224.86-366.36,24.7-11.45,53.8-6.75,74.1,11.98,95.23,87.72,203.18,187.15,343.72,197.68,3.42.25,6.44,2.32,7.92,5.42,1.49,3.1,1.21,6.75-.73,9.58l-26.57,38.89c-1.94,2.83-5.2,4.44-8.65,4.16-99.49-7.67-204.49-56.04-312.11-143.75l-13.23,216.37c-.3,4.88-4.21,8.76-9.09,9-5.02.28-9.16-3.22-9.95-8.04l-35.38-216.95c-.29-1.78-1.5-2.63-2.19-2.98-.69-.35-2.09-.81-3.7.01-80.3,41.49-181.92,118.19-210.05,247.96-.73,3.34-3.17,6.05-6.43,7.1-.97.31-1.96.46-2.95.46ZM557.35,2084.99c-6.77,0-13.58,1.45-19.97,4.41-99.64,45.98-166.98,133.57-197.86,255.93,37.98-67.92,100.66-125.39,185.18-169.06,6.69-3.46,14.39-3.5,21.12-.11,6.63,3.34,11.3,9.71,12.5,17.05l21.57,132.3,8.09-132.33c.42-6.92,4.63-12.95,10.98-15.73,6.34-2.78,13.61-1.78,18.96,2.58,102.95,84.19,202.91,131.27,297.19,140.02l14.27-20.89c-139.09-17.01-245.05-114.6-338.94-201.09-9.3-8.58-21.15-13.08-33.09-13.08Z"/>
    </g>
    <g>
      <path class="cls-7" d="M2377.53,2406.9c-54.81-61.69-118.29-104.8-190.5-129.43-9.59-3.26-20.14-1.49-28.1,4.8l-54.71,43.02c-100.69-48.01-220.57-43.21-306.88,24l-62.33-144.03c2.35-.14,4.7-.29,7-.48,140.3-10.51,245.31-104.23,349.5-200.2,17.21-15.89,42.34-20.16,63.58-10.32,141.5,65.29,204.65,201.83,219.32,358.53,1.63,17.81,2.68,35.86,3.12,54.11Z"/>
      <path class="cls-4" d="M1830.2,2318.73c-1.02-43.18,28.03-84.37,67.49-101.83,39.46-17.47,86.99-12.41,124.39,9.12,37.4,21.54,64.87,58.2,79.68,98.77-6.79-6.07-3.52-17.13.24-25.43,4.9-10.81,9.81-21.63,14.71-32.44,10.65-23.47,22.39-48.25,44.1-62.11,31.15-19.89,71.79-11.06,107.5-1.55,18.34,4.88,38.33,10.91,48.73,26.8,4.95-42.5-21.67-81.82-49.33-114.44-30.16-35.57-67.62-70.88-114.12-73.99-26.01-1.74-51.77,7.11-74.52,19.84-22.75,12.73-43.09,29.29-64.19,44.61-72.09,52.35-154.22,90.8-240.57,112.62,6.26,41,21.02,80.69,43.1,115.79,6.43-5.67,12.85-11.34,19.28-17.01"/>
      <path class="cls-2" d="M2377.54,2418.9c-3.36,0-6.64-1.41-8.96-4.02-53.12-59.8-115.51-102.21-185.41-126.05-5.75-1.97-12.05-.89-16.81,2.87l-54.73,43.03c-3.58,2.82-8.44,3.36-12.56,1.4-101.5-48.39-214.29-39.71-294.36,22.65-2.93,2.28-6.73,3.08-10.33,2.15-3.59-.92-6.55-3.45-8.03-6.86l-62.33-144.03c-1.56-3.59-1.26-7.71.78-11.04,2.04-3.33,5.58-5.46,9.48-5.7l.53-.03c2.08-.13,4.16-.26,6.2-.43,139.82-10.48,247.44-109.61,342.4-197.07,20.99-19.38,51.12-24.25,76.73-12.38,131.09,60.49,209.32,187.85,226.22,368.31,1.67,18.23,2.73,36.7,3.17,54.94.12,5.03-2.91,9.61-7.59,11.45-1.43.56-2.92.83-4.39.83ZM2177.33,2263.85c4.54,0,9.11.74,13.55,2.26,64.26,21.91,122.41,58.57,173.26,109.16-.46-7.14-1.01-14.28-1.66-21.37-11.19-119.53-57.13-277.08-212.4-348.73-16.79-7.77-36.59-4.54-50.44,8.25-95.68,88.13-203.82,187.74-346.97,202.47l49.7,114.84c84.37-58.36,197.37-65.85,300.23-19.42l48.93-38.47c7.48-5.9,16.56-8.98,25.81-8.98Z"/>
      <path class="cls-5" d="M2374.41,2352.8l-.05.05c-27.19-125.45-121.5-209.99-231.79-262.8l-38.36,235.25-14.38-235.25c-108.17,91.46-215.34,145.47-321.26,153.63l-26.56-38.89c140.3-10.51,245.31-104.23,349.5-200.2,17.21-15.89,42.34-20.16,63.58-10.32,141.5,65.29,204.65,201.83,219.32,358.53Z"/>
      <path class="cls-2" d="M2374.37,2362.45c-.9,0-1.81-.13-2.71-.39-3.36-.99-5.92-3.75-6.67-7.18-28.12-129.77-129.75-206.47-210.05-247.97-1.6-.82-3-.35-3.7,0-.69.35-1.9,1.2-2.19,2.98l-35.38,216.95c-.79,4.82-5.06,8.3-9.95,8.04-4.88-.24-8.79-4.12-9.09-9l-13.23-216.37c-107.62,87.71-212.62,136.07-312.11,143.75-3.4.29-6.72-1.32-8.65-4.16l-26.56-38.89c-1.94-2.83-2.21-6.48-.73-9.58,1.48-3.1,4.51-5.16,7.92-5.42,140.53-10.53,248.48-109.96,343.73-197.69,20.28-18.73,49.38-23.42,74.1-11.97,130.27,60.12,208.03,186.8,224.84,366.35.27,2.85-.75,5.66-2.77,7.69l-.04.05c-1.83,1.83-4.28,2.82-6.78,2.82ZM2153.09,2087.23c3.63,0,7.27.87,10.65,2.62,84.52,43.68,147.2,101.16,185.18,169.07-30.87-122.37-98.21-209.96-197.84-255.93-17.68-8.19-38.5-4.79-53.07,8.66-93.91,86.49-199.87,184.09-338.95,201.1l14.26,20.89c94.28-8.75,194.23-55.83,297.19-140.01,5.35-4.38,12.62-5.38,18.96-2.59,6.35,2.78,10.56,8.81,10.98,15.74l8.09,132.33,21.57-132.31c1.21-7.44,5.76-13.65,12.49-17.04,3.33-1.68,6.9-2.52,10.47-2.52Z"/>
    </g>
    <g>
      <g>
        <path class="cls-5" d="M2038.55,2839.11c-.12,26.85-1.97,51.71-6.17,73.9-3.78,19.82-18.29,35.7-37.59,41.61-78.51,24.03-165.56,19.3-234.2-4.71l-35.69-95.25,1.59-144.1,27.37-63.04c35.18-46.12,77.08-66.31,117.77-67.79,31.25-1.13,61.78,8.8,88.07,26.56,41.59,28.12,67.51,74.32,72.6,124.29,3.87,38.28,6.42,74.96,6.25,108.53Z"/>
        <path class="cls-8" d="M2038.55,2839.11c-.12,26.85-1.97,51.71-6.17,73.9-3.78,19.82-18.29,35.7-37.59,41.61-78.51,24.03-165.56,19.3-234.2-4.71l-35.69-95.25,1.59-144.1,27.37-63.04c35.18-46.12,77.08-66.31,117.77-67.79l2.34,3.74c-36.09,7.53-64.29,37.69-78.11,71.85-13.82,34.16-15.23,72.04-13.88,108.89,2.06,53.98,12.74,113.33,54.97,146.92,38.91,30.87,97.6,30.19,139.75,3.94,28.29-17.63,49.21-44.99,61.86-75.96Z"/>
        <path class="cls-2" d="M1885.47,2982.36c-44.28,0-88.71-7.07-128.85-21.13-3.36-1.17-6.01-3.78-7.26-7.11l-35.69-95.25c-.52-1.39-.78-2.86-.77-4.35l1.58-144.1c.02-1.6.36-3.18.99-4.65l27.37-63.04c.39-.89.88-1.73,1.47-2.5,72.11-94.49,164.71-82.7,222.09-43.89,43.87,29.66,72.22,78.15,77.81,133.03,8.5,83.48,8.47,140.8-.07,185.86-4.57,24.1-22.14,43.58-45.85,50.84-35.5,10.87-74.11,16.28-112.82,16.28ZM1769.82,2940.37c69.51,23,151.85,24.09,221.47,2.75,15.17-4.65,26.4-17.06,29.31-32.37,7.99-42.1,7.91-98.96-.22-178.95-4.86-47.78-29.42-89.9-67.38-115.57-48.51-32.8-126.89-42.53-188.74,37.43l-25.82,59.46-1.53,139.42,32.91,87.83Z"/>
        <g>
          <path class="cls-9" d="M1741.6,3012.65c-1.87-31.86,2.47-59.8,15.33-82.4,9.46-16.63,32.51-18.61,45.34-4.42,4.18,4.62,7.9,9.62,11.22,14.95,9.95,16.02,5.64,36.96-9.96,47.53-18.11,12.27-38.47,20.83-61.92,24.34Z"/>
          <path class="cls-6" d="M1813.48,2940.79c-3.32-5.34-7.04-10.34-11.22-14.95-2.16-2.39-4.63-4.28-7.25-5.76,8.64,12.15,8.88,28.82-.52,41.29-13.18,17.47-29.69,32.16-50.74,43.07-.9-2.22-1.69-4.4-2.51-6.6-.02,4.85.06,9.77.35,14.82,23.44-3.51,43.81-12.07,61.92-24.34,15.61-10.57,19.92-31.51,9.96-47.53Z"/>
          <path class="cls-2" d="M1741.6,3021.01c-1.9,0-3.76-.65-5.26-1.87-1.82-1.48-2.94-3.66-3.07-6-2.09-35.49,3.28-63.96,16.41-87.03,5.74-10.1,15.7-16.63,27.3-17.9,11.76-1.29,23.53,3.19,31.48,12,4.41,4.87,8.49,10.3,12.12,16.15,12.38,19.92,6.94,45.78-12.38,58.87-20.27,13.74-41.66,22.13-65.36,25.68-.41.06-.82.09-1.23.09ZM1781.05,2924.72c-.75,0-1.51.04-2.27.13-6.22.68-11.54,4.16-14.61,9.55-10.33,18.16-15.14,40.58-14.62,68.32,17.58-3.8,33.78-10.82,49.28-21.31,11.85-8.03,15.17-23.93,7.55-36.19-3.11-5-6.57-9.62-10.31-13.75-3.93-4.35-9.3-6.73-15.02-6.73Z"/>
        </g>
        <g>
          <path class="cls-9" d="M2057.87,2985.62c-7.04-31.88-19.1-58.18-38.06-76.82-13.95-13.72-37.19-9.23-45.86,8.32-2.82,5.71-5.09,11.67-6.87,17.85-5.33,18.55,4.75,37.95,23.06,44,21.24,7.01,43.68,9.75,67.73,6.65Z"/>
          <path class="cls-6" d="M1967.08,2934.97c1.78-6.18,4.05-12.14,6.87-17.85,1.46-2.95,3.36-5.5,5.53-7.69-5.12,14.37-.71,30.85,12.02,40.5,17.84,13.51,38.19,23.36,61.95,28.21.27-2.43.43-4.8.63-7.19,1.38,4.77,2.67,9.63,3.79,14.69-24.05,3.1-46.49.36-67.73-6.65-18.31-6.05-28.39-25.45-23.06-44Z"/>
          <path class="cls-2" d="M2038.51,2996.47c-17.27,0-34.48-2.8-51.37-8.37-23.2-7.67-36.06-32.17-29.27-55.78,1.96-6.81,4.48-13.35,7.5-19.45,5.53-11.19,16.14-19.11,28.39-21.18,12.15-2.05,24.07,1.69,32.78,10.27,19.5,19.18,32.82,45.88,40.7,81.6.58,2.63.03,5.39-1.52,7.59-1.55,2.2-3.95,3.66-6.62,4-6.86.89-13.73,1.33-20.59,1.33ZM2000.17,2910.35c-1.06,0-2.14.09-3.22.27-6.3,1.07-11.55,4.99-14.4,10.76-2.51,5.07-4.61,10.54-6.25,16.25-3.93,13.65,3.47,27.81,16.84,32.23,17.62,5.82,34.97,8.21,52.78,7.23-7.18-26.65-17.97-46.82-32.83-61.44-3.51-3.45-8.09-5.3-12.92-5.3Z"/>
        </g>
        <g>
          <path class="cls-9" d="M1852.29,2963.69c2.82,33.16,14.53,57.76,36.41,72.58,24.05-22.04,30.28-58.3,30.43-90.7.03-6.93-4.56-13.12-11.21-15.06-13.31-3.89-26.03-4.09-37.83,1.36-12.04,5.55-18.91,18.6-17.79,31.83Z"/>
          <path class="cls-2" d="M1888.7,3044.73c-1.65,0-3.3-.48-4.74-1.46-23.51-15.93-37-42.47-40.09-78.87h0c-1.46-17.14,7.65-33.31,22.67-40.24,12.85-5.92,27.56-6.52,43.75-1.79,10.24,2.99,17.35,12.55,17.29,23.24-.19,44.31-11.35,76.91-33.17,96.9-1.6,1.47-3.65,2.22-5.71,2.22ZM1889.63,2936.14c-5.77,0-11.08,1.14-16.02,3.41-8.57,3.95-13.75,13.36-12.89,23.42h0c2.4,28.33,11.3,48.71,27.14,62.06,14.98-17.09,22.65-43.79,22.81-79.5.01-3.17-2.09-6.01-5.12-6.89-5.69-1.66-10.97-2.5-15.91-2.5Z"/>
        </g>
      </g>
      <path class="cls-5" d="M675.33,2733.37l143.85,297.66,269.38,37.88,30.93,4.37c164.42,55.21,405.75,50.03,547.63-51.47,8.63-6.19,16.88-12.72,24.74-19.59l14.29-40.86,52.84-151.18,14.38-240.05-86.31-283.26-46.27-116.52-19.71-49.55-4.65-3.17-82.81-56.41-219.18,41.77-108.08,20.55-164.23,31.3c-17.89,2.59-33.32,8.11-46.7,16.03-57.68,34.04-78.06,111.86-97.24,184.79-16.93,64.28-47.57,124.2-90,175.38-67.75,81.81-126.2,135.67-132.87,202.31Z"/>
      <path class="cls-7" d="M1042.14,2692.56l31.93,259.11,14.48,117.24,30.93,4.37c164.42,55.21,405.75,50.03,547.63-51.47,8.63-6.19,16.88-12.72,24.74-19.59l14.29-40.86-16.69-153.58c6.81-72.3,7.58-142.97,2.45-212.06-2.64-36.34-6.95-72.21-12.8-107.64-15.87-96.02-43.39-188.92-81.99-278.79-12.75-29.67-26.76-59-41.91-88.05l-240.75-18.24-75.71-5.76-32.37,26.31-44.35,36.1c2.97,38.26,5.08,76,6.28,113.11,3.16,100.24-.58,196.02-13.67,285.8l-112.49,133.99Z"/>
      <path class="cls-8" d="M995.44,2170.89c41.86,45.03,101.99,80.75,172.86,101.88-1.2-37.11-3.31-74.85-6.28-113.11l44.35-36.1-164.23,31.3c-17.89,2.59-33.32,8.11-46.7,16.03Z"/>
      <path class="cls-4" d="M1162.01,2159.65c2.97,38.26,5.08,76,6.28,113.11,45.98,13.73,96.52,21.32,149.55,21.32,109.85,0,208.96-32.55,279.26-84.78-12.75-29.67-26.76-59-41.91-88.05l-240.75-18.24-75.71-5.76-32.37,26.31-44.35,36.1Z"/>
      <path class="cls-4" d="M1074.07,2951.66l14.48,117.24,30.93,4.37c174.39,58.57,435.38,49.16,572.37-71.05l14.29-40.86-16.69-153.58c10.36-110.28,6.71-216.81-10.36-319.69-13.76,60.25-12.76,123.48-15.68,185.6-3.36,72.45-13.57,148.06-55.57,207.16-38.7,54.44-101.94,89.01-167.97,98.9-65.98,9.84-134.26-3.79-194.77-32.07-17.26-8.11-34.28-17.52-47.81-31.01-18.08-18.05-28.87-42.1-37.11-66.35-15.39-45.32-23.26-93.19-23.11-141.1-25.13,79.7-46.18,160.64-63.01,242.45Z"/>
      <path class="cls-2" d="M1345.6,3119.87c-81.16,0-161.38-12.34-228.88-34.86l-299.21-42.09c-3.96-.56-7.38-3.05-9.12-6.66l-143.85-297.66c-.96-2-1.36-4.22-1.14-6.43,5.77-57.7,46.59-105.01,98.26-164.91,12.03-13.94,24.46-28.35,37.31-43.86,40.9-49.33,71.2-108.38,87.63-170.78,24.07-91.52,51.23-194.76,153.56-209.6l491.21-93.57c3.14-.6,6.36.08,8.99,1.87l87.46,59.58c1.98,1.35,3.51,3.26,4.39,5.48l65.98,166.06c.12.31.23.62.33.94l86.31,283.25c.41,1.36.59,2.79.5,4.22l-14.39,240.05c-.07,1.11-.29,2.2-.65,3.25l-67.13,192.04c-.68,1.95-1.86,3.7-3.41,5.06-86.13,75.59-221.4,108.62-354.16,108.62ZM827.18,3020.03l293.97,41.36c.73.1,1.44.27,2.14.51,170.47,57.25,425.06,47.75,558.3-66.66l65.52-187.45,14.16-236.23-85.54-280.71-64.44-162.18-80.31-54.72-486.6,92.69c-.18.03-.37.06-.55.09-86.83,12.44-110.77,103.5-133.94,191.57-17.42,66.19-49.37,128.43-92.48,180.42-13,15.69-25.51,30.2-37.61,44.22-47.84,55.45-85.84,99.5-92.17,148.33l139.55,288.76Z"/>
      <path class="cls-5" d="M1667.11,3021.81c-.67,18.63-1.15,37.35-1.39,56.22-.34,21.65,11.46,41.91,30.88,51.42,46.8,22.9,106.69,29.67,170.51,23.76,37.64-3.46,68.23-32.07,74.85-69.28,3.6-20.12,6.52-40.47,8.82-61.02,40.23-355.46-102.66-762.29-270.67-907.81-10.17,19.59-23.4,38.07-39.32,55.26-9.35,10.13-19.61,19.73-30.74,28.85l60.22,123.67c19.76,86.32,24.02,177.35,21.63,272.84-1.97,80.85-8.73,164.86-14.91,251.95-4.03,56.8-7.82,114.79-9.88,174.13Z"/>
      <path class="cls-8" d="M1665.72,3078.02c-.34,21.65,11.46,41.91,30.88,51.42,46.8,22.9,106.69,29.67,170.51,23.76,37.64-3.46,68.23-32.07,74.85-69.28,3.6-20.12,6.52-40.47,8.82-61.02-.86-.96-1.82-1.92-2.83-2.88l-.91-3.07c-20.14,52.33-75.33,88.91-131.28,87.09-55.96-1.78-108.65-41.86-125.39-95.35-7.14-22.8-8.15-46.95-9.16-70.81-1.2-30.29-2.45-60.59-3.69-90.88-.19.24-.38.43-.53.67-5.32,74.61-10.17,151.37-11.27,230.35Z"/>
      <g class="cls-1">
        <path class="cls-3" d="M1904.32,3093.18c4.01-20.47,7.35-41.2,10.06-62.14,45.57-348.3-78.26-748.32-235.59-913.53.43-.8.89-1.6,1.3-2.41,168.01,145.52,310.9,552.35,270.67,907.81-2.3,20.55-5.23,40.9-8.82,61.02-6.62,37.21-37.21,65.82-74.85,69.28-2.87.27-5.72.48-8.58.69,23.19-11.63,40.55-33.81,45.79-60.71Z"/>
      </g>
      <path class="cls-2" d="M1670.28,2322.89c36.94,83.95,34.11,178.3,34.02,268.13-3.45,157.58-22,313.46-24.23,470.72,0,0-.33,16.68-.33,16.68-.19,15.81,8.93,31.48,23.22,38.24,49.84,23.6,106.84,26.66,161.09,21.87,27.97-1.82,53.3-22.01,61.19-48.96,5.9-24.19,8.91-55.31,12.04-80.3,21.23-231.69-23.92-469.79-121.89-680.33-38.58-78.61-85.27-155.82-152.61-212.72,0,0,9.84,2.4,9.84,2.4l-95.9,19.2c-15.38,2.88-20.26-20.04-4.7-23.54,0,0,95.9-19.2,95.9-19.2,3.57-.79,7.23.19,9.84,2.4,71.5,58.16,121.4,138.09,162.05,219.58,98.29,204.55,143.46,434.63,129.9,661.19-1.2,16.89-4.66,51.15-6.92,67.96-2.81,17.39-4.38,35.08-9.11,52.11-5.67,19-17.4,35.99-32.75,48.46-19.9,16.73-46.15,22.34-71.54,22.6-34.88,1.75-70.13-.11-104.3-8-20.39-4.72-40.76-11.55-59.3-21.56-15.22-8.98-26.6-24.14-31.32-40.97-3.82-10.76-2.59-26.33-2.33-37.66,0,0,.93-33.84.93-33.84,6.45-201.33,39.3-402.41,22.14-603.6-.8-18.91-2.96-39.5-3.29-58.43-1.12-13.98-1.95-28.12-1.64-42.42h0Z"/>
      <g>
        <path class="cls-9" d="M1936.89,3187.63c4.18-36.41.97-68.73-12.33-95.46-9.79-19.67-36.09-23.41-51.71-7.96-5.08,5.03-9.67,10.52-13.81,16.43-12.43,17.74-8.82,42.02,8.4,55.14,19.98,15.22,42.79,26.34,69.45,31.86Z"/>
        <path class="cls-6" d="M1859.03,3100.63c4.14-5.91,8.73-11.4,13.81-16.43,2.63-2.6,5.58-4.61,8.68-6.14-10.68,13.38-12.02,32.48-2.03,47.38,14,20.87,31.99,38.77,55.44,52.62,1.18-2.48,2.21-4.94,3.3-7.4-.28,5.56-.68,11.2-1.35,16.97-26.66-5.52-49.47-16.63-69.45-31.86-17.22-13.12-20.84-37.4-8.4-55.14Z"/>
        <path class="cls-2" d="M1936.89,3197.23c-.65,0-1.3-.06-1.94-.2-26.97-5.58-50.95-16.58-73.32-33.62-21.32-16.24-25.91-46.24-10.44-68.3,4.51-6.45,9.53-12.42,14.92-17.75,9.69-9.58,23.48-13.96,36.86-11.75,13.23,2.2,24.22,10.31,30.17,22.26,13.59,27.29,17.93,60.28,13.28,100.84-.31,2.68-1.73,5.11-3.91,6.68-1.65,1.2-3.62,1.82-5.62,1.82ZM1895.93,3084.24c-6.08,0-11.88,2.38-16.35,6.79-4.57,4.52-8.84,9.6-12.7,15.12-9.52,13.58-6.73,32.02,6.36,41.98,17.09,13.02,35.22,22.1,55.15,27.58,2.36-31.78-1.73-57.79-12.42-79.27-3.17-6.37-9.06-10.7-16.15-11.88-1.31-.22-2.61-.33-3.9-.33Z"/>
      </g>
      <g>
        <path class="cls-9" d="M1613.61,3147.78c6.33-32.03,17.8-58.59,36.34-77.65,13.64-14.03,36.97-10.06,46.04,7.29,2.95,5.65,5.35,11.56,7.27,17.7,5.74,18.43-3.9,38.05-22.07,44.5-21.08,7.49-43.45,10.72-67.57,8.16Z"/>
        <path class="cls-6" d="M1703.25,3095.12c-1.91-6.14-4.32-12.05-7.27-17.7-1.53-2.92-3.48-5.43-5.7-7.57,5.43,14.25,1.4,30.83-11.12,40.75-17.54,13.91-37.66,24.21-61.31,29.58-.33-2.43-.54-4.79-.79-7.18-1.27,4.8-2.45,9.69-3.46,14.77,24.12,2.56,46.48-.67,67.57-8.16,18.17-6.45,27.82-26.08,22.07-44.5Z"/>
        <path class="cls-2" d="M1629.64,3158.23c-5.67,0-11.35-.3-17.04-.91-2.68-.28-5.11-1.68-6.71-3.85-1.6-2.17-2.21-4.91-1.69-7.55,7.09-35.88,19.8-62.87,38.87-82.49,8.52-8.77,20.37-12.75,32.54-11,12.3,1.8,23.09,9.48,28.87,20.54,3.15,6.03,5.81,12.52,7.92,19.29,7.32,23.46-4.99,48.23-28.02,56.41-17.92,6.37-36.27,9.57-54.74,9.57ZM1625.37,3138.98c17.75.56,35.1-2.2,52.6-8.41,13.27-4.71,20.35-19.03,16.12-32.59-1.77-5.67-3.99-11.09-6.61-16.11-2.98-5.71-8.31-9.51-14.64-10.43-6.03-.88-11.84,1.08-16.02,5.39-14.53,14.95-24.87,35.35-31.45,62.15Z"/>
      </g>
      <g>
        <path class="cls-9" d="M1811.65,3127.15c-10.93,36.11-29.71,60.62-57.46,71.9-21.48-30.11-19.87-71.79-12.4-107.77,1.6-7.7,8.15-13.47,15.98-14.06,15.68-1.17,29.83,1.61,41.64,10.43,12.04,9,16.59,25.09,12.24,39.49Z"/>
        <path class="cls-2" d="M1754.19,3208.66c-3.03,0-5.96-1.44-7.81-4.02-19.49-27.32-24.2-66.12-13.98-115.3,2.46-11.86,12.59-20.78,24.65-21.68,19.06-1.45,35.24,2.71,48.09,12.31,15.03,11.22,21.33,31.3,15.68,49.97h0c-12,39.64-33.21,65.89-63.03,78.02-1.18.48-2.39.71-3.6.71ZM1764.4,3086.58c-1.91,0-3.88.08-5.91.23-3.57.27-6.57,2.91-7.31,6.44-8.23,39.63-6.01,71.05,6.58,93.55,20.7-11.07,35.37-31.59,44.7-62.43,3.31-10.95-.22-22.61-8.8-29.01-7.88-5.88-17.5-8.78-29.27-8.78ZM1811.65,3127.15h.05-.05Z"/>
      </g>
      <g>
        <path class="cls-5" d="M546.01,2943.26c.72,26.84,3.12,51.66,7.82,73.74,4.22,19.73,19.08,35.29,38.5,40.76,79.02,22.28,165.95,15.6,234.04-9.94l33.56-96.02-4.79-144.03-28.77-62.41c-36.2-45.32-78.54-64.57-119.25-65.15-31.26-.43-61.57,10.18-87.46,28.52-40.95,29.05-65.84,75.81-69.81,125.88-3.02,38.36-4.75,75.09-3.84,108.65Z"/>
        <path class="cls-8" d="M546.01,2943.26c.72,26.84,3.12,51.66,7.82,73.74,4.22,19.73,19.08,35.29,38.5,40.76,79.02,22.28,165.95,15.6,234.04-9.94l33.56-96.02-4.79-144.03-28.77-62.41c-36.2-45.32-78.54-64.57-119.25-65.15l-2.25,3.79c36.25,6.72,65.12,36.25,79.69,70.09,14.58,33.85,16.83,71.68,16.3,108.55-.86,54.01-10.21,113.59-51.69,148.11-38.22,31.73-96.91,32.36-139.63,7.06-28.67-17-50.2-43.88-63.53-74.56Z"/>
        <path class="cls-2" d="M692.96,3083.17c-35.6,0-71.01-4.59-103.89-13.87-23.86-6.73-41.86-25.82-46.97-49.81-9.55-44.86-10.85-102.17-4.21-185.81,4.36-55,31.64-104.11,74.83-134.74,56.52-40.08,148.82-53.92,223,38.92.61.76,1.12,1.59,1.53,2.47l28.77,62.41c.67,1.46,1.04,3.03,1.1,4.63l4.79,144.03c.05,1.48-.18,2.96-.67,4.37l-33.57,96.02c-1.18,3.36-3.77,6.03-7.11,7.28-42.59,15.99-90.28,24.1-137.62,24.1ZM705.48,2692.57c-29.72,0-57.39,10.71-78.9,25.97-37.38,26.5-60.99,69.17-64.79,117.05-6.35,80.13-5.16,136.98,3.76,178.9,3.25,15.25,14.75,27.4,30.03,31.71,70.07,19.77,152.37,16.85,221.35-7.7l30.95-88.54-4.64-139.36-27.14-58.87c-34.96-43.19-74.33-59.17-110.62-59.17Z"/>
        <g>
          <path class="cls-9" d="M846.74,3110.14c1.17-31.89-3.8-59.73-17.16-82.04-9.83-16.41-32.92-17.88-45.43-3.41-4.07,4.71-7.68,9.79-10.88,15.2-9.6,16.24-4.82,37.07,11.02,47.3,18.38,11.86,38.93,19.97,62.44,22.95Z"/>
          <path class="cls-6" d="M773.28,3039.89c3.2-5.41,6.81-10.49,10.88-15.2,2.11-2.44,4.53-4.38,7.12-5.92-8.37,12.34-8.24,29.01,1.44,41.27,13.56,17.17,30.39,31.49,51.69,41.92.85-2.23,1.59-4.44,2.36-6.65.13,4.85.16,9.77-.02,14.83-23.52-2.98-44.07-11.09-62.44-22.95-15.84-10.22-20.61-31.06-11.02-47.3Z"/>
          <path class="cls-2" d="M846.74,3118.5c-.35,0-.7-.02-1.05-.06-23.78-3.02-45.34-10.94-65.92-24.22-19.6-12.66-25.62-38.39-13.68-58.58,3.5-5.91,7.45-11.44,11.75-16.41,7.76-8.98,19.45-13.73,31.21-12.7,11.63,1.02,21.73,7.31,27.69,17.28,13.64,22.77,19.64,51.11,18.34,86.65-.08,2.34-1.15,4.55-2.94,6.06-1.52,1.29-3.43,1.99-5.4,1.99ZM805.79,3023.1c-5.88,0-11.39,2.51-15.32,7.06-3.65,4.22-7.01,8.93-10.01,13.98-7.34,12.43-3.67,28.25,8.36,36.02,15.72,10.15,32.07,16.8,49.73,20.21-.1-27.75-5.4-50.05-16.13-67.97-3.19-5.32-8.59-8.68-14.83-9.22-.6-.05-1.21-.08-1.81-.08Z"/>
        </g>
        <g>
          <path class="cls-9" d="M529.95,3090.17c6.33-32.03,17.8-58.59,36.34-77.65,13.64-14.03,36.97-10.06,46.04,7.29,2.95,5.65,5.35,11.56,7.27,17.7,5.74,18.43-3.9,38.05-22.07,44.5-21.08,7.49-43.45,10.72-67.57,8.16Z"/>
          <path class="cls-6" d="M619.59,3037.51c-1.91-6.14-4.32-12.05-7.27-17.7-1.53-2.92-3.48-5.43-5.7-7.57,5.43,14.25,1.4,30.83-11.12,40.75-17.54,13.91-37.66,24.21-61.31,29.58-.33-2.43-.54-4.79-.79-7.18-1.27,4.8-2.45,9.69-3.46,14.77,24.12,2.56,46.48-.67,67.57-8.16,18.17-6.45,27.82-26.08,22.07-44.5Z"/>
          <path class="cls-2" d="M546.38,3100.65c-5.77,0-11.57-.31-17.44-.94-2.68-.28-5.11-1.68-6.71-3.85-1.6-2.17-2.21-4.91-1.69-7.55,7.09-35.89,19.8-62.87,38.88-82.49,8.52-8.77,20.4-12.75,32.54-11,12.3,1.8,23.09,9.48,28.87,20.54,3.14,6.01,5.8,12.49,7.92,19.28,7.32,23.46-5,48.24-28.03,56.42-18.07,6.42-35.99,9.59-54.34,9.59ZM541.71,3081.37c17.87.59,35.12-2.2,52.6-8.41,13.27-4.71,20.36-19.03,16.13-32.59-1.78-5.69-4-11.11-6.61-16.11-2.98-5.71-8.31-9.51-14.64-10.43-5.99-.88-11.84,1.08-16.02,5.39-14.53,14.95-24.87,35.36-31.45,62.16Z"/>
        </g>
        <g>
          <path class="cls-9" d="M734.99,3063.65c-2.08,33.21-13.24,58.07-34.78,73.38-24.53-21.5-31.57-57.6-32.44-90-.18-6.93,4.27-13.22,10.87-15.31,13.22-4.19,25.93-4.67,37.86.51,12.16,5.28,19.32,18.18,18.49,31.42Z"/>
          <path class="cls-2" d="M700.21,3145.49c-1.99,0-3.98-.7-5.57-2.09-22.26-19.5-34.15-51.85-35.33-96.15-.28-10.68,6.61-20.39,16.78-23.61,16.08-5.1,30.81-4.82,43.77.82,15.17,6.59,24.64,22.55,23.57,39.72h0c-2.28,36.46-15.18,63.3-38.33,79.76-1.47,1.05-3.18,1.56-4.9,1.56ZM698.02,3036.93c-5.22,0-10.81.95-16.83,2.86-3.01.95-5.05,3.83-4.96,7.01.95,35.69,9.21,62.21,24.57,78.97,15.53-13.71,23.97-34.29,25.75-62.66h0c.63-10.07-4.76-19.37-13.42-23.12-4.7-2.04-9.71-3.06-15.11-3.06Z"/>
        </g>
      </g>
      <g>
        <path class="cls-5" d="M835.96,2620.54c-13.26,159.29-42.81,314.5-21.08,465.63,3.57,24.84,21.13,45.54,45.01,53.16,64.97,20.73,134.76,22.4,200.43,2.52,37.43-11.33,62.39-46.61,62.02-85.76-.98-103.55,4.52-215.47,13.23-331.57,1.43-19.05,4-38,7.42-56.79,18.83-103.42,16.52-213.84-14.54-316.04l-292.49,268.85Z"/>
        <path class="cls-8" d="M813.63,2840.75c-3.09,60.02-2.41,119.43,6.04,178.21,3.57,24.84,21.13,45.54,45.01,53.16,64.97,20.73,134.76,22.4,200.43,2.52,27.5-8.33,48.22-29.6,57.16-55.82-.06,12.53-.05,24.97.07,37.27.37,39.15-24.59,74.43-62.02,85.76-65.67,19.89-135.46,18.21-200.43-2.52-23.88-7.62-41.44-28.32-45.01-53.16-11.59-80.65-8.58-162.46-1.24-245.43Z"/>
        <path class="cls-2" d="M1128.45,2351.69c34.37,58.08,38.5,127.5,38.99,193.4-.05,33.23-2.74,66.41-7.26,99.3-5,32.2-10.54,63.29-11.86,96.11-6.26,97.44-11.41,194.84-11.13,292.4l.12,24.56c.62,48.49-35.44,92.32-82.87,101.67-57.6,15.36-119.08,15.07-176.71.36-6.01-1.39-12.44-3.42-18.37-5.18-21.34-5.72-40.21-20.73-50.32-40.42-4.5-8.47-7.48-18.55-8.5-27.96-11.88-90.11-6.26-182.33,3.22-271.79,7.56-65.45,11.72-130.25,32.21-193.61,4.86,33.18,4.15,66.09,1.75,98.67-11.24,121.95-28.49,251.63-6.97,372.53,5.23,17.19,19.7,30.58,37.1,34.84,5.53,1.53,11.4,3.42,16.95,4.68,52.95,13.18,109.2,13.18,161.85-1.18,34.24-6.52,61.01-37.56,60.67-72.76,0,0,0-24.4,0-24.4,1.15-114.96,5.71-229.8,18.53-344.04,8.43-47.68,16.14-95.55,16.47-144.09,2.18-63.83-10.89-129.49-13.86-193.11h0Z"/>
        <g>
          <path class="cls-9" d="M1140.93,3182.83c4.18-36.41.97-68.73-12.33-95.46-9.79-19.67-36.1-23.41-51.71-7.96-5.08,5.03-9.67,10.52-13.81,16.43-12.43,17.74-8.82,42.02,8.4,55.14,19.98,15.22,42.79,26.34,69.45,31.86Z"/>
          <path class="cls-6" d="M1063.07,3095.83c4.14-5.91,8.73-11.4,13.81-16.43,2.63-2.6,5.58-4.61,8.68-6.14-10.68,13.38-12.02,32.48-2.03,47.38,14,20.87,31.99,38.77,55.44,52.62,1.18-2.48,2.21-4.94,3.3-7.4-.28,5.56-.68,11.2-1.35,16.97-26.66-5.52-49.47-16.63-69.45-31.86-17.22-13.12-20.84-37.4-8.4-55.14Z"/>
          <path class="cls-2" d="M1140.93,3192.43c-.65,0-1.3-.06-1.94-.2-26.96-5.58-50.94-16.58-73.32-33.62-21.32-16.24-25.91-46.24-10.45-68.3,4.55-6.47,9.56-12.45,14.93-17.75,9.69-9.58,23.48-13.96,36.86-11.75,13.23,2.2,24.22,10.31,30.17,22.26,13.59,27.29,17.93,60.28,13.28,100.84-.31,2.68-1.73,5.1-3.91,6.68-1.65,1.2-3.62,1.82-5.62,1.82ZM1099.97,3079.44c-6.08,0-11.88,2.38-16.34,6.79-4.55,4.5-8.83,9.58-12.71,15.12-9.51,13.57-6.72,32.02,6.36,41.98,17.1,13.02,35.23,22.1,55.15,27.58,2.37-31.78-1.72-57.79-12.42-79.27-3.17-6.37-9.06-10.7-16.15-11.88-1.3-.22-2.6-.33-3.9-.33Z"/>
        </g>
        <g>
          <path class="cls-9" d="M779.29,3157.38c6.33-32.03,17.8-58.59,36.34-77.65,13.64-14.03,36.97-10.06,46.04,7.29,2.95,5.65,5.35,11.56,7.27,17.7,5.74,18.43-3.9,38.05-22.07,44.5-21.08,7.49-43.45,10.72-67.57,8.16Z"/>
          <path class="cls-6" d="M868.93,3104.72c-1.91-6.14-4.32-12.05-7.27-17.7-1.53-2.92-3.48-5.43-5.7-7.57,5.43,14.25,1.4,30.83-11.12,40.75-17.54,13.91-37.66,24.21-61.31,29.58-.33-2.43-.54-4.79-.79-7.18-1.27,4.8-2.45,9.69-3.46,14.77,24.12,2.56,46.48-.67,67.57-8.16,18.17-6.45,27.82-26.08,22.07-44.5Z"/>
          <path class="cls-2" d="M795.7,3167.87c-5.76,0-11.56-.31-17.43-.94-2.68-.28-5.11-1.68-6.71-3.85-1.6-2.17-2.21-4.91-1.69-7.55,7.09-35.89,19.8-62.87,38.88-82.5,8.52-8.76,20.36-12.77,32.54-10.99,12.3,1.8,23.09,9.48,28.87,20.54,3.15,6.03,5.81,12.52,7.92,19.29,7.31,23.45-5,48.23-28.02,56.41-18.08,6.42-36,9.59-54.36,9.59ZM791.05,3148.58c17.78.56,35.1-2.2,52.6-8.41,13.27-4.72,20.36-19.03,16.13-32.6-1.77-5.67-3.99-11.09-6.61-16.11-2.97-5.7-8.31-9.51-14.64-10.43-6.01-.89-11.85,1.09-16.02,5.39-14.53,14.95-24.87,35.35-31.45,62.16Z"/>
        </g>
        <g>
          <path class="cls-9" d="M1006.09,3136.75c-10.93,36.11-29.71,60.62-57.46,71.9-21.48-30.11-19.87-71.79-12.4-107.77,1.6-7.7,8.15-13.47,15.98-14.06,15.68-1.17,29.83,1.61,41.64,10.43,12.04,9,16.59,25.09,12.24,39.49Z"/>
          <path class="cls-2" d="M948.64,3218.26c-3.03,0-5.96-1.44-7.81-4.02-19.49-27.32-24.2-66.11-13.98-115.3,2.46-11.86,12.59-20.78,24.65-21.68,19.11-1.41,35.25,2.72,48.09,12.31,15.03,11.23,21.33,31.31,15.68,49.97h0c-12,39.65-33.21,65.89-63.03,78.02-1.18.48-2.4.71-3.6.71ZM958.83,3096.18c-1.91,0-3.87.08-5.9.23-3.56.27-6.57,2.91-7.3,6.44-8.23,39.64-6.01,71.06,6.58,93.55,20.7-11.07,35.37-31.58,44.7-62.43h0c3.31-10.95-.22-22.61-8.8-29.01-7.88-5.88-17.5-8.78-29.29-8.78ZM1006.1,3136.75h.05-.05Z"/>
        </g>
      </g>
      <ellipse class="cls-8" cx="915.07" cy="2690.16" rx="50.41" ry="31.17" transform="translate(-1864.23 3281.57) rotate(-83.23)"/>
      <ellipse class="cls-8" cx="886.3" cy="2790.98" rx="35.48" ry="21.93" transform="translate(-1989.72 3341.93) rotate(-83.23)"/>
      <ellipse class="cls-8" cx="948.64" cy="2771.77" rx="24.01" ry="14.84" transform="translate(-1955.5 3157.3) rotate(-78.67)"/>
      <ellipse class="cls-8" cx="1876.55" cy="2790.31" rx="24.8" ry="40.11" transform="translate(-399.63 315.17) rotate(-8.68)"/>
      <ellipse class="cls-8" cx="1877.2" cy="2706.88" rx="17.45" ry="28.23" transform="translate(-387.03 314.32) rotate(-8.68)"/>
      <path class="cls-8" d="M1845.26,2734.02c-.76-10.52-6.65-18.67-13.16-18.2-6.51.47-11.16,9.38-10.4,19.91.76,10.52,6.65,18.67,13.16,18.2,6.51-.47,11.16-9.38,10.4-19.91Z"/>
      <ellipse class="cls-8" cx="617.79" cy="2805.38" rx="35.48" ry="21.93" transform="translate(-2240.88 3087.99) rotate(-83.23)"/>
      <ellipse class="cls-8" cx="675.33" cy="2771.77" rx="24.01" ry="14.84" transform="translate(-2175.11 2889.31) rotate(-78.67)"/>
    </g>
    <path class="cls-8" d="M1314.44,2103l240.75,18.24c15.15,29.05,29.15,58.38,41.91,88.05,4.41-3.26,8.73-6.63,12.95-10.08l-35.67-73.17,42.05-8.4-82.81-56.41-219.18,41.77Z"/>
    <path class="cls-8" d="M1574.38,2126.05l35.67,73.17c11.12-9.12,21.39-18.72,30.74-28.85,15.92-17.19,29.15-35.67,39.32-55.26-3.26-2.88-6.52-5.62-9.83-8.26l-53.85,10.8-42.05,8.4Z"/>
    <g>
      <path class="cls-9" d="M1545.61,820.19l219.85,155.26,235.67,166.4c153.44-248.64,87.75-555.76-56.39-788.99-90.19-146.04-211.17-263.09-328.36-318.69-17.89-8.5-36.82,9.65-28.82,27.8,119.54,270.2,98.68,522.05-41.96,758.21Z"/>
      <path class="cls-6" d="M1765.46,975.45l235.67,166.4c153.44-248.64,87.75-555.76-56.39-788.99l-.86,2.5c-7.05-13.44-15.44-28.09-29.87-32.79-19.52-6.39-40.61,9.99-46.8,29.62-6.19,19.64-1.49,40.86,3.69,60.78,18.8,71.73,44.31,142.01,55,215.42,10.69,73.36,5.08,152.33-34.43,215.08-32.41,51.42-84.68,87.81-126.01,131.98Z"/>
      <path class="cls-2" d="M2001.13,1153.86c-2.45,0-4.87-.75-6.91-2.19l-455.52-321.66c-5.12-3.62-6.59-10.57-3.38-15.96,141.58-237.75,155.47-489.15,41.31-747.21-5.68-12.83-2.86-27.44,7.17-37.23,10.13-9.89,24.94-12.35,37.75-6.27,189.41,89.9,372.41,324.56,445.02,570.64,42.32,143.42,67.09,355.99-55.24,554.2-1.74,2.82-4.56,4.79-7.8,5.45-.79.16-1.6.24-2.4.24ZM1561.54,816.75l435.97,307.86c110.16-187.54,86.22-387.77,46.06-523.85-70.82-240.02-248.6-468.56-432.3-555.75-5.57-2.64-9.63.69-10.74,1.77-1.38,1.34-4.33,5.04-1.99,10.32,115.97,262.13,103.5,517.66-36.99,759.64Z"/>
      <path class="cls-2" d="M2077.27,958.74c-5.11,0-9.85-3.3-11.44-8.44-53.21-171.34-220.99-262.96-427.42-233.45-6.58.92-12.63-3.62-13.56-10.19-.94-6.56,3.61-12.64,10.17-13.58,103.7-14.83,201.08-.25,281.59,42.15,84.11,44.3,143.62,116.2,172.11,207.93,1.97,6.33-1.57,13.06-7.89,15.02-1.19.37-2.38.54-3.56.54Z"/>
      <path class="cls-2" d="M2033.44,544.84c-3.75,0-7.44-1.76-9.78-5.05-74.76-105.35-254.77-102.14-355.97-59.33-6.12,2.58-13.14-.28-15.71-6.38-2.58-6.1.28-13.15,6.37-15.73,59.86-25.33,136.62-35.38,205.32-26.9,79.52,9.82,143.28,43.35,179.53,94.43,3.83,5.41,2.57,12.9-2.83,16.74-2.11,1.5-4.53,2.22-6.93,2.22Z"/>
      <path class="cls-2" d="M1870.65,259.8c-2.49,0-5-.77-7.14-2.37-53.82-40.1-136.82-42.68-211.47-6.59-5.97,2.9-13.13.38-16.01-5.59-2.88-5.97-.38-13.14,5.58-16.03,83.87-40.55,174.37-37.12,236.2,8.95,5.32,3.96,6.41,11.48,2.46,16.79-2.35,3.17-5.96,4.84-9.63,4.84Z"/>
    </g>
    <g>
      <path class="cls-9" d="M868.26,919.64l-97.95,250.88-105.03,268.91c-264.91-122.77-379.18-415.27-387.32-689.42-5.15-171.63,31.35-336.06,98.52-447.12,10.24-16.96,36.04-12.27,39.35,7.29,49.02,291.41,205.07,490.04,452.43,609.46Z"/>
      <path class="cls-6" d="M770.31,1170.52l-105.03,268.91c-264.91-122.77-379.18-415.27-387.32-689.42l2.09,1.61c-1.52-15.11-2.58-31.95,6.87-43.85,12.77-16.1,39.38-14.08,55.35-1.11,15.97,12.97,23.73,33.27,30.38,52.75,23.81,70.22,41.22,142.94,72.71,210.09,31.46,67.11,79.62,129.91,147.14,160.45,55.35,25.01,118.99,26.53,177.8,40.57Z"/>
      <path class="cls-2" d="M665.28,1451.43c-1.72,0-3.44-.37-5.03-1.11-211.19-97.86-307.55-288.89-351.2-431.91-74.89-245.4-51.39-542.19,57.15-721.74,7.34-12.13,21.06-18.25,34.95-15.6,13.76,2.63,24.15,13.27,26.49,27.1,46.82,278.33,196.81,480.42,445.83,600.65,5.64,2.72,8.24,9.34,5.95,15.18l-202.98,519.79c-1.2,3.08-3.62,5.53-6.69,6.77-1.44.58-2.96.87-4.47.87ZM394.78,304.48c-2.27,0-5.72.73-8.07,4.62-105.27,174.14-127.77,462.93-54.73,702.29,41.41,135.7,131.67,315.98,326.82,411.66l194.27-497.48c-250.45-124.36-401.52-330.69-449.08-613.4-.96-5.7-5.45-7.15-7.34-7.51-.4-.08-1.06-.17-1.88-.17Z"/>
      <path class="cls-2" d="M494.33,1330.65c-5.2,0-9.99-3.41-11.51-8.66-26.73-92.26-16.66-185.1,29.13-268.48,43.83-79.82,117.05-145.72,211.74-190.58,5.96-2.84,13.13-.27,15.96,5.72,2.83,5.99.27,13.15-5.71,15.98-188.49,89.29-278.03,258.34-228.09,430.67,1.84,6.37-1.81,13.02-8.17,14.87-1.12.32-2.24.48-3.35.48Z"/>
      <path class="cls-2" d="M303.05,961.12c-.14,0-.28,0-.42,0-6.61-.22-11.8-5.78-11.57-12.4,2.13-62.63,36.86-125.8,97.81-177.88,52.65-45,122.23-78.97,186.12-90.87,6.51-1.23,12.77,3.09,13.98,9.6,1.21,6.52-3.09,12.78-9.59,14-108.01,20.13-259.97,116.81-264.35,245.97-.22,6.49-5.54,11.59-11.97,11.59Z"/>
      <path class="cls-2" d="M281.92,633.46c-1.36,0-2.73-.23-4.08-.72-6.23-2.26-9.45-9.14-7.19-15.37,26.23-72.57,99.86-125.38,192.16-137.83,6.57-.88,12.6,3.72,13.48,10.29.88,6.57-3.72,12.61-10.28,13.5-82.15,11.08-149.99,59.05-172.82,122.21-1.77,4.88-6.37,7.92-11.27,7.92Z"/>
    </g>
    <g>
      <path class="cls-9" d="M1444.91,834.59l187.05,62.41,201.34,67.21c-45.31-226.8-259.26-444.76-406.47-484.56-8.39-2.3-16.73.34-22.34,5.86-4.27,4.18-7,10.08-6.9,16.76.96,67.74,55.57,195.83,47.33,332.32Z"/>
      <path class="cls-6" d="M1444.91,834.59l187.05,62.41c11.65-2.88,19.13-4.8,19.13-4.8-124.96-108.5-202.11-286.18-246.6-406.69-4.27,4.18-7,10.08-6.9,16.76.96,67.74,55.57,195.83,47.33,332.32Z"/>
      <path class="cls-2" d="M1833.3,976.22c-1.27,0-2.55-.2-3.79-.62l-388.39-129.62c-5.15-1.72-8.51-6.69-8.18-12.11,5.03-83.1-13.94-163.91-29.19-228.84-9.53-40.58-17.76-75.63-18.15-102.57-.16-11.09,4.78-21.37,13.55-28.19,8.81-6.85,20.03-9.12,30.78-6.21,154.71,41.83,369.74,266.66,415.12,493.81.84,4.19-.61,8.52-3.82,11.35-2.22,1.96-5.06,3-7.93,3ZM1457.34,826.09l359.65,120.03c-51.96-211.81-249.84-416.1-393.31-454.9-3.43-.93-7-.2-9.82,1.99-2.78,2.16-4.34,5.4-4.29,8.89.35,24.33,8.3,58.2,17.51,97.42,15.05,64.1,33.65,143.31,30.25,226.57Z"/>
    </g>
    <g>
      <path class="cls-9" d="M1011.06,897.74l-147.58,130.91-158.84,140.94c-47.22-226.4,64.12-510.95,183.92-605.41,6.81-5.42,15.52-6.27,22.85-3.39,5.56,2.16,10.39,6.52,12.92,12.7,25.67,62.68,25.65,201.96,86.73,324.25Z"/>
      <path class="cls-6" d="M1011.06,897.74l-147.58,130.91c-11.85,1.93-19.48,3.1-19.48,3.1,72.4-148.9,73.71-342.64,67.4-470.96,5.56,2.16,10.39,6.52,12.92,12.7,25.67,62.68,25.65,201.96,86.73,324.25Z"/>
      <path class="cls-2" d="M704.65,1181.59c-1.26,0-2.54-.2-3.77-.61-4.06-1.35-7.09-4.75-7.96-8.94-47.3-226.76,62.35-518.05,188.25-617.32,8.75-6.9,19.97-9.22,30.74-6.39,10.74,2.83,19.32,10.34,23.52,20.6,10.21,24.94,16.38,60.41,23.52,101.48,11.43,65.71,25.65,147.5,62.85,221.95,2.43,4.86,1.29,10.75-2.77,14.35l-306.42,271.85c-2.22,1.97-5.06,3.02-7.95,3.02ZM902.89,571.17c-2.48,0-4.9.83-6.9,2.41-116.75,92.06-218.68,357.72-183.44,572.95l283.75-251.73c-35.76-75.23-49.7-155.4-60.98-220.27-6.91-39.69-12.86-73.98-22.08-96.49-1.33-3.23-4.04-5.6-7.44-6.49-.96-.25-1.94-.38-2.9-.38Z"/>
    </g>
    <g>
      <path class="cls-9" d="M2221.69,1521.13c58.46-34.41,103.47-72.58,124.67-110.42-54.88-53.02-132.02-88.21-225.36-110.42,13.15,97.39,38.43,180.67,100.69,220.84Z"/>
      <path class="cls-6" d="M2133.45,1303.39c-1.96,61.98,9.24,116.62,45.09,157.5,67.6-12.62,123.56-32.63,157.61-59.6,3.48,3.08,6.89,6.21,10.2,9.41-21.2,37.84-66.21,76.01-124.67,110.42-62.26-40.18-87.54-123.45-100.69-220.84,4.2,1,8.32,2.05,12.45,3.11Z"/>
      <path class="cls-2" d="M2221.7,1533.13c-2.26,0-4.52-.64-6.5-1.91-72.93-47.06-95-147.27-106.08-229.32-.53-3.92.9-7.85,3.83-10.51,2.93-2.65,6.97-3.69,10.82-2.78,101.3,24.1,176.84,61.21,230.92,113.46,3.92,3.79,4.8,9.75,2.13,14.51-21.3,38.01-65.92,77.74-129.05,114.9-1.88,1.11-3.98,1.66-6.08,1.66ZM2135.42,1316.25c15.34,99.05,42.48,158.66,86.71,190.65,51.51-31.11,88.87-63.39,108.93-94.09-47.26-42.9-111.49-74.6-195.64-96.56Z"/>
    </g>
    <path class="cls-5" d="M2192.93,1463.52c-91.1-355.27-363.68-790.57-987.76-696.14-421.96,81.62-669.33,368.79-700.06,916.98,9.46,601.16,1095.65,660.94,1659.26,165.54,22.86-20.09,43.75-42.41,61.67-67.02,105.67-145.11,55.99-273.22-33.12-319.36Z"/>
    <g class="cls-1">
      <path class="cls-3" d="M2178.54,1468.32c-10.17-51.49-89.77-422.55-431.55-595.32-234.73-118.66-463.54-78.28-546.62-62.41-68.63,13.11-260.01,51.53-421.14,201.37-143.93,133.84-235.39,330.11-268.35,596.75,48.63-499.11,292.19-763.56,694.29-841.33,65.44-12.66,301.96-50.89,545.53,75.66,355.22,184.55,432.75,569.13,442.23,620.48,14.22,7.77,52.12,30.91,75.48,78.64,27.81,56.84,16.08,109.86,12.41,124.17,3.33-12.26,15.48-62.47-11.17-116.4-28.3-57.26-79.99-77.54-91.1-81.62Z"/>
    </g>
    <path class="cls-8" d="M665.48,1156.12c-19.22,100.01-31.75,209.77-37.29,329.79,9.28,717.13,1045.89,806.25,1626.06,251.85-7.68,14.81-16.83,29.86-27.76,45.12-17.63,24.61-38.18,46.92-60.66,67.02-554.34,495.4-1622.67,435.62-1631.97-165.54,11.87-215.19,56.58-390.14,131.61-528.24Z"/>
    <path class="cls-2" d="M1235.7,2194.52c-160.62,0-310.77-27.68-431.78-81.4-95.11-42.22-170.1-98.8-222.9-168.19-56.77-74.6-86.35-162.21-87.89-260.38,0-.29,0-.58.02-.86,15.16-270.46,84.43-485.85,205.88-640.21,117.26-149.04,286.79-245.89,503.88-287.88,284.62-43.07,521.34,18.28,704.02,182.28,173.68,155.92,256.92,366.48,296.29,517.55,44.74,24.92,77.1,68.07,89.15,119.18,11.18,47.41,10.42,123.26-56.63,215.34-17.72,24.33-39.07,47.53-63.45,68.96-179.39,157.68-423.77,269.3-688.13,314.29-83.87,14.28-167.5,21.31-248.44,21.31ZM517.1,1684.6c3.79,228.93,163.33,347.45,296.53,406.58,338.11,150.07,947.64,97.06,1342.82-250.3,23.07-20.27,43.22-42.16,59.9-65.07,61.69-84.71,62.69-153.17,52.67-195.69-10.87-46.1-40.61-84.71-81.61-105.94-3.03-1.57-5.26-4.37-6.11-7.68-61.95-241.59-280.88-792.17-974.35-687.26-434.5,84.05-660.32,380.2-689.86,905.35Z"/>
    <g>
      <path class="cls-9" d="M543.37,1565.84c28.91,39.2,40.55,116.64,26.9,162.62-5.84,19.69-24.2,33.16-44.72,33.68-93.35,2.37-178.41-15.75-255.4-53.78,66.02-66.1,147.53-120.86,226.96-155.07,16.41-7.07,35.65-1.84,46.26,12.54Z"/>
      <path class="cls-6" d="M527.52,1677.17c21.13-6.62,36.47-25.04,37.1-45.71.28-9.22-.72-19.28-2.8-29.71,14.7,40.41,18.64,92.35,8.44,126.71-5.84,19.69-24.2,33.16-44.72,33.68-93.35,2.37-178.41-15.75-255.4-53.78,1.18-1.18,2.39-2.32,3.58-3.49,82.22,8.58,166.79-.46,253.79-27.71Z"/>
      <path class="cls-2" d="M509.65,1774.36c-88.29,0-170.57-18.55-244.81-55.23-3.46-1.71-5.89-4.99-6.52-8.81s.62-7.71,3.35-10.44c65.83-65.91,147.76-121.88,230.7-157.6,21.66-9.33,46.61-2.58,60.63,16.44,30.44,41.27,43.88,122.19,28.75,173.17-7.31,24.61-29.77,41.6-55.9,42.26-5.43.14-10.83.21-16.21.21ZM290.87,1704.89c71.24,32.19,149.98,47.37,234.38,45.26,15.47-.4,29.26-10.72,33.53-25.1,12.85-43.3.67-117.2-25.05-152.07h0c-7.26-9.84-20.67-13.48-31.87-8.65-75.16,32.37-149.49,81.96-210.98,140.56Z"/>
    </g>
    <ellipse class="cls-8" cx="804.79" cy="1209.07" rx="86.41" ry="59.94" transform="translate(-550.52 1731.24) rotate(-77.42)"/>
    <ellipse class="cls-8" cx="737.66" cy="1396.3" rx="58.91" ry="40.86" transform="translate(-785.77 1812.19) rotate(-77.42)"/>
    <ellipse class="cls-8" cx="867.12" cy="1357.9" rx="41.71" ry="28.93" transform="translate(-647.02 1908.5) rotate(-77.42)"/>
    <g>
      <g>
        <path class="cls-2" d="M1948.29,1267.46c22.76,19.53,40.53,49.13,47.97,84.4,15.03,71.3-17.8,138.62-73.33,150.35-55.53,11.73-112.73-36.56-127.76-107.86-2.79-13.24-3.92-26.34-3.57-38.97,5.85-3.19,12.08-6.93,18.77-11.32,44.86-29.44,94.96-58.58,137.93-76.6Z"/>
        <path class="cls-2" d="M1708.56,1333.63c22.82,18.69,36.61,29.96,91.16-5.83,26.93-17.67,65.64-41.71,105.04-61.55,54.06-26.02,107,2.77,107,2.77-37.56,3.12-107.09,36.4-190.75,91.3-40.87,26.82-69.01,32.83-91.54,28.27-35.88-7.58-24.16-57.61-24.16-57.61l3.25,2.65Z"/>
        <path class="cls-3" d="M1847.68,1347.98c14.05-2.97,28.52,9.25,32.32,27.28,3.8,18.04-4.5,35.06-18.55,38.03-14.05,2.97-28.52-9.25-32.32-27.28-3.8-18.04,4.5-35.06,18.55-38.03Z"/>
      </g>
      <g>
        <path class="cls-2" d="M1154.5,1368.9c-19.65,22.66-32.89,54.55-35.08,90.53-4.41,72.74,37.93,134.5,94.58,137.95,56.65,3.45,106.15-52.73,110.57-125.47.82-13.51.01-26.63-2.18-39.07-6.25-2.29-12.97-5.08-20.22-8.44-48.69-22.53-102.51-43.99-147.67-55.51Z"/>
        <path class="cls-2" d="M1401.34,1399.13c-19.84,21.84-31.82,35.02-91.03,7.63-29.23-13.52-71.04-31.62-112.93-45.44-57.29-17.8-105.43,18.46-105.43,18.46,37.61-2.43,111.26,20.27,202.07,62.28,44.36,20.52,73.08,22.33,94.69,14.51,34.38-12.77,15.45-60.53,15.45-60.53l-2.83,3.1Z"/>
        <path class="cls-3" d="M1265.83,1433.76c-14.33-.87-26.85,13.34-27.97,31.74-1.12,18.4,9.59,34.02,23.92,34.9,14.33.87,26.85-13.34,27.97-31.74,1.12-18.4-9.59-34.02-23.92-34.89Z"/>
      </g>
      <g>
        <path class="cls-5" d="M1456.9,1576.34c37.31-103.01,129.46-139.23,263.72-86.42,120.31-48.03,258.93-19.2,244.54,100.82l-508.26-14.4Z"/>
        <path class="cls-2" d="M1965.16,1590.74c-.85-128.87-151.03-122.86-240.08-89.68-2.95,1.31-6.03,1.1-8.84.03-24.47-7.9-48.94-15.05-73.75-18.94-83.73-14.04-146.44,17.96-185.59,94.19,13.08-67.91,67.47-117.91,137.4-122.69,44.68-4.07,90.23,7.52,130.7,25.1.02,0-8.9.03-8.8.02,51.6-22.25,110.31-31.1,165.62-16.81,60.38,14.75,100.95,65.97,83.34,128.79h0Z"/>
        <ellipse class="cls-2" cx="1881.25" cy="1533.13" rx="16.78" ry="9.6" transform="translate(-294.93 458.97) rotate(-12.91)"/>
        <ellipse class="cls-2" cx="1617.53" cy="1547.53" rx="9.6" ry="16.78" transform="translate(-252.22 2778.5) rotate(-77.09)"/>
      </g>
      <g>
        <path class="cls-3" d="M1845.61,1784.3c-6.44-13.49-14.54-26.8-24.3-39.93l23.26-42.26c-114.28-12.01-237.56.69-365.93,27.34,5.72,71.79,23.4,137.51,57.37,194.96l309.6-140.11Z"/>
        <path class="cls-2" d="M1929.2,1717.97c-37.99,1.37-74.76-5.78-112.56-6.98-112.07-4.01-225.25,14.63-336.31,28.44-.06.03,10.1-12.91,10.09-12.91,3.06,34.32,8.38,68.36,17.54,101.18,9.14,32.79,22.26,64.35,40.52,92.58l-16.14-3.82,22.7-13.87c84.07-49.8,172.93-92.42,266.44-121.3,33.9-10.66,68.79-20.07,105.34-17.72-16.28,6.41-33.55,11.86-50.03,17.51-83.72,26.04-163.63,62.62-240.66,104.32-30.88,16.71-61.58,33.8-91.76,51.83-5.52,3.3-12.66,1.52-16.02-3.93-19.81-30.64-33.81-64.52-43.46-99.14-9.67-34.67-15.18-70.13-18.33-105.54-.6-6.33,3.9-11.98,10.11-12.92,75.1-11.45,150.58-21.5,226.64-24.87,42.82-1.72,86.01-1.03,128.77,3.16,33.09,3.48,66.85,9.67,97.15,23.97h0Z"/>
        <path class="cls-2" d="M1845.62,1793.91c-3.58,0-7.01-2.02-8.66-5.46-6.13-12.85-13.99-25.75-23.34-38.34-2.24-3.02-2.52-7.07-.7-10.37l23.26-42.26c2.55-4.64,8.38-6.33,13.03-3.77,4.64,2.56,6.33,8.4,3.77,13.04l-20.32,36.92c8.51,11.99,15.77,24.25,21.61,36.5,2.29,4.79.26,10.52-4.52,12.8-1.34.64-2.75.94-4.13.94Z"/>
        <path class="cls-2" d="M1488.88,1803.33c43.56-13.86,86.92-27.86,132.43-34.88,3-.44,5.85,1.06,7.26,3.56l19.18,33.61-12.45-.07c9-15.17,18.12-30.37,29.77-44.55,1.08-1.3,2.61-2.02,4.17-2.14,16.13-1.12,32.28-2.09,48.46-2.66,16.16-.55,32.37-.75,48.47.18-16.05,1.47-31.91,4.06-47.69,6.98-15.78,2.94-31.49,6.28-47.18,9.75-.01.02,4.57-2.58,4.48-2.5-10.41,12.75-19.37,27.5-28.08,42.23-2.61,4.74-9.91,4.65-12.45-.07,0,0-19.18-33.61-19.18-33.61l7.25,3.56c-44.09,6.79-87.39,20.74-130.01,34.32-8.94,2.78-13.46-10.6-4.44-13.7h0Z"/>
      </g>
    </g>
  </g>
  <path class="cls-2" d="M948.64,3238.26c-9.52,0-18.52-4.63-24.06-12.4-8.31-11.65-14.4-25.07-18.2-40.05-11.37-1.82-22.61-4.14-33.6-6.94-3.9-.9-8.03-2.08-12.12-3.29-1.29.56-2.6,1.07-3.92,1.54-26.67,9.48-52.93,12.65-80.58,9.7-8.24-.87-15.78-5.21-20.69-11.9-4.89-6.63-6.79-15.13-5.18-23.27,3.26-16.53,7.62-31.25,13.21-44.58-2.22-1.79-4.31-3.74-6.26-5.81-7.37,25.26-20.97,45.05-40.58,58.98-10.48,7.45-25.56,6.66-35.2-1.8-16.11-14.13-27.73-33.53-34.63-57.81-6.36-.69-12.7-1.54-18.98-2.52-6.02,5.13-12.94,9.14-20.46,11.81-26.16,9.29-53.65,12.55-80.57,9.69-8.25-.89-15.78-5.21-20.68-11.88-4.91-6.67-6.81-15.17-5.2-23.3,4.71-23.83,11.75-44.06,21.46-61.54-2.33-11.04-4.15-22.67-5.52-35.18-3.07.03-6.1.04-9.1.04-110.66,0-223.4-16.75-335.09-49.8-120.61-35.68-194.03-158.04-167.15-278.56,15.33-68.72,59.31-121.91,120.65-145.95,38.84-15.21,82-16.88,121.52-4.73,71.04,21.85,117.01,80.67,117.12,149.86.04,26.39-9.76,51.02-27.62,69.35-9.18,9.42-19.36,17.09-30.26,22.8-30.34,15.9-66.27,15.27-96.11-1.68-28.89-16.41-47.25-45.82-49.11-78.69-.97-17.06,2.04-33.9,8.76-49.48-2,1.33-3.94,2.8-5.79,4.42-6.73,5.89-12.71,12.74-17.77,20.34-16.96,25.51-21.24,57.2-11.74,86.94,9.83,30.78,32.64,55,62.6,66.44,67.83,25.91,198.21,61.7,322.12,17.07,8.48-54.39,37.63-102.53,81.26-133.47,21.18-15.02,45.13-25.55,69.78-30.76,18.82-31.88,45.3-62.58,75.58-97.68,12.01-13.93,24.36-28.24,37.05-43.56,18.76-22.63,35.22-47.45,49.09-74-69.82-34.65-156.14-33.5-234.72,3.97-11.08,5.26-23.91,3.83-33.5-3.74l-53.81-42.31c-66.16,22.78-125.33,63.16-175.85,120.04-8.71,9.82-23.32,13.33-35.58,8.52-12.46-4.92-20.58-17.19-20.26-30.55.44-18.68,1.53-37.62,3.24-56.26,17.6-188.02,99.82-321.02,237.77-384.68,32.93-15.26,71.67-9.04,98.63,15.87,79.74,73.44,169.63,156.23,278.27,183.38,11.58-29.22,24.77-52.65,40.23-71.32-50.56-12.76-97.94-28.91-141.28-48.14-98.21-43.6-175.83-102.26-230.69-174.35-37.29-49-63.54-103.82-78.18-163.16-82.87-2.94-160.49-22.03-230.93-56.83-9.22-4.57-15.72-13.34-17.39-23.49-1.67-10.16,1.66-20.56,8.93-27.84,67.57-67.66,151.71-125.13,236.93-161.84,1.62-.7,3.28-1.34,4.95-1.91,7.21-48.02,16.55-94.52,27.81-138.58-130.05-108.23-195.32-254.37-227.29-359.16-6.48-21.22-12.42-43.61-17.66-66.58-.23-.82-.49-1.84-.7-3.02-53.87-239.01-23.45-501.29,77.53-668.34,11.7-19.35,33.6-29.11,55.77-24.89,22.06,4.22,38.71,21.26,42.45,43.43,33.72,200.48,122.78,361.24,264.85,478.28,38.9-106.63,96.39-196.63,156.62-244.12,13.7-10.8,31.26-14.45,48.16-10.02,16.88,4.45,30.34,16.25,36.93,32.37,11.03,26.93,17.37,63.39,24.71,105.6,6.73,38.68,14.23,81.8,26.7,125.76,59.79-24.36,124.87-43.43,193.8-56.76.27-.05.54-.1.8-.14,71.68-10.84,141.31-15.19,207.37-12.97-5.92-40.64-14.9-78.87-22.97-113.25-9.8-41.74-18.26-77.76-18.68-106.87-.24-17.42,7.51-33.56,21.27-44.27,13.82-10.75,31.4-14.3,48.26-9.72,56.16,15.19,119.95,52.88,182.14,107.27,33.08-156.1,13.3-317.78-58.95-481.09-9.1-20.55-4.58-43.97,11.49-59.66,16.19-15.78,39.83-19.71,60.25-10.02,176.22,83.65,345.99,285.69,432.63,514.85.39.92.75,1.87,1.07,2.91,8.28,22.09,15.65,44.06,21.92,65.3,37.54,127.2,63.8,316.6-21.01,502.31,38.26,57.05,71.93,120.25,100.25,188.16,86.95,24.94,153.63,60.61,203.61,108.9,10.46,10.1,12.79,26.01,5.68,38.69-16.54,29.52-44.85,59.13-84.27,88.17,9.89,17.29,17.21,35.88,21.83,55.48,12.13,51.5,11.59,133.51-59.93,231.72-18.58,25.51-40.92,49.8-66.41,72.22-122.26,107.46-275.96,195-446.07,254.28,11.48,12.46,22.63,25.8,33.62,40.23,117.21-21.95,212.48-109.71,296.87-187.43,26.94-24.87,65.66-31.1,98.64-15.81,137.91,63.63,220.12,196.63,237.72,384.59,0,.01,0,.02,0,.04,1.71,18.66,2.8,37.6,3.24,56.29.32,13.36-7.81,25.64-20.24,30.54-3.72,1.47-7.67,2.23-11.71,2.23-9.12,0-17.83-3.91-23.89-10.73-50.53-56.88-109.69-97.26-175.86-120.04l-53.83,42.32c-9.6,7.55-22.43,8.99-33.47,3.74-72.18-34.42-150.16-38.48-216.99-11.88,31.83,71.27,57.64,145.86,76.87,222.14,9.5,4.38,18.63,9.51,27.23,15.32,48.78,32.99,80.31,86.78,86.5,147.57,8.65,85.01,8.6,143.93-.18,190.84,10.09,17.26,17.59,37.33,22.82,61.05,1.78,8.09.08,16.61-4.67,23.39-4.77,6.8-12.21,11.29-20.41,12.35-25.43,3.29-49.91,1.33-74.62-5.97-1.47,14.86-3.18,30.34-4.46,39.84-.02.18-.05.35-.07.53-.78,4.78-1.45,9.58-2.13,14.38-1.82,12.98-3.72,26.41-7.46,39.89-2,6.73-4.58,13.16-7.72,19.37,3.6,20.51,3.94,42.84,1.05,67.98-.94,8.23-5.33,15.74-12.03,20.6-6.73,4.86-15.12,6.68-23.29,5.02-24.64-5.1-46.93-14.24-67.96-27.88-4.26.35-8.6.55-12.99.61-12.39.61-24.73.73-36.81.39-12.97,16.75-29.03,29.09-47.87,36.75-12.6,5.09-27.43.63-35.18-10.22-9.01-12.63-15.42-27.34-19.13-43.85-5.67-1.94-11.15-4.04-16.42-6.27-1.17.5-2.34.95-3.52,1.37-26.68,9.48-52.84,12.63-80.57,9.7-8.26-.89-15.79-5.21-20.69-11.88-4.91-6.67-6.81-15.16-5.2-23.3,3.48-17.6,8.24-33.34,14.36-47.37-72.45,29.4-159.95,45.21-253.37,45.21-60.39,0-120.52-6.66-175.94-19.37,3.21,19.81,3.41,41.56.64,65.7-.95,8.24-5.34,15.75-12.05,20.61-6.65,4.82-15.08,6.67-23.27,5.01-27.78-5.75-52.67-16.64-75.9-33.23-.04,0-.08.01-.12.02-13.88,3.67-28.28,6.53-42.96,8.54-14.17,23.07-33.05,39.5-56.25,48.93-3.55,1.45-7.29,2.18-11.12,2.18ZM865.22,3135.19l3.13.94c4.7,1.42,9.56,2.88,13.85,3.87,14.39,3.66,28.83,6.36,43.38,8.12,8.95,1.08,16.07,8.04,17.37,16.97,1.66,11.39,4.87,21.51,9.59,30.21,13.73-7.56,24.7-19.42,33.36-36.04,3.09-5.92,8.93-9.91,15.56-10.62,16.41-1.78,32.51-4.75,47.83-8.84.41-.11.83-.21,1.26-.29,2.36-.47,4.81-1.08,7.3-1.83,6.47-1.96,13.52-.46,18.68,3.94l1.32,1.14c16.67,12.7,34.4,21.65,53.85,27.12,1.93-27.35-.99-50.28-8.83-69.81-2.85-7.08-1.41-15.17,3.69-20.84,5.1-5.67,12.98-7.95,20.32-5.85,60.77,17.33,129.49,26.49,198.71,26.49,115.76,0,221.1-25.32,296.58-71.29,6.25-3.82,14.08-3.9,20.41-.21,6.33,3.68,10.14,10.52,9.94,17.85l-.3,10.9c-.2,7.14-4.19,13.63-10.47,17.03-1.72.93-3.15,1.99-4.35,3.23-14.27,14.67-24.47,34.65-31.02,60.84,17.51.48,34.12-2.29,51.32-8.39,1.79-.63,3.56-1.52,5.38-2.7,5.83-3.77,13.21-4.24,19.46-1.25,9.52,4.56,20.16,8.58,31.61,11.95,7.57,2.22,13.12,8.69,14.17,16.51,1.6,11.86,4.88,22.37,9.77,31.38,11.15-6.13,20.47-15.12,28.29-27.26,3.89-6.04,10.73-9.53,17.87-9.13,14.34.79,29.2.8,44.13.05.26-.01.53-.02.79-.02,5.66-.06,11.19-.42,16.43-1.09,4.91-.63,9.9.61,13.97,3.45,15.07,10.56,30.89,18.12,48.08,22.97,1.33-18.86.35-35.51-2.97-50.62-1.09-4.96-.26-10.14,2.33-14.51,3.26-5.5,5.79-11.22,7.51-16.99,2.94-10.59,4.56-22.15,6.29-34.39.7-4.98,1.4-9.96,2.19-14.91,2.16-16.1,5.55-49.51,6.76-66.47l.02-.5c.47-7.81,5.44-14.63,12.73-17.46,7.28-2.82,15.55-1.13,21.15,4.32,2.8,2.73,6.07,4.72,9.71,5.92,17.35,5.73,33.99,8.13,51.5,7.25-4.72-17.17-10.97-31.53-18.99-43.64-3.27-4.94-4.18-11.07-2.5-16.74.43-1.46.83-2.94,1.12-4.46,8.17-43.08,8.11-98.63-.18-180.1-4.98-48.96-30.18-92.15-69.12-118.49-9.07-6.13-18.89-11.31-29.2-15.4-6.02-2.39-10.51-7.55-12.06-13.85-20.46-83.76-49.1-165.51-85.11-242.97-4.58-9.84-.47-21.54,9.24-26.36,80.17-39.77,176.5-39.12,265.04,1.62l50.87-40c10.06-7.96,23.38-10.24,35.6-6.05,66.8,22.78,126.98,61.68,179.13,115.73-.55-10.74-1.31-21.49-2.29-32.14-16.2-172.93-90.44-294.64-214.69-351.97-18.28-8.48-39.79-4.96-54.82,8.92-91.41,84.19-195,179.6-329.72,199.52-7.31,1.1-14.64-1.98-19.02-7.96-19.09-26.07-38.46-48.33-59.21-68.04-5.11-4.86-7.29-12.05-5.73-18.93,1.56-6.88,6.62-12.43,13.32-14.61,177.11-57.55,337.06-146.26,462.54-256.55,23.29-20.47,43.64-42.59,60.49-65.72,62.58-85.94,63.54-155.63,53.33-198.97-4.97-21.11-13.83-40.77-26.31-58.42-3.1-4.38-4.31-9.82-3.36-15.1.95-5.28,3.97-9.96,8.4-12.98,39.29-26.84,68.39-54.57,84.59-80.57-46.4-43.05-109.06-74.95-191.3-97.42-5.99-1.64-10.88-5.98-13.24-11.74-29.54-72.51-65.33-139.53-106.36-199.17-4.07-5.91-4.66-13.54-1.56-20.01,85.21-177.57,59.88-361.29,23.62-484.14-6.06-20.52-13.2-41.77-21.22-63.15-.13-.34-.24-.68-.35-1.02-.1-.22-.19-.45-.27-.67-81.84-216.82-247.64-415.1-412.58-493.39-5.26-2.49-11.1-1.52-15.25,2.53-4.05,3.95-5.14,9.62-2.85,14.8,81.06,183.21,99.01,364.91,53.37,540.05-1.78,6.86-7.06,12.25-13.87,14.19-6.81,1.93-14.13.12-19.25-4.77-65.26-62.37-132.88-105.29-190.39-120.84-4.7-1.28-9.44-.33-13.32,2.69-3.83,2.98-5.9,7.29-5.83,12.12.35,24.75,8.35,58.81,17.61,98.24,9.86,42,21.03,89.57,26.79,141.3.65,5.86-1.31,11.71-5.36,15.98-4.06,4.28-9.79,6.54-15.66,6.2-70.21-4.13-145.14-.29-222.69,11.42-73.92,14.33-143.11,35.45-205.68,62.8-5.18,2.26-11.06,2.23-16.22-.1-5.14-2.33-9.07-6.73-10.8-12.11-17.24-53.76-26.72-108.26-34.33-152.05-6.95-39.93-12.94-74.4-22.33-97.32-1.83-4.47-5.42-7.61-10.11-8.85-4.75-1.24-9.46-.26-13.29,2.76-59.3,46.75-116.37,141-152.69,252.1-2.01,6.16-6.88,10.96-13.06,12.88-6.17,1.93-12.9.73-18.04-3.2-163.11-124.65-264.64-299.84-301.79-520.71-.94-5.58-4.98-9.72-10.53-10.78-5.66-1.08-11.1,1.33-14.12,6.31-94.51,156.35-123.69,413.3-72.61,639.37.06.26.11.52.16.77.09.34.2.74.26,1.01,5.07,22.24,10.81,43.9,17.05,64.38,31.15,102.06,95.31,245.24,224.1,347.8,6.22,4.96,8.91,13.13,6.86,20.82-13.43,50.32-24.24,104.17-32.12,160.05-1.28,9.1-8.59,16.15-17.72,17.09-3.16.33-6.2,1.11-9.01,2.32-77.33,33.31-153.77,84.72-216.41,145.43,66.81,31.13,140.54,47.34,219.3,48.18,9.37.1,17.41,6.71,19.33,15.89,12.48,59.45,37.51,114.17,74.4,162.66,50.74,66.67,123.12,121.19,215.11,162.03,51.01,22.64,108.07,40.82,169.59,54.03,7.66,1.65,13.65,7.62,15.33,15.29,1.67,7.67-1.29,15.6-7.57,20.29-25.15,18.8-44.54,49.41-61.01,96.33-3.28,9.36-12.91,14.9-22.64,13-127.17-24.65-226.52-116.15-314.17-196.88-15.05-13.91-36.56-17.43-54.81-8.97-124.3,57.36-198.55,179.09-214.74,352.06-.97,10.62-1.74,21.35-2.28,32.08,52.15-54.06,112.31-92.95,179.13-115.74,12.23-4.17,25.55-1.88,35.66,6.11l50.81,39.95c95.68-43.98,201.54-40.8,284.07,8.78,8.79,5.28,12.16,16.36,7.81,25.64-16.87,36-38.01,69.43-62.83,99.37-12.95,15.63-25.43,30.1-37.5,44.09-31.5,36.51-58.65,67.98-75.57,99.16-2.98,5.49-8.36,9.28-14.54,10.22-21.95,3.35-43.55,12.22-62.47,25.63-37.46,26.56-61.57,69.26-66.15,117.16-.71,7.45-5.53,13.88-12.47,16.66-139.71,55.92-286.82,16.05-362.09-12.7-41.36-15.81-72.86-49.2-86.41-91.63-13.23-41.39-7.2-85.6,16.53-121.29,7.01-10.55,15.33-20.06,24.73-28.29,30.32-26.53,73.55-30.5,107.55-9.84,17.18,10.44,29.62,24.49,36.98,41.77,9.41,22.1-.28,47.85-21.58,57.39-10.19,4.58-20.48,4.46-29.76-.33-13.82-7.15-22.51-22.61-27.87-37.38-1.8,6.91-2.52,14.08-2.11,21.29,1.09,19.24,11.91,36.49,28.94,46.16,17.98,10.22,39.63,10.6,57.88,1.03,7.16-3.75,13.95-8.89,20.18-15.28,10.51-10.8,16.29-25.48,16.26-41.36-.08-51.26-34.98-95.1-88.9-111.69-30.94-9.51-64.76-8.18-95.23,3.75-48.77,19.11-83.84,61.9-96.22,117.42-22.33,100.06,38.94,201.74,139.48,231.48,108.01,31.96,216.95,48.16,323.77,48.16,8.53,0,17.31-.12,26.84-.37.17,0,.35,0,.52,0,10.46,0,19.19,8.11,19.92,18.61,1.28,18.4,3.43,34.53,6.58,49.32.27,1.28.67,2.73,1.21,4.42,1.82,5.64,1.04,11.8-2.12,16.81-7.74,12.28-13.67,26.76-18,44.03,17.23.39,34.55-2.41,51.31-8.37,4.44-1.58,8.34-4.36,11.28-8.05,4.6-5.77,12-8.54,19.24-7.19,13,2.4,26.4,4.13,39.83,5.11,9,.66,16.44,7.28,18.15,16.15,3.48,18.03,9.68,32.5,18.48,43.13,10.79-10.59,17.63-25.21,20.8-44.39,1.45-8.78,8.53-15.55,17.36-16.6,8.07-.95,15.2-1.98,21.78-3.14,8.72-1.53,17.46,2.89,21.38,10.88,1.89,3.85,4.67,6.98,8.24,9.29,2.44,1.57,5.15,3.19,8.28,4.93,9.61,5.37,13.08,17.5,7.75,27.15-6.1,11.05-10.91,23.67-14.58,38.33,17.45.48,34.12-2.29,51.32-8.39,1.65-.59,3.28-1.38,4.86-2.35,4.71-2.91,10.4-3.72,15.74-2.27.34.09.83.25,1.25.39ZM864.19,3134.9c.09.02.17.04.26.07-.09-.02-.17-.04-.26-.07ZM242.07,2635.21c1.57,3.93,3.12,6.9,4.46,9.05-.03-.48-.14-.98-.34-1.46-1.13-2.66-2.51-5.19-4.12-7.59ZM310.96,947.89s.01.1.02.14c0-.05,0-.1-.02-.14ZM2026.15,536.19s.04.09.06.13c-.02-.04-.04-.09-.06-.13Z"/>
</svg>