<svg id="Capa_1" enable-background="new 0 0 512 512" height="512" viewBox="0 0 512 512" width="512" xmlns="http://www.w3.org/2000/svg"><g><path d="m11 267c0-135.31 109.69-245 245-245s245 109.69 245 245c0 74.156-32.946 140.617-85 185.545-5.315 4.588-106.419-33.306-160-33.306s-154.685 37.893-160 33.306c-52.054-44.928-85-111.389-85-185.545z" fill="#00a86d"/><path d="m456 267c0 110.457-89.543 200-200 200s-200-89.543-200-200 89.543-200 200-200 200 89.543 200 200z" fill="#1fb480"/><path d="m166 110v72h-36v-72z" fill="#ff9500"/><path d="m382 110v72h-36v-72z" fill="#fa0"/><path d="m222 410h-42c-27.614 0-50-22.386-50-50v-30c0-27.614 22.386-50 50-50h42c27.614 0 50 22.386 50 50v30c0 27.614-22.386 50-50 50z" fill="#ff9500"/><path d="m332 410h-109c-27.614 0-50-22.386-50-50v-30c0-27.614 22.386-50 50-50h109c27.614 0 50 22.386 50 50v30c0 27.614-22.386 50-50 50z" fill="#fa0"/><path d="m200 324c-38.66 0-70 31.34-70 70v77.766c-.895-.537-1.785-1.081-2.672-1.629-.443-.274-.886 4.844-1.327 4.567-10.569-6.629-20.596-14.043-30-22.159v-27.545l3.213-4.166v-26.474c0-5.475.629-10.803 1.817-15.916.289-1.245-2.601-2.948-2.246-4.166 8.48-29.115 35.364-50.389 67.216-50.389z" fill="#ffc143"/><path d="m416 393.887v58.658c-17.88 15.432-38.014 28.323-59.841 38.113-2.038.914-3.666-4.162-5.733-3.303-28.946 12.036-60.697 18.681-94 18.681-33.63 0-65.677-6.776-94.85-19.037-1.78-.748-3.975 4.447-5.733 3.658-10.348-4.641-20.315-9.979-29.841-15.954v-80.816c0-38.66 31.34-70 70-70h150c23.397 0 44.114 11.479 56.824 29.113.812 1.126-1.903 3.851-1.158 5.026 6.038 9.522 9.84 20.601 10.668 32.5.112 1.63 3.664 1.702 3.664 3.361z" fill="#ffd98f"/><path d="m356.159 413.917v76.742c-3.347 1.501-6.734 2.929-10.159 4.283-.535.211-1.071-2.565-1.608-2.357-1.074.416-2.152.824-3.234 1.225v-79.892c0-4.142 3.358-7.5 7.5-7.5s7.501 3.356 7.501 7.499zm-192.818-7.5c-4.142 0-7.5 3.358-7.5 7.5v76.742c3.347 1.501 6.734 2.929 10.159 4.283.263.104.526-1.672.789-1.569 1.345.526 2.696 1.041 4.052 1.543v-80.998c0-4.144-3.358-7.501-7.5-7.501z" fill="#ffc143"/><path d="m263 425h-14v-85h14z" fill="#ffc143"/><path d="m171 198.887v10c0 13.807-11.193 25-25 25s-25-11.193-25-25v-10c0-13.807 11.193-25 25-25s25 11.193 25 25z" fill="#bb5d4c"/><path d="m136 193.887v20c0 8.178 3.927 15.439 9.998 20-13.806-.001-24.998-11.194-24.998-25v-10c0-13.806 11.192-24.999 24.998-25-6.071 4.561-9.998 11.822-9.998 20zm230-20v-20c0-60.751-49.249-110-110-110s-110 49.249-110 110v40c0 50.351 33.83 92.8 80 105.859v34.141c0 16.568 13.431 30 30 30s30-13.432 30-30v-34.141c33.586-9.499 60.641-34.551 72.895-66.883 2.252.667 4.637 1.024 7.105 1.024 13.807 0 25-11.193 25-25v-10c0-13.807-11.193-25-25-25z" fill="#a44f3e"/><path d="m366 153.887v40c0 50.792-34.425 93.543-81.216 106.195-9.023 2.44-18.545 2.44-27.568 0-46.791-12.652-81.216-55.403-81.216-106.195v-40c0-55.663 41.345-101.669 95-108.985 53.655 7.316 95 53.322 95 108.985z" fill="#bb5d4c"/><path d="m192.447 120h-47.447c-8.284 0-15-6.716-15-15 0-57.99 47.01-105 105-105h42c.911 0 1.818.012 2.723.035-56.731 1.444-102.276 47.885-102.276 104.965 0 8.284 6.716 15 15 15z" fill="#ffb509"/><path d="m382 105c0 8.284-6.716 15-15 15h-180c-8.284 0-15-6.716-15-15 0-57.99 47.01-105 105-105 29.624 0 56.382 12.268 75.472 32 1.015 1.049-1.762 2.119-.791 3.21 5.854 6.575 10.893 13.892 14.96 21.791.845 1.642 5.418 3.309 6.178 5 5.9 13.123 9.181 27.677 9.181 42.999z" fill="#ffc143"/><path d="m154.344 170v33c0 8.284-6.716 15-15 15h-9.688c-8.284 0-15-6.716-15-15v-33c0-8.284 6.716-15 15-15h9.688c8.284 0 15 6.716 15 15z" fill="#ffb509"/><path d="m397.344 170v33c0 8.284-6.716 15-15 15h-9.688c-8.284 0-15-6.716-15-15v-33c0-8.284 6.716-15 15-15h9.688c8.284 0 15 6.716 15 15z" fill="#ffc143"/><path d="m408.351 369.237c.42 1.117 3.998 2.248 4.362 3.391 2.05 6.437 3.193 13.277 3.281 20.373h-50.994c-8.284 0-15-6.716-15-15s6.716-15 15-15h40.649c.998 2.025 1.9 4.105 2.702 6.236zm-16.351 70.763c0-8.284-6.716-15-15-15h-36c-8.284 0-15 6.716-15 15s6.716 15 15 15h36c8.284 0 15-6.716 15-15z" fill="#ffc143"/><path d="m362 426c0-5.523 4.477-10 10-10h25c5.523 0 10 4.477 10 10s-4.477 10-10 10h-25c-5.523 0-10-4.477-10-10zm40.824-73h-12.824c-5.523 0-10 4.477-10 10s4.477 10 10 10h20c.94 0 1.85-.13 2.713-.373-2.261-7.101-5.624-13.71-9.889-19.627z" fill="#ffe7bf"/><path d="m202 22c0 5.523-4.477 10-10 10h-32.472c7.74-8 16.741-14.774 26.682-20h5.79c5.523 0 10 4.477 10 10zm61 40h-30c-8.284 0-15 6.716-15 15s6.716 15 15 15h30c8.284 0 15-6.716 15-15s-6.716-15-15-15zm89.472-30h-39.472c-8.284 0-15 6.716-15 15s6.716 15 15 15h59.819c-5.022-11.174-11.941-21.311-20.347-30z" fill="#fa0"/><path d="m346 418v76.941c-27.861 11.009-58.224 17.059-90 17.059s-62.139-6.05-90-17.059v-76.941c0-11.046 8.954-20 20-20h140c11.046 0 20 8.954 20 20z" fill="#fa0"/><path d="m201 434h-16c-5.523 0-10-4.477-10-10v-97c0-5.523 4.477-10 10-10h16c5.523 0 10 4.477 10 10v97c0 5.523-4.477 10-10 10zm136-10v-97c0-5.523-4.477-10-10-10h-16c-5.523 0-10 4.477-10 10v97c0 5.523 4.477 10 10 10h16c5.523 0 10-4.477 10-10z" fill="#ffc143"/><path d="m311 463c0 8.284-6.716 15-15 15h-90c-8.284 0-15-6.716-15-15s6.716-15 15-15h90c8.284 0 15 6.716 15 15z" fill="#ffc143"/><path d="m301 478c0 5.523-4.477 10-10 10h-25c-5.523 0-10-4.477-10-10s4.477-10 10-10h25c5.523 0 10 4.477 10 10zm-60-40h-20c-5.523 0-10 4.477-10 10s4.477 10 10 10h20c5.523 0 10-4.477 10-10s-4.477-10-10-10z" fill="#ffd98f"/><path d="m146 378.276v12.491l-3.383 4.193v8.681l3.383 4.868v12.491c0 2.209-1.791 4-4 4h-46v-16.491l4.064-4.318h13.578v-27.722l3.226-2.193h25.132c2.209 0 4 1.791 4 4z" fill="#fff5f5"/><path d="m146 390.767v17.742h-36v-17.742z" fill="#ff5757"/><path d="m116.868 374.276v34.233h-20.868v-14.622c0-6.808.972-13.388 2.784-19.611z" fill="#0066ed"/><path d="m376.021 116c0 16.569-13.431 30-30 30h-180.042c-16.569 0-30-13.431-30-30 0-5.523 4.477-10 10-10h220.042c5.523 0 10 4.477 10 10z" fill="#fa0"/><path d="m182 111c0 5.523-4.477 10-10 10h-42c-5.523 0-10-4.477-10-10s4.477-10 10-10h42c5.523 0 10 4.477 10 10z" fill="#ffc143"/><path d="m392 111c0 5.523-4.477 10-10 10h-217c-5.523 0-10-4.477-10-10s4.477-10 10-10h217c5.523 0 10 4.477 10 10z" fill="#ffd98f"/><path d="m209 147v34c0 5.523-4.477 10-10 10h-25c-5.523 0-10-4.477-10-10v-34c0-5.523 4.477-10 10-10h25c5.523 0 10 4.477 10 10z" fill="#00429c"/><path d="m348 147v34c0 5.523-4.477 10-10 10h-4.948l-4.903-3.381h-12.766l-6.264 3.381h-13.723l-4.353-3.381h-8l-2.648 3.381h-10.014c-5.523 0-10-4.477-10-10v-3.619c0-2.419-1.961-4.381-4.381-4.381-2.419 0-4.381 1.961-4.381 4.381v3.619c0 5.523-4.477 10-10 10h-40.619c-5.523 0-10-4.477-10-10v-34c0-5.523 4.477-10 10-10h79.395l4.53 4.043h7.149l3.321-4.043h13.723l5.073 4.043h13.787l5.073-4.043h4.949c5.523 0 10 4.477 10 10z" fill="#0055ca"/><path d="m309.119 137h23.933v54h-23.933zm-28.724 54h15v-54h-15z" fill="#0066ed"/><path d="m241.5 200.618c-2.929-2.93-2.929-7.678 0-10.607 2.929-2.928 7.678-2.928 10.606 0 1.042 1.042 2.424 1.616 3.893 1.616s2.851-.574 3.893-1.616c2.929-2.928 7.678-2.928 10.606 0 2.929 2.93 2.929 7.678 0 10.607-3.875 3.875-9.024 6.009-14.5 6.009s-10.623-2.134-14.498-6.009zm44.803 27.601c-2.929-2.928-7.678-2.928-10.606 0-10.861 10.861-28.532 10.861-39.394 0-2.929-2.928-7.678-2.928-10.606 0-2.929 2.93-2.929 7.678 0 10.607 8.354 8.354 19.329 12.531 30.303 12.531s21.949-4.177 30.303-12.531c2.929-2.929 2.929-7.677 0-10.607z" fill="#883f2e"/><path d="m327.978 62.665c-.344 5.316-4.994 9.335-10.32 9.335h-39.658c-3.656 0-6.853-1.962-8.598-4.89-1.858-3.12-5.142-5.11-8.774-5.11h-12.286c-5.326 0-9.977-4.019-10.321-9.335-.376-5.824 4.236-10.665 9.979-10.665h40c3.656 0 6.853 1.962 8.598 4.89 1.858 3.12 5.142 5.11 8.774 5.11h12.628c5.743 0 10.355 4.841 9.978 10.665zm-110.978-35.665h-25c-5.523 0-10 4.477-10 10s4.477 10 10 10h25c5.523 0 10-4.477 10-10s-4.477-10-10-10z" fill="#ffe7bf"/><path d="m202 416c0 4.971-4.029 9-9 9s-9-4.029-9-9 4.029-9 9-9 9 4.029 9 9zm117-9c-4.971 0-9 4.029-9 9s4.029 9 9 9 9-4.029 9-9-4.029-9-9-9z" fill="#fa0"/></g></svg>