<?xml version="1.0" encoding="UTF-8"?>
<svg id="Ebene_1" data-name="Ebene 1" xmlns="http://www.w3.org/2000/svg" viewBox="0 0 1132.66 1921.04">
  <defs>
    <style>
      .cls-1 {
        fill: #dbcfa7;
      }

      .cls-2 {
        fill: #451c1c;
      }

      .cls-3 {
        fill: #e7d6b8;
      }

      .cls-4 {
        fill: #30282b;
      }

      .cls-5 {
        fill: #ebdec1;
      }

      .cls-6 {
        fill: #cab49e;
      }

      .cls-7 {
        fill: #827977;
      }

      .cls-8 {
        fill: #fb9f6e;
      }

      .cls-9 {
        fill: #783324;
      }

      .cls-10 {
        fill: #d6c89a;
      }

      .cls-11 {
        fill: #e58c66;
      }

      .cls-12 {
        fill: #a44a2c;
      }

      .cls-13 {
        fill: #281823;
      }

      .cls-14 {
        fill: #402223;
      }

      .cls-15 {
        fill: #ee976e;
      }

      .cls-16 {
        fill: #fec694;
      }

      .cls-17 {
        fill: #a78b78;
      }

      .cls-18 {
        fill: #913f29;
      }

      .cls-19 {
        fill: #fdf9dd;
      }

      .cls-20 {
        fill: #be967f;
      }

      .cls-21 {
        fill: #a9ebdc;
      }

      .cls-22 {
        fill: #fcfcfb;
      }

      .cls-23 {
        fill: #f5eacb;
      }

      .cls-24 {
        fill: #0b0c16;
      }

      .cls-25 {
        fill: #5e251f;
      }

      .cls-26 {
        fill: #372f34;
      }

      .cls-27 {
        fill: #89bfcd;
      }

      .cls-28 {
        fill: #f8b58e;
      }

      .cls-29 {
        fill: #fdd3a6;
      }

      .cls-30 {
        fill: #391c19;
      }

      .cls-31 {
        fill: #fbd1a2;
      }

      .cls-32 {
        fill: #d6ccb5;
      }

      .cls-33 {
        fill: #ceb89c;
      }

      .cls-34 {
        fill: #c9ae8e;
      }

      .cls-35 {
        fill: #71624e;
      }

      .cls-36 {
        fill: #fbf8e9;
      }

      .cls-37 {
        fill: #4e2523;
      }

      .cls-38 {
        fill: #98c0da;
      }

      .cls-39 {
        fill: #675956;
      }

      .cls-40 {
        fill: #b5a079;
      }

      .cls-41 {
        fill: #0b0a13;
      }

      .cls-42 {
        fill: #d1bb98;
      }

      .cls-43 {
        fill: #eabba1;
      }
    </style>
  </defs>
  <path class="cls-19" d="M417.32,1728.49c-5.73-3.58-11.18-7.74-17.23-10.66-44.17-21.31-45.3-22.37-30.54-66.8,26.47-79.63,53.84-158.96,80.83-238.41,11.7-9.82,23.08-2.85,34.51.62,24.51,26.74,2.67,53.76,2.59,77.3,7.32-14.05,6.72-33.99,11.25-52.66,2.75-11.33,5.92-20.42,19.13-21.84,11.25-1.42,22.35-1.07,33.29,2.06,10.48,3.97,19.58,8.94,19.3,22.41-1.11,52.63-6.79,104.66-20.21,155.68-.77,2.93-3.36,4.51-3.73,4.63,13.82-9.98,10.34-28.92,12.86-43.74,5.04-29.6,9.53-59.59,11.2-89.71,2.38-42.96,4.02-44.95,48.16-46.63,3.9-.15,7.79-.49,11.72-.89,27.26-.29,54.48-.48,81.71.16,22.45.52,34,10.77,33.65,34.15-.31,21.38-.19,42.78.24,64.14-2.04,42.44-.11,85.49-17.87,125.72-12.45,8.55-18.5,22.12-26.52,34.16-29.85,44.81-68.37,73.8-125.57,69.18-13.68-1.1-27.01,2.36-40.38,4.88-39.87-5.91-82.62,2.51-118.4-23.73Z"/>
  <path class="cls-18" d="M674.91,286.15c36.44,1.08,71.54,8.36,105.11,22.73,20.99,57.21,21.29,112.29-17.01,163.29-8.89,11.84-19.66,21.65-33.01,28.35-22.23,11.15-27.68,8.67-33.11-16.29-3.45-15.87-8.62-30.96-16.56-45.11,4.92,9.46,8.86,19.3,12.2,29.46,6.72,20.44,12.23,39.88-16.7,48.11-11.27,3.2-9.77,15.9-15.33,23.53-23.37,12.42-48.6,4.16-72.84,6.7-16.25.86-32.2-.93-47.79-5.58-38.04-9.05-74.85-21.48-107.04-44.41-18.18-12.95-27.52-7.47-33.74,12.21-11.49,36.34-20.1,73.59-21.69,111.33-1.8,42.43-8.75,84.87-1.64,127.72,2.99,18.05,7.58,34.61,20.23,47.21,21.33,21.23,44.74,40.27,67.59,59.9,13.26,11.39,27.93,2.15,41.3,6.38,3.45,18.97-4.59,33.84-21.58,39.29-21.27,6.82-27.25,22.09-32.24,40.64-8.03,29.83-12.25,31.83-43.28,25.17-43.87-19.38-56.29-58.34-62.46-100.95-2.78-19.21-4.64-38.55-6.92-57.84-22.49-35.1-12.58-73.64-11.91-111.17,8.96-63.28,20.41-126.15,34.17-188.6,1.88-8.55,4.03-17.06,6.57-25.44,13.79-45.47,27.8-50.89,69-26.87,9.24,5.38,17.9,11.93,28.16,15.32,22.73,7.5,37.57.45,43.69-23,8.81-33.74,35.26-49.79,62.13-65.96,15.2-9.15,35.14-14.26,21.81-40.74-5.73-11.39,6.65-10.19,14.4-8.57,30.31,6.36,31.53,6.51,35.21-24.91,2.65-22.66,13.11-28.39,33.29-21.9Z"/>
  <path class="cls-25" d="M661.61,533.01c-12.18-15.09-2.19-21.66,10.84-23.59,24.16-3.58,23.44-18.03,17.25-35.19-6.44-17.86-13.8-35.4-19.15-53.77,17.35,18.45,28.12,40.87,31.12,65.21,2.5,20.26,10.21,16.02,22.38,10.17,39.83-19.16,65.68-71.34,61.49-125.63-1.58-20.46-3.66-40.88-5.52-61.32,101.74,28.75,161.91,106.4,162.83,210.2.35,39.78.57,79.57.85,119.35,11.04,14.47,8.05,31.5,8.01,47.7-.07,30.98,1.96,62.03-1.88,92.93-1.34,10.74-4.73,20.76-11.72,29.3-1.77,28.78-6.92,57.01-12.77,85.22-6.35,30.66-22.62,54.34-47.09,73.02-21.53,39.47-61.47,55.82-98.52,73.24-27.15,12.77-46.05,28.96-59.74,55.25-8.42,16.16-13.4,37.37-35.66,42.93-28.31-15.64-61.68-17.52-90.03-33.08-10.24-5.62-20.19-11.66-29.42-18.88-6.67-6.87-9.76-14.87-7.74-24.47,8.28-16.9,22.75-10.15,32.79-5.46,34.36,16.05,67.03,1.54,99.37-4.76,25.79-5.02,29.45-17.65,20.32-43.74-9-25.7-17.62-51.51-28.41-76.6-5.27-12.25-20.17-32.28,13.08-27.76,16.47-28.06,37.16-13.31,57.48-6.06,5.94,2.12,8.27-3.27,9.27-8.33,2.07-10.41,7.15-17.98,18.32-20.12,68.81-16.59,126-86.67,125.72-156.56-.22-54.46,4.42-109.14-5.44-163.32-1.57-8.62-2.39-17.36-5.17-25.74-13.37-40.34-37.45-52.32-76.57-35.25-33.98,14.83-68.06,29.3-103.2,40.91-16.93,5.6-34.49,14.86-53.1,4.19Z"/>
  <path class="cls-21" d="M262.63,1135.59c-20.75-88.75-41.25-177.55-62.3-266.23-37.87-159.46-76.06-318.84-114.13-478.25C58.27,274.18,30.47,157.2,2.22,40.34-1.87,23.38-1.95,7.2,16.52,1.41c21.39-6.71,26.35,11.87,30.15,26.87,22.87,90.28,44.94,180.76,67.62,271.09,40.4,160.93,81.36,321.73,121.47,482.74,23.46,94.2,45.48,188.75,68.74,283,4.64,18.79,11.93,36.93,18,55.37-18.01,22.57-34.17,26.64-59.87,15.11Z"/>
  <path class="cls-23" d="M948.98,1083.2c61.85,106.59,112.73,217.48,133.69,340.14-22.99,2.95-46.16,4.71-68.98,8.63-36.05,6.18-69.71,17.72-93.35,48.32-18.38,12.77-31.31,4.05-41.56-11.37-11.75-17.67-14.36-38.06-15.3-58.72-5.45-49.94-14.44-99.47-17.23-149.71-.52-16.03.25-32.06.24-48.08-3.61-51.16,54.38-124.24,102.49-129.21Z"/>
  <path class="cls-9" d="M777.51,872.72c-1.57,1.14-3.01,2.58-4.74,3.38-16.28,7.48,8.85,33.8-13.24,34.17-12.35.21-24.81-13.83-39.28-17.09-3.66-.82-7.27-1.84-11.26-2.85-5.8,9.84,13.07,19.2,1.05,25.84-10.35,5.71-17.88-8.96-31.76-10,13.79,32.24,26.38,63.15,36.84,94.87,14.03,42.56-4.06,59.12-48.61,65.81-37.15,5.59-70.1-4.77-104.98-6.5-32.89-10.53-63.07-27.02-93.72-42.5-13.82-10.73-31.9-16.26-40.78-33.09-6.42-5.99-12.85-11.98-19.27-17.97,23.94.77,35.06-9.7,37.86-34.67,2.05-18.26,8.46-36.23,35.24-37.66,14.21-.76,17.73-20.26,22.33-33.69-1.52-12.09,7.73-17.85,15.66-22.09,30.94-16.55,63.09-29.5,99.5-23.99,10.73,4.77,20.89,10.07,20.33,23.65,25.73-38.1,80.26-33.78,130.27,11.1,4.91,6.98,13.89,12.52,8.55,23.27Z"/>
  <path class="cls-14" d="M853.8,1259.67c5.77,50.17,11.55,100.34,17.32,150.51-4.63,15.14-14.99,8.97-24.12,9.17.69,5.42,15.14-2.78,12.88,7.62-1.77,8.16-10.15,8.62-16.73,8.26-18.46-1-36.72-4.88-55.36-3.87-11.6.63-23.79-.91-31.86,10.36-8.14,16.25-1.73,33.62-4.13,50.23-1.63,11.29,2.91,25.43-13.14,30.59-.15-25.31-1.07-50.65-.18-75.92.55-15.55-5.2-19.88-20.25-19.28-30.15,1.21-60.37.58-90.56.72-25.6-6.89-52.13,3.96-77.67-4.01-11.38-.54-22.75-1.07-34.13-1.61-9.59-5.09-21,3.38-30.28-4.04-11.73-1.93-23.47-3.85-35.2-5.78,1.7-39.57-7.03-80.23,12.28-117.98,3.71-5.38,2.36-14.85,12.29-15.25,10.52.85,18.77,7.95,28.75,10.34,18.78,5.2,37.88.61,56.78,2.02,77.48-3.56,155.11,3.58,232.41-4.16,27.43,6.34,40.92-17.91,60.9-27.92Z"/>
  <path class="cls-20" d="M897.07,1814.6c64.59-1.04,128.12,8.34,191.41,19.76,8.53,1.54,16.73,5.17,24.91,8.28,8.25,3.13,19,6.62,19.26,15.87.31,11.04-11.37,15.03-20.3,17.97-14.73,4.86-29.83,9.02-45.09,11.76-66.19,11.86-132.73,20.83-200.15,21.46-96.91-31.47-198.23-14.59-296.79-27.32-37.1-4.79-76.51,1.04-110.53-20.65-7.41-6.75-4.73-13.21,3.04-15.25,29.82-7.83,48.97-26.31,59.67-54.78,2.27-6.02,7.8-8.35,14.39-5.15,6.82,3.82,13.89,7.48,21.79,7.46,75.48-.22,151.04,5.35,226.34-3.18,15.69-2.71,16.05,10.12,19.88,19.61,10.92,27.05,42.51,42.43,70.91,37.67,21.57-3.61,12.59-23.48,21.25-33.51Z"/>
  <path class="cls-34" d="M455.24,1855.85c86.89,22.48,175.97,21.13,264.63,24.13,41.59,1.41,83.05,10.84,124.59,5.39,22.94-3.01,4,26.99,22.65,24.33-7.47,6.27-16.61,4.52-25.22,5.12-145.15,10.07-290.4,6.58-435.41-.95-80.44-4.18-161.31-9.36-240.08-28.65-18.05-4.42-46.81-5.83-47.23-26.52-.45-22.59,28.71-21.21,46.52-25.79,60.57-15.6,122.89-18.71,184.94-22.99,23.31-1.61,46.82-.43,69.7-6.45.6.77,1.85,1.73,1.69,2.28-8.54,29.74,6.63,43.7,33.22,50.11Z"/>
  <path class="cls-12" d="M674.91,286.15c-12.22,1.27-24.32-.88-25.72,18.97-3.59,51.14-10.03,54.19-53.35,31.48-1.17,7.21,5.12,9.78,8.8,13.49,11.34,11.43,10.87,18.05-5.19,25.28-18.43,8.3-35.88,19.28-52.55,30.83-15.25,10.56-28.45,23.63-31.78,43.57-5.32,31.87-27.58,42.96-57.2,27.96-14.7-7.44-29.47-15.31-42.59-25.15-15.65-11.73-24.82-7.14-31.43,8.71-14.25,34.15-21.48,70.03-27.45,106.44-6.75,41.2-19.5,81.35-22.05,123.33-14.4-17.19-12.37-34.84-1.52-52.76,4.63-54.33-2.44-108.93,5.12-163.32,8.34-60,37.77-106.49,88.25-137.73,76.15-47.12,159.63-63.97,248.66-51.11Z"/>
  <path class="cls-13" d="M897.07,1814.6c9.61,37.66,6.63,41.48-32.17,41.23-42.78-.28-57.99-13.52-73.52-64.02-13.85-42.44-53.33-68.05-70.94-108.06-5.61-12.75-11.5-25.14-.4-37.91,16.44-39.55,13.5-82.02,18.62-123.28,9.88-17.34,2.6-36.24,4.94-54.27,1.45-11.21-4.12-23.57,5.43-33.46,14.63,7.27,18.22,21.9,23.25,35.39,21.02,56.31,36.79,114.4,58.26,170.61,8.96,23.46,22.37,33.89,47.71,32.45,15.8-.9,33.21-4.9,47.32,7.6-.71,21.85-24.09,27.53-32.45,47.53-13.73,32.86-6.1,57.98,3.93,86.2Z"/>
  <path class="cls-33" d="M925.58,1680.86c-21.24-.35-42.57-2.12-63.68-.64-18.59,1.3-27.83-5.23-33.62-22.89-19.57-59.62-40.29-118.87-60.99-178.11-5.27-15.09-12.12-29.62-18.25-44.41.55-8.68,5.64-10.82,13.64-10.71,19.46.28,39.17-2.12,58.32.28,19.59,2.46,35.7-1.41,50.13-14.22,1.58,19.96,4.46,39.62,14.8,57.26,8.01,13.66,18.29,19.2,32.43,7.68,9.02,2.58,14.96,7.3,12.44,17.9-17.26-.98-24.22,3.31-17.31,22.99,11.45,32.6,18.78,66.64,29.87,99.39,9.06,26.75,15.7,51.06-17.78,65.46Z"/>
  <path class="cls-36" d="M497.05,1295.07c-10.37.09-17.4-5.38-22.71-13.69-6.96-4.89-11.25-12.92-8.62-19.87,10.09-26.7-9.31-40.13-23.18-56.35-8.71-10.18-16.51-21.08-24.68-31.7-7.64-16.73-20.44-29.84-31.1-44.46-7.33-10.06-14.43-20.45-12.44-34.02,28.85-19.6,27.34-54.6,41.44-81.68,18.82,31.7,26.93,68.06,44.63,100.49,12.62,23.11,30.74,43.17,37.38,60.68-30.79-47.71-64.03-103.07-76.62-167.59,4.15-6.79,6.73-13.99,5.89-22.11,14.03,8.86,28.07,17.73,42.1,26.59,46.11,60.71,85.64,126.42,138.34,182.14,5.33,5.64,9.1,12.52,9.65,20.67-22.92,46.5-80.38,85.19-120.1,80.9Z"/>
  <path class="cls-6" d="M948.98,1083.2c-46.62,17.41-67.8,59.51-94.59,96.46-7.47,10.3,1.61,18.31-.17,27.32-3.64,2.86-7.72,3.54-12.16,2.56-13.3-4.93-17.03-14.86-14.56-28.03,2.52-13.4,6.16-26.55,7.63-40.48-21.57,41.9-43.48,83.62-63.46,126.32-2.48,5.3-4.11,11-7.07,16.05-4.45,7.61-9.4,17.31-19.9,11.25-8.37-4.83-4.44-14.15-1.21-21.14,15.52-33.64,32.86-66.42,47.75-100.37,1.57-3.57,2.92-7.4,5.23-10.45,16.02-21.14,10.82-36.47-12.46-47.13-4.79-14.26,6.8-20.89,14.13-29.12,12.15-13.65,27.03-24.95,34.61-42.67-33,32.72-67.49,63.88-99.56,97.59-14.54,16.71-30.66,10.73-46.91,3.29-1.61-1.47-2.31-3.09-2.1-4.83.21-1.81.54-2.72.99-2.72,7.74-11.9,17.07-23.08,22.9-35.85,16.31-35.75,41.58-59.15,79.16-73.29,34.37-12.94,63.23-37.06,91.02-61.35-1.35,11.96,8.55,17.03,15.38,23.09,28.59,25.33,47.05,56.34,55.34,93.52Z"/>
  <path class="cls-15" d="M930.8,1493.02c-4.14-5.96-8.29-11.93-12.44-17.9,12.73-31.64,43.19-38.24,70.46-45.31,30.26-7.84,61.66-18.7,93.86-6.48-.22,5.79,1.56,15.51-.95,16.79-30.82,15.65-30.87,51.71-50.5,74.31-22.6,26.01-58,26.19-82.23,1.15-6.69-6.92-12.17-15.01-18.2-22.56Z"/>
  <path class="cls-37" d="M455.24,1855.85q-51.87-2.36-34.91-52.39c14.59-25.61,16.98-50.74-3.02-74.96,39.4,10.78,80.05,12.63,120.35,17.02,5.64,14.66,5.32,28.43-6.07,40.55-6.73,43.75-36.75,62.01-76.36,69.78Z"/>
  <path class="cls-4" d="M387.12,1312.36c8.84,31.57,17.54,63.18,26.56,94.71,5.55,19.38-.24,33.03-20.32,37.5-18.16,4.05-36.88,8.02-43.38-18.6-8.7-35.68-19.25-70.91-28.3-106.51-2.41-9.47-3.87-18.83-12.18-25.2,9.73-29.84,35.28-29.86,59.87-31.75,14.73,13.47,26.81,27.91,17.74,49.85Z"/>
  <path class="cls-28" d="M366.8,1266.31c-19.28,8.94-43.21,8.35-57.29,27.95-27.74-15.99-40.68-40.29-40.6-72,.03-11.68-.31-23.36-.47-35.04,31.73-.05,56.04-21.34,84.93-29.67,27.36,13.95,24.86,41.07,28.93,65.33-3.42,15.08,5.91,34.76-15.49,43.42Z"/>
  <path class="cls-11" d="M938.12,808.35c6.98-56.48,2.82-113.32,5.58-169.93,34.33.17,53.23,20,63.48,50.32,12.43,36.79,4.11,69.33-23.15,96.16-12.39,12.19-27.4,21.92-45.91,23.44Z"/>
  <path class="cls-31" d="M332.88,638.31c.51,17.59,1.01,35.17,1.52,52.76-2.09,39.1-1.58,78.11,3.99,116.95-61.42-23.01-78.75-105.02-46.45-145.86,10.85-13.72,22.29-24.44,40.93-23.85Z"/>
  <path class="cls-5" d="M374.59,1223.59c-2.36-23.51-3.91-47.32-23.83-64.32-8.4-10.82-14.5-21.93-4.38-35.06,9.31-9.74,18.62-19.48,27.93-29.22,10.56,28.13,38.65,45.18,47.16,74.6,3,6.06,3.78,12.78,6.74,19.02,12.32,25.95.02,54.62-27.1,65.5-9.83,3.94-16.47,1.92-21.04-8.25-3.24-7.22-.62-15.63-5.49-22.26Z"/>
  <path class="cls-42" d="M374.59,1223.59c11,5.44,2.24,34.58,25.29,23.69,25.45-12.02,33.95-34.48,22.06-53.79-5.71-9.28-3.83-15.87-.46-23.89,15.53,18.05,31.49,35.78,46.34,54.38,4.46,5.58,12.63,10.85,3.6,21.72-8.84,10.63,2.27,23.59,2.92,35.69-10.6-1.48-2.81,13.21-11.67,13.27,0-15.96,0-31.91,0-47.87-25.13,24.88-21.22,77.13-75.55,65.58-3.51-16.79-8.2-33.07-20.32-46.05,9.2-13.03,7.25-28.11,7.8-42.72Z"/>
  <path class="cls-26" d="M346.39,1124.2c1.46,11.69,2.92,23.38,4.38,35.06-23.58,20.66-47.96,38.97-82.32,27.98-13.96-8.84-10.81-26.54-20-38.71-6.2-8.2,8.01-9.68,14.19-12.94,21.52,1.22,41.93-2.02,59.86-15.1,8.92-4.87,18.67-15.15,23.9,3.7Z"/>
  <path class="cls-10" d="M421.15,1006.87c5.88,2.32,9.99,6.84,11.21,12.64,12.71,60.17,44.52,111.49,73.08,164.52-43.68-49.46-77.01-104.51-89.68-170.74,1.8-2.14,3.6-4.28,5.4-6.42Z"/>
  <path class="cls-22" d="M531.61,1786.06c2.92-13.38-2.73-28.05,6.07-40.55,10.55-6.06,22.15-7.24,33.81-5.95,62.96,6.98,101.13-27.68,131.47-76.75,4.02-6.5,2.17-20.85,17.1-16.98,2.83,31.78,12.27,56.83,40.93,78.52,16.67,12.62,33.88,38.84,30.41,67.44-1.79,14.29-12.56,11.79-22,11.79-71.98,0-143.96-.25-215.94.24-13.33.09-23.14-1.25-21.84-17.77Z"/>
  <path class="cls-32" d="M550.01,1424.05c25.95.16,52.02-2.03,77.67,4.01-42.99,4.17-41.39,4.45-49.15,48.76-7.91,45.14-8.66,92.21-31.72,134.09,3.96-36.05,7.4-72.07,11.86-107.82,2.66-21.36-.38-42.91,4.55-63.7,3.07-12.95-10.11-9.23-13.21-15.35Z"/>
  <path class="cls-1" d="M485.6,1418.4c10.4-.97,20.56-.1,30.28,4.04-18.38,14.99-9.36,38.57-17.66,57.04-4.82,10.73-4.85,23.63-15.51,36.76-8.64-35.73,14.92-66.44,2.89-97.84Z"/>
  <path class="cls-16" d="M767.07,855.11c-19.44-18.57-43.03-29.52-69.03-33.9-22.4-3.78-46.51-7.46-53.91,26.28-9.35-10.71-16.58-18.99-23.8-27.26-41.05.1-65.71-31.7-97.24-50.09-9.22-5.38-8.22-17.02-13.66-24.82-7.56-11.36-23.44-15.88-25.96-31.41,3.64-16.38,15.5-23.1,30.58-26.03,11.34-1.27,21.99,4.05,35.71,3.77-1.38-9.3-11.24-11.82-13.97-18.77-9.46-46.45-9.69-92.69,2.81-138.66,15.53,1.95,31.06,3.9,46.59,5.84,28.46,7.51,57.12,7.16,85.47.39,57.45-13.72,78.07-1.14,90.09,56.57,2.96,14.21,6.03,28.33,12.32,41.48,4.73,18.05-11.23,22.65-20.82,31.04-11.44,10.01-27.87,12.31-41.97,24.07,20.59,12.38,38.23-8.21,55.38.71,4.39,10.58,20.15,13.24,19.27,27.54-4.14,5.65-10.64,8.47-15.67,13.04-11.29,10.25-14.12,23.1-10.27,37.33,3.8,14.04,14.62,19.92,28.11,21.96,6.73,1.02,13.65.91,20.14,3.38,5.53,3.11,10.53,9.32,3.36,12.47-19.19,8.43-28.38,23.23-33.78,42.15-.99,3.49-5.72,4.46-9.76,2.92Z"/>
  <path class="cls-8" d="M767.07,855.11c2.23-1.7,6.56-3.66,6.39-5.08-3.19-26.87,11.42-39.08,35.31-44.11.22-.05.32-1.79.06-2.6-.28-.86-1.07-1.55-1.63-2.32q30.07-52.01-22.31-81.89c-8.37-6.69-30.32-3.3-18.51-24.95,24.8-33.25,62.31-47.95,100.53-39.41-6.92-24.46-22.36-30.73-50.07-22.26-14.16,4.33-25.16,20.02-42.74,12.37-23.89-7.67-17.53-29.99-20.91-46.34-11.02-53.3-13.72-60.53-80.48-50.59-25.2,3.75-50.24,1.47-75.34,2.09-6.7.16-10.83-3.33-12.18-9.96,25.26-4.66,51.89,5.5,76.42-7.05,52.48-7.26,99.84-29.39,147.64-50.43,53.1-23.37,82.64-10.65,94.08,45.52,15.41,75.67,17.62,152.97,3.55,228.77-11.78,63.52-66.6,91.95-117.03,121.45-2.25,1.31-8.14-3.6-12.33-5.61-3.48-5.87-6.96-11.74-10.44-17.61Z"/>
  <path class="cls-29" d="M514.95,691.43c-10.87,6.23-22.47,11.56-29.01,23.21-7.88,8.39-19.77,7.03-29.1,11.95-15.15,7.99-23.94,19.8-20.92,37.47,2.75,16.13,13.59,26,29.25,27.98,18.14,2.29,31.74-5.84,39.13-23.19,4.16-9.78,1.57-21.36,8.2-30.46,25.85,40.58,63.36,65.78,107.83,81.84-43.19,1.56-84.24,9.28-117.14,40.55-13.11,19.37-28.31,10.92-43.21,2.97-2.09-1.12-2.51-5.37-4.6-6.48-106.96-56.7-94.9-153.98-84.74-250.06,3.99-37.76,12.82-74.7,24.83-110.9,6.2-18.68,12.92-26.39,32.03-12.06,33.1,24.84,71.06,39.96,111.1,49.96-.14,37.24,1.07,74.57-1.22,111.68-.72,11.65,3.12,20.14,6.29,29.81-17.84,5.09-29.06-7.79-41.27-16.24-15.96-11.05-31.88-21.82-49.98-29.06-12.22-4.89-24.09-7.06-36.68,4.79,41.94,5.14,74.49,24.07,99.2,56.24Z"/>
  <path class="cls-3" d="M616.58,1212.53c-55.96-55.19-99.2-120.17-142.67-184.99-3.4-5.07-5.65-10.05-4.75-16.18,29.48,18.82,66.39,23.63,92.4,49-.29,8.43-.08,16.72,6.76,23.06,26.66,35.19,49.43,72.76,68.71,112.51-1.74,11.78-5.34,21.29-20.44,16.6Z"/>
  <path class="cls-9" d="M633.44,1193.52c-24.18-35.24-50.3-69.34-65.13-110.11,31.74,15.32,62.49,32.97,98.78,36.45,8.82.85,14.36,9.01,18.09,17.23-.09,1.76,0,3.5.29,5.24-4.23,27.59-22.74,46.31-40.64,65.43-11.14,1.14-8.84-8.49-11.39-14.23Z"/>
  <path class="cls-35" d="M843.79,1207.09c3.48-.04,6.95-.08,10.43-.11-.14,17.57-.28,35.13-.42,52.7-11.81,20-23.37,40.4-52.31,34.26,9.75-31.06,18.81-62.47,42.3-86.84Z"/>
  <path class="cls-43" d="M591.93,893.93c16.54-9,32.24-16.79,50.52-15.23,10.22.87,22.51,3.73,21.78,14.51-.82,12.16-13.75,15.51-25.06,14.18-16.38-1.94-30.19-13.63-47.25-13.46Z"/>
  <path class="cls-23" d="M843.79,1207.09c-12.22,29.86-23.77,60.05-42.3,86.84-35.12,10.96-71.51,7.61-107.32,8.24-45.79.81-91.65-1.69-137.48-2.77-1.85-12.24,9.03-16.21,15.55-22.18,24.87-22.75,45.02-50.1,70.75-71.95,14.16-20.98,28.31-41.96,42.47-62.94,15.34-3.79,33.07,12.69,46.71-5.51,15.8-11.44,28.45-29.56,52.02-24.52q37.23,13.42,18.42,52.91c-19.62,41.48-39,83.08-58.48,124.63,2.11,1.08,4.23,2.17,6.34,3.25,28.72-57.62,57.43-115.23,86.15-172.85,11.13,22.27,3.63,41.34-1.94,59.53-4.1,13.4,1.08,19.91,9.11,27.32Z"/>
  <path class="cls-7" d="M607.96,1400.75c-26.54,4.24-39.65-4.71-34.68-33.63,1.76-10.23.58-20.96.74-31.46,35-5.73,70.03-4.51,105.07-.49,1.91-.08,3.82-.03,5.73.13-10.46,16.63-23.7,31.65-23.43,53.49.12,10.19-8.26,14.57-18.61,13.79-11.59-.87-23.37,1.75-34.82-1.83Z"/>
  <path class="cls-39" d="M607.96,1400.75c8.58-.4,17.21-1.62,25.73-1.04,15.73,1.06,24.5-4.93,21.57-21.22-4.45-24.72,4.44-39.24,29.57-43.18,12.11-1.73,16.73,2.97,17.95,15.7,4.8,50.27,1.57,54.7-49.4,54.11-15.14-.17-30.99,4.21-45.41-4.36Z"/>
  <path class="cls-40" d="M643,1205.27c-19.6,39.78-54.6,65.45-86.31,94.13-19.94-.71-40.42,6.14-59.65-4.34,29.81,4.64,48.47-15.14,67.76-32.09,18.07-15.89,34.56-33.56,51.76-50.45,10.75-1.79,14.78-9.54,16.87-19,3.19,3.91,6.37,7.83,9.56,11.75Z"/>
  <path class="cls-39" d="M679.09,1335.17c-35.03.16-70.05.33-105.08.49,34.98-10.44,70.01-8.68,105.08-.49Z"/>
  <path class="cls-17" d="M784.2,1112.3c-17.34,8.17-34.68,16.34-52.02,24.52-.9-1.6-2.89-4.33-2.56-4.65,37.28-35.75,74.74-71.31,116.12-110.62-.03,25.12-11.45,38.1-23.81,50.82-12.76,13.13-25.17,26.61-37.73,39.93Z"/>
  <path class="cls-2" d="M774.1,644.86c14.8-6.95,29.15-15.22,44.5-20.59,35.69-12.47,59.88,6.14,59.22,46.77-46.65-35.49-76.07,6.83-111.44,23.13-13.73,4.37-27.42,8.87-41.19,13.1-12.12,3.72-22.26-.04-25.32-12.21-2.96-11.77,7.95-13.98,16.36-15.25,24.27-3.67,39.07-22.51,57.86-34.95Z"/>
  <path class="cls-24" d="M512.51,738.39c4.64,35.45-6.98,55.97-35.15,62.02-22.9,4.92-46.02-9.47-51-31.74-5.31-23.74,8.74-46.52,33.58-52.6,8.28-2.03,17.3-1.05,25.99-1.44,9.98,6.66,19.88,13.41,26.57,23.76Z"/>
  <path class="cls-41" d="M784.89,719.12c22.8-.97,43.4,3.46,50.59,28.52,7.42,25.87-7.37,41.65-28.29,53.37-19.36,2.11-40.14,4.78-51.49-15.25-8.68-15.32-9.86-32.49.83-49.33,7.04-11.09,17.81-13.41,28.37-17.32Z"/>
  <path class="cls-30" d="M514.95,691.43c-15.94-10.57-32.03-20.93-47.8-31.75-20.84-14.29-42.46-22.87-68.47-8.96,14.34-34.66,27.58-39.58,60.9-26.34,31.05,12.34,51.99,40.92,84.09,51.32,5.32,9.46,28.74,3.77,22.14,19.25-5.95,13.95-22.46,4.93-34.38,1.9-5.59-1.42-10.99-3.59-16.47-5.42Z"/>
  <path class="cls-27" d="M502.15,748.51c.74,6.24-2.95,11.27-7.13,10.72-7.38-.97-9.13-8.3-10.46-14.96-.87-4.38.01-7.43,4.95-7.6,8.44-.3,10.82,5.89,12.64,11.85Z"/>
  <path class="cls-38" d="M814.41,737.16c6.66,2.37,11.58,6.75,10.24,14.54-.77,4.46-3.45,9.68-9.24,8.74-8.58-1.39-8.23-9.49-9.51-15.68-1.28-6.17,2.46-8.32,8.51-7.6Z"/>
</svg>