<?xml version="1.0" encoding="UTF-8"?>
<svg id="Ebene_2" data-name="Ebene 2" xmlns="http://www.w3.org/2000/svg" viewBox="0 0 1132.66 1921.04">
  <defs>
    <style>
      .cls-1 {
        fill: #caaf90;
      }

      .cls-2 {
        fill: #010418;
      }

      .cls-3 {
        fill: #2b171b;
      }

      .cls-4 {
        fill: #d9cbaf;
      }

      .cls-5 {
        fill: #10101d;
      }

      .cls-6 {
        fill: #fbfbf1;
      }

      .cls-7 {
        fill: #4b3730;
      }

      .cls-8 {
        fill: #634e47;
      }

      .cls-9 {
        fill: #522b23;
      }

      .cls-10 {
        fill: #977e68;
      }

      .cls-11 {
        fill: #d68f5e;
      }

      .cls-12 {
        fill: #84854c;
      }

      .cls-13 {
        fill: #9d9f5e;
      }

      .cls-14 {
        fill: #7b7b46;
      }

      .cls-15 {
        fill: #fcfdfb;
      }

      .cls-16 {
        fill: #89824b;
      }

      .cls-17 {
        fill: #e6e8d7;
      }

      .cls-18 {
        fill: #020516;
      }

      .cls-19 {
        fill: #6f3c2b;
      }

      .cls-20 {
        fill: #94a5b2;
      }

      .cls-21 {
        fill: #56533c;
      }

      .cls-22 {
        fill: #818249;
      }

      .cls-23 {
        fill: #9aadbb;
      }

      .cls-24 {
        fill: #bcaa92;
      }

      .cls-25 {
        fill: #a6aa5b;
      }

      .cls-26 {
        fill: #a7ac5c;
      }

      .cls-27 {
        fill: #abac64;
      }

      .cls-28 {
        fill: #7e6457;
      }

      .cls-29 {
        fill: #c4ca7a;
      }

      .cls-30 {
        fill: #efefdf;
      }

      .cls-31 {
        fill: #85834c;
      }

      .cls-32 {
        fill: #927e62;
      }

      .cls-33 {
        fill: #856e61;
      }

      .cls-34 {
        fill: #d3da9b;
      }

      .cls-35 {
        fill: #faf9ee;
      }

      .cls-36 {
        fill: #d99468;
      }

      .cls-37 {
        fill: #cfd284;
      }

      .cls-38 {
        fill: #6f6c44;
      }

      .cls-39 {
        fill: #bec271;
      }

      .cls-40 {
        fill: #babe70;
      }

      .cls-41 {
        fill: #fdfdfc;
      }

      .cls-42 {
        fill: #8a884d;
      }

      .cls-43 {
        fill: #7b7d4e;
      }

      .cls-44 {
        fill: #c1c174;
      }

      .cls-45 {
        fill: #f7f7e5;
      }

      .cls-46 {
        fill: #7c6255;
      }

      .cls-47 {
        fill: #92e3d3;
      }

      .cls-48 {
        fill: #9e9c59;
      }

      .cls-49 {
        fill: #74dbc8;
      }

      .cls-50 {
        fill: #eeeed5;
      }

      .cls-51 {
        fill: #59543e;
      }

      .cls-52 {
        fill: #9f8650;
      }

      .cls-53 {
        fill: #75673f;
      }

      .cls-54 {
        fill: #a0a15a;
      }

      .cls-55 {
        fill: #525244;
      }

      .cls-56 {
        fill: #adb065;
      }

      .cls-57 {
        fill: #a2a559;
      }

      .cls-58 {
        fill: #d9ecda;
      }

      .cls-59 {
        fill: #645b3d;
      }

      .cls-60 {
        fill: #a1a45f;
      }

      .cls-61 {
        fill: #979553;
      }

      .cls-62 {
        fill: #a28e7a;
      }

      .cls-63 {
        fill: #8c894f;
      }

      .cls-64 {
        fill: #a49482;
      }

      .cls-65 {
        fill: #b0b46d;
      }

      .cls-66 {
        fill: #55453f;
      }

      .cls-67 {
        fill: #653b32;
      }

      .cls-68 {
        fill: #442825;
      }

      .cls-69 {
        fill: #6e693c;
      }

      .cls-70 {
        fill: #bf967f;
      }
    </style>
  </defs>
  <path class="cls-16" d="M861.46,1049.65c-14.83,15.68-35.65,22.17-52.75,34.37-22.19,16.47-48.86,16.16-74.45,19.96-11.04,1.86-22.06,3.89-33.34,3.33-18.48-.02-36.98.74-55.4-1.26-2.83-.8-5.55-2.04-7.7-4.05-5.48-5.13-13.32-10.03-10.52-18.62,2.68-8.23,11.59-6.8,18.34-6.78,17.65.06,34.87-4.69,52.56-4.03,7.39.28,14.23-2.46,18.37-8.71,21-31.69,44.96-61.47,62.03-95.7,1.24-1.38,2.74-2.39,4.47-3.06,7.97-2.44,16.38-.9,24.45-2.68,9.19-2.03,18.4-3.99,27-7.96,25.29-11.69,40.9-33.2,39.02-53.63-1.93-20.89-22.46-40.96-48.74-47.55-9.69-2.43-19.66-3.54-29.35-6.07-12.87-4.63-15.1-13.87-11.2-25.76,6.48-9.48,16.64-10.13,26.31-9.24,12.39,1.15,21.15-1.29,25.32-14.41,1.91-5.99,6.64-10.73,12.48-13.83,17.05-1.7,25.48,12.18,39.31,21.87-3.73-13.69-10.56-22.59-20.05-29.95-15.15-11.75-32.99-17.71-50.71-23.98-6.53-2.31-14.04-2.77-18-9.81-1.62-4.1-1.45-8.37.9-11.87,5.94-8.87,12.24-15.75-1.42-25.28-8.07-5.63-.36-14.6,6.83-17.65,13.37-5.68,22.1-13.11,24.7-28.82,2.12-12.84,21.73-18.84,31.33-9.76,14.3,13.52,29.85,9.23,44.31,4.34,12.53-4.23,28.41-6.97,31.43-24.55,24.61-1.7,26.16-24.26,35.94-39.45,1.53-2.38,4.74-3.37,7.87-1.84,3.72,45.54-18.47,75.68-57.09,96.07-3.11,1.64-6.18,3.34-9.27,5.03q-21.92,11.96-7.87,33.31c11.33,13.26,18.43,29.3,28.47,43.43,2.79,28.35,2.09,56.04-9.22,83.11-8.17,19.57-11.59,40.04-8.51,62.01,2.62,18.74-2.59,37.32-12.25,54.14-7.64,13.31-16.42,25.87-26.84,37.06-12.83,13.79-18.57,29.62-16.76,48.28Z"/>
  <path class="cls-27" d="M980.79,587.22c-7.76,3.78-8.72,10.8-11.05,18.4-3.76,12.28-7.13,28.07-26.73,23.35-2.03-.49-3.5-.4-3.32,1.74,1.95,22.78-20.13,18.39-30.85,26.26-11.68,8.58-27.49,2.51-41.28,5.02-1.34.25-3.87-5.07-5.59-7.97-4.95-8.37-11.87-4.51-18.64-3.48-7.01,1.06-11.06,4.63-10.48,11.55,1.39,16.54-9.14,22.72-22.31,26.91-5.78,1.84-11.97,4.34-11.95,11.07.02,6.97,7,6.26,11.92,7.71,7.84,2.31,9.36,6.63,2.76,12.37-6.75,5.88-12.76,12.14-12.58,21.97-10.16,7.46-24.95,5.46-32.27,16.42-3.53-.24-1.51.68-1.13.48,4.92-2.58,8.77-1.93,9.51,4.61-6.31,6.02-14.34,3.96-21.75,4.44-42.62,2.8-71.74,26.06-84.52,68.54,14.37-8.64,29.34-13.05,45.24-14.3,8.87-.7,15.57-4.83,19.77-12.72,11.35-21.32,28.42-36.87,49.09-48.87,17.16-.59,33.45,1.26,45.26,15.87-2.64,4.89-7.53,5.44-12.09,5.33-32.62-.85-52.82,17.43-68.48,43.95-1.41,1.1,2.7,2.87.92,1.33,10.61-10.5,22.48-14.48,36.57-7.12-.18,9.71-2.35,20.26,10.42,24.45-7.02,7.41-16.5,8.02-25.61,8.3-13.4.41-26.34,2.94-39.23,6.12-15.33,1.8-29.88,6.65-43.74,13.05-11.16,5.16-18.85,2.11-26.22-6.56-12.74-14.99-20.98-31.27-16.52-51.6,1.07-4.89,1.55-9.26-2.83-12.75-4.6-5.66-9.58-11.22-6.17-19.41,10.44-8.15,24.42-4.61,35.75-11.44,15.19-9.16,15.76-8.22,4.9-22.9-1.45-1.95-1.99-4.11-1.94-6.51,6.3-13.93,17.81-13.81,30.21-11.26,20.22-3.88,39.84-13.94,61.29-5.46,3.53,1.39,6.78-1.18,7.39-5.4.85-5.93.48-11.62-3.85-16.38-3.87-4.25-10.76-4.97-13-11.12,8.58-15.33,27.46-10.91,39.33-20.15-23.48-21.59-42.1-19.05-58.41,7.74-2.44,4.01-4.92,8.01-6.39,12.53-7.89,9.15-13.79,20.03-23.63,27.53-13.34-5.17-18.91-16.33-22.45-29.07,1.76-13.92,10.96-24.06,18.32-35.01,5.51-8.19,11.5-16.02,15.54-25.1,5.14-6.73,3.76-14.18,3.1-21.84-.83-9.6-3.93-19.81,4.09-28.23,8.52,2.13,17.13,3.99,25.55,6.44,45.14,13.15,79.09-7.68,87.72-53.99.55-2.96,1.21-5.75,5.49-7.48,6.31,11.28,6.16,22.67,1.36,34.39-10.36,20.34-25.94,35.56-47.29,46.49,5.65,7.58,15.89,6.27,20.25,13.3,19.68,15.05,38.84,21.97,62.82,5.85,11.99-8.06,28.88-8.57,43.22-13.47,16.25-5.56,31.18-13.44,40.54-29,2.08-3.46,4.96-7.15,9.86-5.25,4.71,1.82,4.89,6.03,4.09,10.34Z"/>
  <path class="cls-37" d="M253.77,777.32c36.44-24.82,78.17-36.18,120.47-44.39,13.75-2.67,20.74-7.86,24.67-19.69,2.7-8.13,11.75-13.55,9.94-23.55,14.25-21.96,26.2-45.82,49.72-60.12,19.27-10.82,40.87-17.92,56.09-35.2,10.93-7.22,23.55-8.9,36.04-11.02,6.44.14,12.88.19,19.32.46,8.79.37,13.34-2.85,15.98-12.2,4.63-16.43,12.34-31.67,27.33-41.7,5.99,12.56-6.66,19.69-9.05,29.98-2.92,12.62,4.48,6.24,8.77,6.25,4.5,11.33,13.56,5.91,20.82,5.17,16.07-1.64,32.06-4.09,47.94,1.07-.99,1.48-2.24,3.41-3.85,3.34-25.43-1.1-31.83,16.56-36.45,36.34-1.33,5.7-3.58,11.21-8.42,15.09-15.74,5.72-32.16,9.05-48.54,12.04-7.19,1.31-4.23,4.22-3.27,7.64-4.15,14.78-9.64,28.51-25.8,34.16-4.18-.83-7.06-3.73-10.12-6.4-21.97-19.2-30.59-19.59-57.25-2.13,8.39,10.12,23.06,10.37,31.29,20.18-1.43,12.85-13.65,22.74-10.14,36.97-1.51,2.96-4.7,5.21-6.91,3.01-8.02-7.98-20.56-11.65-23.73-24.31,1.61-5.39,8.79-10.71.6-16.31-5.06-3.46-10.61-4.21-16.06-.7-9.29,6,.36,12.02.1,18.06-1.6,5.7-6.3,8.33-11.05,10.54-39.6,18.42-52.81,53.66-59.46,93.05-1.89,11.19-2.11,23.61-19.37,18.55-1.93-2.07-2.94-4.58-3.5-7.3-.61-19.85-2.21-39.77,2.23-59.42,1.7-7.54-.91-9.75-8.19-7.63-33.45,9.73-65.16,22.85-91.8,46.13-5.61,4.9-10.25,11.59-18.99,11.39-12.89-12.12-12.76-19.12.66-37.35Z"/>
  <path class="cls-7" d="M490.57,1462.34c9.42-8.23,18.85-16.45,31.89-27.84-32.62-1.05-58.03,9.65-84.39,14.38-14.89,3.87-13.3-6.82-13.27-15.44.14-42.86-.04-85.72.09-128.58.03-10.01-.34-19.96-2.9-29.69.07-14.93,10.66-17.9,22.35-19.62,7.89,2.35,7.52,9.49,8.84,15.57,3.97,18.24,6.98,36.66,10.26,55.02,2.24,12.55,7.88,19.2,21.48,14.87,14.45,9,27.26,21.79,46.37,20.03,12.39.63,24.47,3.7,36.83,4.59,2.81.05,5.61.19,8.41.51,8.42,2.09,17.63,1.71,24.76,7.85,5.73,11.69,4.98,24.26,1.31,35.7-5.25,16.39-7.01,32.65-5.17,49.55-5.02,24.73-16.94,35.25-41.2,35.89-15.62.42-31.25,0-46.88.23-3.46.29-6.9,0-10.33-.49-7.87-1.13-14.81-4.2-17.2-12.31-2.58-8.72.49-15.8,8.76-20.24Z"/>
  <path class="cls-39" d="M553.95,678.8c13.8-6.24,17.55-20.3,24.66-31.74,11.98-.31,13.2,11.52,19.72,17.37,8.2,7.35,12.1,24.67,25.57,19.54,11.77-4.48,5.44-19.77,6.45-30.35.89-9.28-.97-18.7,1.06-27.96,3.78-10.99,8.39-21.77,11.15-33.01,3.86-15.68,12.37-22.8,28.73-19.78,3.35.62,6.98-.29,10.49-.5,7.86-1.54,15.65,4.74,23.53.17,8.08.1,15.41,2.45,21.91,7.28,0,0-.04-.23-.04-.23-.22,12.26-1.34,24.42,2.41,36.63,2.36,7.7,1.11,15.64-9.8,16.7-10.88,7.13-21.49.4-32.06-.97-23.62-3.06-26.56-.87-26.63,22.76,0,2.92-.03,5.84.01,8.76.35,24.89,2.13,26.62,26.71,25.82,6.41,9.73,11.5,20.42,20.59,28.19,4.39,6.77,1.35,12.37-2.78,17.81-11.63-6.14-21.01-3.55-28.25,7.3-5.88,4.49-11.19.13-16.63-1.17-17.69-4.22-33.71.06-48.82,9.22-7.59,4.61-7.83,8.82-.36,14.47,8.45,6.39,19.5,8.29,26.83,16.35-1.14,7.14,3.87,11.73,7.09,17.07,2.22,8.44,1.1,16.61-1.95,24.63-13.45,6.18-18.03-4.47-22.03-12.99-4.2-8.95-9.94-14.05-19.59-15-30.28-19.05-63.51-28.1-99.07-29.27-2.98-9.36-1.9-18.94-1.33-28.51,5.53-3.01,11.82-3.53,17.69-5.43,9.52-2.17,19.47-.56,28.92-3.29,8.3-1.96,15.04,5.43,23.85,4.19,2.27-17.48-6.95-29.85-17.2-41.82-1.67-3.99-3.32-7.99-.85-12.26Z"/>
  <path class="cls-68" d="M789.09,1246.65c6.32,13.81,10.5,26.61,6.31,43.37-2.58,10.33,6.26,24.19,11.69,35.65,5.73,12.06,4.71,20.69-9.13,23.35-20.43,3.93-25.56,16.34-22.29,34.87.5,2.84.65,5.99-.04,8.75-8.48,34.33,7.08,56.95,35.45,73.42,8.82,18.24,5.63,26.25-12.96,30.44-25.24,5.68-50.07,1.7-74-6.3-22.75-7.61-24.37-27.33-23.57-47.47,1.24-14.28-4.68-27.26-7.5-40.81-1.41-6.79-3.23-13.6-1.22-20.62,5.07-11.76,16.58-11.37,26.49-13.85,6.77-1.7,13.68-2.85,20.51-4.24,18.8-3.99,21.28-7.65,15.81-26.34-9.4-32.1-26.85-61.11-36.16-93.27.15-2.43.9-5.11,3.16-5.78,16.16-4.78,22.15-17.1,24.54-32.26,6.64-5.1,10.97,1.16,16.16,3.24,12.84,9.82,29.3,17.12,26.75,37.83Z"/>
  <path class="cls-59" d="M861.46,1049.65c-8.66-9.54-4.9-32.29,7.7-45.52,13.74-14.43,26.35-29.77,34.64-47.98,7.8-17.13,12.01-34.91,7.51-54.1-3.46-14.73.11-29.61,5.81-42.71,13.46-30.93,16.19-62.94,14.3-95.89,4.15-3.75,8.9-2.25,13.34-1.13,26.33,6.68,51.02,17.57,73.71,32.24,18.26,11.81,20.23,22.07,10.37,41.69-16.86,33.56-37.42,64.89-58.63,95.81-4.74,6.92-10.92,12.94-18.48,15.82-21.89,8.35-35.72,23.16-40.8,46.06-15.48,13.46-21.97,34.48-39.23,46.49-3.74,2.6-6.84,6.11-10.24,9.2Z"/>
  <path class="cls-1" d="M490.57,1462.34c-9.73,24-8.31,26.33,17.58,28.85,65.64,1.96,131.09,9.01,196.85,7.73,18.87-.37,37.5,1.57,56.19,3.65,15.94,1.78,26.27,14.35,40.2,19.86-26.38,6.63-53.55,4.42-80.25,5.79-73.32,3.77-146.75.59-219.99-3.38-47.24-2.56-94.83-4.9-140.99-16.92-10.57-2.75-27.64-2.46-27.34-16.4.28-12.61,17.03-12.4,27.22-14.56,42.97-9.13,86.26-16.49,130.52-14.62Z"/>
  <path class="cls-70" d="M801.4,1522.43c-10.59-1.52-19.7-.26-29.57-11.39-7.47-8.42-28.5-5.84-43.56-6.3-27.01-.82-54.15,1.06-81.09-.55-46.46-2.78-92.99-5.47-139.04-12.99,15.09-.23,30.18-.37,45.26-.7,25.48-.56,33.77-7.32,39.66-32.08,11.21-7.82,24.32-7.75,37.06-8.36,15.77-.77,31.68-1.24,47.36.14,11.12.98,19.82-1.54,27.47-9.15.23,4.66.93,9.34.62,13.96-1.15,17.29,6.99,27.75,23.29,32.19,19.92,5.43,40.3,7.19,60.81,5.47,23.4-1.97,23.37-2.35,21.43-26.58,45.36-1.33,90,3.89,133.83,15.47,5.69,1.5,14.26,2.69,13.74,11.04-.41,6.57-7.81,8.44-13.12,10.3-27.32,9.56-56.08,11.93-84.52,15.38-19.76,2.4-39.75,2.84-59.63,4.16Z"/>
  <path class="cls-28" d="M789.09,1246.65c-2.82-16.57-15.9-25.1-27.35-34.9-.73-1.64-1.11-3.48-.31-5.03,17.71-34.05,37.48-66.57,68.13-90.92,22.28,17.78,44.56,35.57,66.84,53.35,2.46,3.4,1.8,6.89-.91,9.4-14.07,13.05-17.64,30.74-21.77,48.22-7.61,13.92-9.83,29.22-12.35,44.63-1.58,9.65.29,21.29-10.77,27.46-16.86-10.49-29.31-25.92-43.77-39.09-5.43-4.94-9.69-11.67-17.75-13.11Z"/>
  <path class="cls-48" d="M910.93,993.95c-.44-23.79,5.53-33.78,26.93-42.97,17.46-7.5,28.87-20.6,38.86-36.36,17.51-27.63,35.02-55.17,50.44-84.08,6.21-11.64,4.45-19.61-5.04-27.39-21.72-17.81-47.92-26.31-73.77-35.5-5.45-1.94-11.28-2.83-16.94-4.2-13.97-10.57-18.75-26.59-24.85-41.84,47.85,11.89,94.65,26.5,137.35,52.05,29.29,17.52,32.52,25.65,16.74,54.83-22.57,41.73-45.65,83.3-75.19,120.65-19.02,24.04-42.36,42.08-74.53,44.81Z"/>
  <path class="cls-49" d="M335.12,1098.13c-10.04-3.02-13.76-11.64-17.64-20.05-36.47-78.99-72.92-157.99-109.37-236.98-3.55-8.65-4.17-17.92-4.99-27.01-1.13-12.47,3.03-20.7,17.79-17.84,14.84,12.31,20.34,30.67,29.82,46.45,3.59,5.97,6.37,12.42,9.6,18.61,12.36,24.49,22.78,49.91,35.38,74.3,19.66,43.67,45.31,84.31,64.79,128.07,2.6,5.84,6.29,11.21,7.64,17.61-7.68,12.11-18.75,17.6-33.01,16.85Z"/>
  <path class="cls-47" d="M221.81,799c-12.67-1.47-16.71,3.55-14.18,16.28,1.65,8.31.42,17.18.47,25.81-16.82-30.13-30.63-61.71-45.01-93.01-28.59-62.22-57.51-124.28-85.88-186.59-6.28-13.79-12.26-27.82-15.03-42.99-.97-5.32-3.7-10.9,2.49-13.92,6.38-3.12,9.58,3.24,12.59,6.94,12.32,15.14,19.4,33.36,28.46,50.41,10.69,20.14,21.2,40.37,31.78,60.56,30.28,55.29,60.79,110.45,85.36,168.63,1.27,3.02,1.42,5.54-1.05,7.88Z"/>
  <path class="cls-53" d="M931.17,1196.9c29.74-8.08,51.08,5.78,50.62,34-.15,9.04,3.73,12.52,10.62,15.64,13.3,6.03,27.82,9.75,39.08,19.68,5.3,4.68,11.51,10.29,8.53,17.9-3.14,8.02-11.32,3.88-17.27,3.66-13.03-.47-25.33-4.44-37.16-9.79-5.23-2.37-10.14-3.57-13.76,2.45-3.13,5.2.13,8.88,3.23,12.47,2.69,3.11,5.98,5.78,8.26,9.14,3.47,5.13,10.25,10.3,6.23,16.96-4.68,7.77-13.69,6.19-20.96,4.49-11.91-2.79-20.53-10.97-27.99-20.33-3.29-4.13-5.13-8.11-12.19-3.19-25.59,17.84-34.24,13.88-40.44-17,2.36-2.08,6.64-1.33,6.59-6.97-.06-6.25,2.28-12.59,7.96-16.72,27.73-12.02,32.36-20.25,27.54-49.07-.76-4.56-2.2-9.13,1.12-13.33Z"/>
  <path class="cls-32" d="M423.08,1270.96c7.99,3.89,7.11,11.31,7.1,18.25-.02,49.03.06,98.07-.38,147.1-.06,6.91-1.42,12.88,8.27,12.57-31.05,6.84-54.73-12.29-52.47-42.94,4.04-54.94,2.39-109.95,2.4-164.94,0-6.23-1.95-12.46-2.99-18.69,15.32-.95,17.78,10.96,19.59,21.45,2.12,12.36,7.03,21.71,18.49,27.19Z"/>
  <path class="cls-5" d="M423.08,1270.96c-18.52,4.44-20.4-11.49-21.87-21.56-1.8-12.35-6.08-20.85-16.21-27.08-2.47-11.22-1.96-23.43-10.85-32.51-4.91-.92-8.79-3.63-10.62-8.12-7.57-18.6-18.07-36.16-20.61-56.59-2.29-.42-4.62-.67-6.86-1.28-9.04-2.43-18.18-8.38-18.7-16.46-.59-9.18,11.62-6.01,17.77-9.23,10.64-5.07,21.91-9.02,30.75-17.29.23-7.84,4.78-12.81,12.05-11.58,8.87,1.5,10.06,10.23,11.86,17.6-8.37,20.27-3.43,37.83,8.49,55.66,7.22,10.8,11.83,23.66,17.63,35.6,3.08,9.64.48,21.22,9.91,28.66,5.57,7.65,4.56,20.09,16.77,22.92,2.62,9.12,3.57,18.36,1.98,27.78-7.35,4.2-16.15,6.08-21.49,13.49Z"/>
  <path class="cls-67" d="M829.57,1115.8c-1.97,3.56-3.15,8.03-6.03,10.54-27.24,23.72-42.58,55.95-61.79,85.41-5.94.15-8.96-5.08-13.56-7.38-2.34-1.7-3.36-4.14-3.84-6.88-1.04-8.4,3.63-14.39,8.56-20.31,16.6-19.92,35.32-37.72,50.7-53.84-11.92,8-21.09,24.17-34.75,35.6-8.2,6.87-14.47,19.7-27.41,14.62-11.55-4.53-9.5-17.89-11.21-27.78-2.71-15.7.29-31.36,3.61-46.81,25.74-1.04,50.03-9.35,74.86-14.96,5.79,5.34,11.23,11.14,17.46,15.9,6.07,4.65,7.45,9.47,3.4,15.87Z"/>
  <path class="cls-44" d="M458.57,629.58c-18.32,18.59-30.2,42.51-49.71,60.12-37.77-22.71-57.26-55.65-56.11-100.16.12-4.74.11-9.94,5.59-11.71,5.13-1.66,7.15,2.69,9.07,6.31,13.29,25.03,38.11,31.17,62.41,38.08,9.52,2.71,19.17,4.93,28.77,7.37Z"/>
  <path class="cls-34" d="M292.35,936.29c-13.96-23.3-24.34-48.31-34.88-73.23-7.22-18.17-14.32-36.39-23.42-53.74-2.98-5.68-6.35-11.33-1.31-17.61,4.96-7.81,12.72-11.51,21.04-14.39-.02,11.89-14.21,23.96.46,35.67,6.6,8.46,10.64,18.45,16.5,27.36,11.8,24.5,27.17,46.85,42.09,69.45,9.17,17.39,27.06,26.37,39.33,40.78-.76,13.29,1.6,26.21,4.61,39.07-22.98-.5-37.76-14.62-50.72-31.19-5.33-6.81-8.19-15.35-13.7-22.18Z"/>
  <path class="cls-52" d="M931.17,1196.9c4.92,19.35,14.55,38.84-6.57,55.68-6.8,5.42-13.02,9.31-21.68,8.72-17.36-.42-32.36-16.93-31.86-35.07-1.22-23.32,11.28-40.55,25.35-57.08,12.57,8.02,19.65,22.92,34.77,27.76Z"/>
  <path class="cls-66" d="M871.06,1226.22c5.62,16.24,15.95,28.19,31.86,35.07-6.54,6.16,1.93,22.67-14.96,21.7-4.32,4.53-9.2,8.65-12.83,13.68-7.59,10.49-15.36,12.43-24.52,2.18,7.35-17.14,4.9-36.22,10.56-53.64,2.19-6.76,1.5-15.34,9.89-18.99Z"/>
  <path class="cls-58" d="M232.73,791.71c5.31,20.03,18.07,37.25,21.9,57.84.84,4.51,1.88,8.99,2.83,13.49-11.88-21.34-23.77-42.7-35.65-64.05-7.5-24.73-21.91-46.23-32.58-69.49-16.52-36.02-37.27-70-51.73-107.03,12.7,7.23,17.25,20.84,22.75,32.57,15.44,32.94,35.46,63.34,51.43,95.95,4.63,9.46,11.21,17.85,10.64,29.21-.35,6.93,3.2,11.05,10.41,11.5Z"/>
  <path class="cls-56" d="M550.69,583.35c-10.27,9.37-22.94,10.87-36.03,11.02-15.12-26.72-11.95-58.8,9.29-77.74-3.15,28.05,5.25,50.25,26.74,66.72Z"/>
  <path class="cls-11" d="M342.91,1125.09c12.03,20.79,16.97,45,31.23,64.71-18.66,4.64-27.65-8.48-35.82-20.88-10.01-15.2-9.19-30.5,4.58-43.83Z"/>
  <path class="cls-42" d="M820.27,618.75c-8.6-5.35-25.23,1.11-26.65-11.36-1.09-9.58,15.43-9.32,22.19-16.04,10.68-10.62,21.02-21.57,31.5-32.39-2.13,18.35-11.75,33.28-21.91,47.97-2.47,3.58-7.31,6.19-5.13,11.81Z"/>
  <path class="cls-27" d="M727.23,579.83c-8.38.82-16.25.09-21.91-7.28.93-18.01,2.29-36.05-3.3-54.05,21.34,15.03,23.78,37.97,25.21,61.33Z"/>
  <path class="cls-60" d="M613.03,566.13c-3.34,4.03-3.33,12.8-11.77,9.81-9.36-3.32-1.96-9.6-1.72-14.62.58-12.24,12.01-19.7,13.77-31.41,3.38-4.08,7.27-7.25,14.7-7.35-7.48,14.21-15.97,27.45-14.98,43.58Z"/>
  <path class="cls-9" d="M733.85,1098.98c2.63,4.73,4.43,9.61,2.63,15.12-4.94,15.08-2.61,29.98.72,44.99,3.21,14.48,8.01,16.71,19.34,6.5,13.07-11.79,25.06-24.76,37.6-37.14,4.1-4.04,8.44-7.84,13.76-10.76-10.41,15.5-22.5,29.43-35.1,43.17-9.94,10.84-23.06,20.18-25.08,36.69-28.22-11.8-56,.54-83.97,1.67-5.11.21-6.97,3.95-6.02,8.74,2.59,12.97-5.81,14.85-15.42,15.36-13.45.71-26.95-.36-42.59.92,23.09,8.41,46.55,5.3,67.36,14.39,5.31,2.32,11.49,2.85,14.64,8.71-3.52,9.68-12.17,7.74-19.3,7.91-21.74.53-43.49.36-65.23.13-10.28-.11-16.48,3.24-18.64,14.1-2.93,14.66-10.35,27.29-19.86,38.84-11.89,14.43-15.21,32.92-22.56,49.52-1.51,2.75-3.97,4.28-6.8,5.32-15.91,4.43-35.31-5.21-42.77-21.25-6.13-8.64.17-15.62,3.45-22.68,5.01-10.78,9.78-21.19,5.17-33.52-2.4-6.43.21-12.63,3.13-18.52,3.93-7.93,8.8-15.52,15.02-21.5,14.91-14.35,27.45-29.35,25.2-51.85,1.25-1.34,2.73-2.31,4.44-2.95,54.36,1.8,95.69-26.88,136.42-57.62,10.92-8.24,16.28-19.61,22.86-30.55,10.54-1.24,21.08-2.48,31.62-3.72Z"/>
  <path class="cls-43" d="M641.9,823.41c1.7-8.21-2.82-17.33,3.61-24.86,8.63,1.76,7.46,7.71,5.57,13.61-7.37,23.05,5.09,39.29,18.75,55.12,3.97,4.6,7.64,4.78,13.68,1.86,14.69-7.1,29.89-13.5,46.68-14.07,3.68,13.08-4.5,19.28-14.33,24.34-9.25,4.77-19.62,7.39-28.38,14.53,12.14,3.72,22.33-9.44,34.01-2.47,3.67,9.79,6.88,19.68,6.68,30.31-7.27,9.51-6.33,16.53,5.7,21.16,12.83,4.93,23.9,14.16,38.65,14.57,5.66.16,11.69,2.39,11.05,10.41-1.37.17-2.75.34-4.12.5-2.48,2.97-5.99,3.99-9.48,3.8-32.89-1.77-63.07-12.72-91.64-28.31-7.71-4.21-11.89-12.34-9.6-21.07,4.11-15.67-4.12-16.7-15.73-14.91-2.9.45-5.79.98-8.73,1.25-4.12.43-8.24.36-12.35.47-7.7.2-13.05,2.98-10.81,11.72,3.01,11.74-3.12,18.05-12.62,21.86-43.03,17.26-87.04,28.8-134.08,21.96-22.01-3.2-40.26-12.82-53.54-30.8-17.75-24.02-11.09-60.78,13.89-78.29,10.24-7.18,22-11.08,33.59-15.33,18.86-5.68,37.82-5.56,57.02-1.59,25.72,5.32,50.88,12.64,75.98,20.28,7.92,2.41,15.79,5.14,22.75-2.1,11.13-8.6,10.96-23.13,17.82-33.95Z"/>
  <path class="cls-54" d="M645.54,904.83c3.39-.9,6.82-2.73,10.15-2.55,11.85.63,29.21-4.01,17.15,19.43-4.24,8.24,1.45,17.15,10.62,21.06,30.75,13.1,61.55,26.19,95.97,25.66,5.09,5.94,1.45,10.37-2.04,15.46-18.53,26.99-36.67,54.25-55.16,81.27-4.3,6.28-9.17,13.03-18.01,12.23-20.63-1.86-40.63,5.01-61.2,3.96-4.33-.22-10.47-2.48-12.81,2.66-2.41,5.29,4,7.58,6.57,11.16,1.7,2.36,3.49,4.66,5.24,6.99-6.97,7.15-16.16,4.06-24.4,5.33-30.13.88-59.87-2.49-89.4-8.13-15.6-4.33-31.89-5.76-47.31-10.94-5.22-2.25-11.06-2.78-16.06-5.67-2.41-1.76-4.13-4.01-4.77-6.97,1.39-13.85,10.78-15.54,21.54-13.07,29.7,6.79,60.14,7.81,90.13,12.22,6.96,1.02,13.97.84,20.95,1.27,14.73.91,25.66-2.21,25.01-20.3-.13-3.45,1.91-6.68,4.09-9.49,10.29-8.23,22-4.43,33.28-3.93-11.33-16.35-8.99-25.55,8.86-34.03,5.79-2.75,11.1-5.89,14.27-15.31-10.25,9.97-19.03,13.16-27.85,2.07-4.04-5.08-11.03-2.75-16.31-5.05-3.82-2.98-5.59-6.61-3.62-11.41,5.69-5.58,13.05-4.07,19.91-4.58,7.21-.53,14.69-1.01,16.41-9.88,1.75-9.05-3.77-14.1-11.37-17.43-4.28-1.87-9.02-2.55-13.05-5.07-14.13-19.28,6.91-17.22,14.31-22.39-.25-8.42-12.19-6.15-11.07-14.56Z"/>
  <path class="cls-51" d="M719.59,890.56c-10.27,3.91-20.14,9.34-31.55,9.01-3.24-.09-7.64.96-8.94-3.52-1.54-5.32,3.63-4.63,6.28-6.34,6.9-4.46,13.81-8.59,21.9-10.89,11.98-3.41,20.48-10.8,22.9-23.74,21.48-9.09,44.94-5.55,67.06-10.52,25.72,1.41,49.74,6.86,67.96,27.21,18.13,20.24,17.96,46.28-.62,66.3-21.99,23.69-49.87,31.17-81.03,29.88-2.64-4.3-6.37-7.39-11.52-6.65-19.47,2.79-32.04-12.75-48.4-18.34-11.52-3.94-9.83-12.99,2.7-20.78,11.45,1.13,19.47,10.44,30.72,12.48,25.97,4.71,45.9-4.31,61.7-24.81,5.45-7.07,10.04-16.56,21.73-13.99-3.46-2.61-8.18-3.47-12.24-5.78-32.04-18.26-64.44-20.07-97.22-1.77-3.44,1.92-7.01,4.69-11.44,2.26Z"/>
  <path class="cls-19" d="M617.55,1102.71c8.15-.18,16.31-.37,24.46-.55,20.07.18,40.14.36,60.22.54.92,9.89-1.66,17.96-9.57,24.95-32.33,28.56-68.06,51.65-109.21,64.72-12.33,3.91-26.72,1.3-40.17,1.68-7.96-13.04-5.42-26.76-2.65-40.49,4.03-6.42,10.75-6.72,17.08-6.59,30.82.6,58.53-8.44,84.35-25.01,9.37-6.02,19.22-12,26.09-12.85-10.27,3.31-25.47,1.82-40.59.92-4.33-.26-9.76-.69-10-7.31Z"/>
  <path class="cls-17" d="M786.83,820.1c-14.43-2.53-26.66,6.54-40.59,8.48,8.59-34.33,35.55-50.71,82.71-50.92,8.8-2.93,15.36.12,20.26,7.59q-19.82,27.13-52.18,32.16c-3.46.54-6.8,1.78-10.2,2.7Z"/>
  <path class="cls-69" d="M849.2,785.24c-6.75-2.53-13.51-5.06-20.26-7.59-14.44-7.98-29.32-14.47-46.35-13.68-2.22,1.45-4.33,1.69-6.23-.55-2.33-5.03-8.68-2.13-11.71-5.82,8.78-12.87,21.14-17.13,36.04-15.47,23.11,8.09,47.3,13.59,67.53,28.55,14.21,10.51,24.71,23.01,24.27,44.92-15.56-10.97-26.01-25.95-43.29-30.37Z"/>
  <path class="cls-30" d="M776.37,763.42c2.08.18,4.15.37,6.23.55-17.72,16.78-37.53,31.64-47,55.61-2.67,6.76-10.74,6.38-17.06,6.97-19.48,1.83-38.23,5.42-53.24,20.77-1.55-27.4,21.6-60.44,49.35-73.58,19.75-9.35,40.51-10.73,61.72-10.33Z"/>
  <path class="cls-63" d="M687.82,689.3c-6.6,5.23-13.8,10.33-22.29,5.87-8.14-4.27-9.39-12.78-9.3-21.33.08-8.21,0-16.42.03-24.63.09-25.13.18-25.6,25.76-23.07,12.69,1.26,25.19,4.46,37.77,6.78,3.2,4.96.32,8.12-2.76,11.97-11.09,13.88-20.85,28.7-29.22,44.4Z"/>
  <path class="cls-12" d="M638.41,781.48c-14.38-.43-24.62-9.73-35.47-17.22-10.38-7.17-1.21-12.38,3.7-15.73,22.27-15.19,45.97-18.17,70.75-5.93,3.13,2.51,6.25,5.03,9.39,7.53,9.39,7.48,9.29,13.05-2.19,18.9-14.66,7.46-29.12,14.45-46.19,12.45Z"/>
  <path class="cls-50" d="M705.64,735.31c.93-5.94,1.86-11.87,2.78-17.81,4.85-11.32,12.72-20.18,22.51-27.46,9.07-7.68,18.29-7.47,27.65-.55,16.28,5.48,24.94,15.61,21.36,33.81-.88,4.47-2.14,9.33-7.07,7.19-23.43-10.13-45.24-2.46-67.23,4.81Z"/>
  <path class="cls-14" d="M758.58,689.49c-9.22.18-18.44.36-27.65.55,2.15-19.95,14.66-32.06,32.33-37.7,15.55-4.96,27.23,7.71,39.82,14.05,7.81,3.93,3.42,7.88-3.04,9.85-13.87,4.25-27.64,8.81-41.45,13.25Z"/>
  <path class="cls-29" d="M627.98,858.81c-3.59,11.08-10.14,11.47-20.48,7.94-29.84-10.19-60.26-18.63-91.31-24.46-15.83-2.98-31.41-.35-46.98,2.3-23.61-16.71-45.93-12.69-73.66,13.11-4.79,4.46-8.33,12.2-17.24,7.66-6.67-11.03-10.57-22.35-3.87-34.84,8.45.46,12.89-2.88,13.65-11.96,4.11-48.51,22.51-87.74,70.85-107.13,1.37-.55,2.09-2.72,3.11-4.13,5.95-5.31,11.88-5.33,17.8.05,7.38,9.75,17.28,16.15,28.17,21.24,1.91-2.22,4.31-2.52,6.98-1.77,3.07,2.03,5.38,4.38,3.59,8.47-4.94,5.89-11.73,2.69-17.68,3.58-9.09,8.77-21.24,8.92-32.53,11.24-10.23,2.1-20.65,3.32-31.34,11.79,20.39-.15,38.54-6.48,56.59-.8,21.78,13,41.79,27.43,54.08,51,5.48,10.5,18.83,7.98,28.85,9.79,18.88,3.42,36.56,8.48,49.27,24.17,2.45,3.95,4.02,8.07,2.15,12.75Z"/>
  <path class="cls-38" d="M374.45,830.51c1.46,11.91,1.75,24.03,6.63,35.3,7.11,8.02,5.61,17.86,4.34,26.89-3.19,22.84-3.87,45.59-1.2,68.49.61,5.2,1.48,11.61-4.49,13.88-4.89,1.85-8.43-3.05-11.51-6.42-5.94-6.5-13.34-11.57-18.37-18.95-16.56-9.12-31.13-20.31-39.5-37.95.96-16.75,9.69-30.94,15.68-45.93,8.64-21.62,17.93-42.94,22.22-66,1.09-5.84,3.24-11.19,8.57-14.64,11.75-5.78,15.73-1.41,15.47,10.84-.2,9.2-1.79,18.59,1.23,27.69.31,2.27.62,4.54.92,6.81Z"/>
  <path class="cls-13" d="M373.52,823.7c-5.83-7.88-3.65-17.09-3.01-25.46.99-12.96-4.63-13.5-14.16-9.84-28.91,19.01-60.87,32.95-88.93,53.38-5.76-8.97-13.8-16.9-13.2-28.78,31.06-31.94,69.91-49.52,111.95-61.78,11.2-3.26,14.1-.83,11.14,9.82-5.75,20.64-2.62,41.78-3.79,62.67Z"/>
  <path class="cls-61" d="M631.42,625.65c7.41,18.47,2.82,37.62,2.79,56.46,0,5.15-4.82,9.68-10.53,10.15-6.85.56-12.01-3.37-16.16-8.66-9.6-12.21-19.27-24.37-28.9-36.55,1.13-3.51-11.36-7.79.37-10.56,17.37-4.1,34.23-10.76,52.44-10.85Z"/>
  <path class="cls-45" d="M515.08,728.33c-2.35.08-4.7.17-7.05.25-10.17-16.04,3.21-24.58,11.1-34.88,11.62-11.6,24.49-12.08,38.28-4.3,17.11,12.9,21.32,30.62,19.85,51.06-10.67.36-17.62-8.06-27.07-8.57-11.63-1.88-23.96,3.07-35.11-3.57Z"/>
  <path class="cls-57" d="M557.42,689.4c-13.11-1.71-25.75.84-38.29,4.3-10.05-4.61-20.01-9.45-30.18-13.78-10.95-4.67-7.81-9.14-.41-14.25,26.03-18,43.35-14.56,65.41,13.14,1.16,3.53,2.31,7.07,3.47,10.6Z"/>
  <path class="cls-26" d="M479.86,707.34c-5.93-.02-11.86-.04-17.8-.05-4.29-3.15-12.56-4.14-9.44-11.94,2.92-7.31,9.76-12.41,17.68-11.49,7.74.89,16.62,3.2,19.22,12.32,2.11,7.39-3.26,10.17-9.67,11.17Z"/>
  <path class="cls-33" d="M532.27,1359.46c5.02-22.49,12.06-43.82,28.54-61.2,8.64-9.12,13.02-21.63,13.57-33.74.61-13.54,6.94-14.69,17.79-14.41,24.07.62,48.16.32,72.24.14,5.7-.04,11.88,1.52,16.81-3.09,5.86-6.06,12.93-5.18,20.14-3.56,6.34,2.25,8.13,7.9,9.94,13.51,9.66,30.04,20,59.85,29.75,89.86,2.13,6.57,5.2,13.35-.11,19.97-14.62,7.83-33.56,1.96-46.62,14.72-29.99,2.6-32.88.72-39.2-25.38-2.04-8.42-2.99-17.62-14.31-19.2-13.09-1.82-14.77,8.25-17.88,16.92-.79,2.21-2.29,4.01-3.96,5.64-13,1.49-12.4-7.8-11.37-15.71,1.97-15.11,9.13-27.52,24.48-36.19-7.12-5.55-15.54-4.06-21.35-8.46-7.76-5.87-10.78-2.04-13.04,5.89-4.79,16.79-7.75,34.12-14.6,50.33-2.26,5.35-3.56,11.16-8.24,15.17-2.36-.22-4.73-.44-7.09-.65-4.88-8.28.02-15.9,1.82-23.61,4.91-21.01,13.91-40.98,15.74-62.89-6.85,21.37-16.41,41.52-28.1,60.45-5.26,8.53-10.15,20.93-24.97,15.5Z"/>
  <path class="cls-41" d="M616.69,1359.51c1.29-3.87,3.73-7.77,3.65-11.61-.27-13.44,6.84-15.68,18.72-16.53,13.42-.96,17.66,5.14,19.13,16.34.3,2.3,1.08,4.55,1.29,6.85,1.44,15.83,4.83,29.28,25.94,22.77,4.02-1.24,6.31,2.07,8.9,4.31-.02,20.43,15.33,38.11,10.64,59.39-.79,12.71-7.29,15.63-19.79,15.13-30.68-1.24-61.48-1.37-92.1,2.25-3.68-16.48-2.8-32.29,4.11-48.17,4.95-11.37,3.1-24.05,2.51-36.26-.8-12.42,9.98-11.23,17-14.47Z"/>
  <path class="cls-4" d="M540.49,1194.29c.46,5.22.55,10.51,1.47,15.65,1.57,8.75.02,14.74-8.23,20.64-14.44,10.34-24.23,25.3-32.38,41.09-1.34,2.59-4.06,6.29-3.2,7.91,11.84,22.23-6.12,38.35-11.18,57.06-.45,1.66-.3,3.49-.42,5.24-12.64,11.53-21.86,9.68-25.33-5.72-5.9-26.15-11.14-52.45-16.65-78.69-1.32-9.13-2.65-18.27-3.97-27.4-8.89-10.2-.2-14.5,6.78-18.39,15.23-8.48,31.78-14.42,46.07-24.83,7.62-5.56,14.78-11.28,19.97-19.24,5.79-5.62,12.06-10.66,18.99-14.74,3.59-2.12,7.7-3.52,9.04,2.8-.5,12.88,1.21,25.8-.95,38.62Z"/>
  <path class="cls-62" d="M616.69,1359.51c-2.55,8.49-14.28,6.19-17,14.47-8.51.68-16.72-.92-24.83-3.32,7.13-25.69,14.55-51.31,21.21-77.13,2.28-8.85,5.61-7.29,10.4-2.65,6.65,6.43,14.46,9.44,23.77,9.21,3.72-.09,9.37-1.7,10.11,3.89.56,4.23-3.63,7.44-7.34,9-13.45,5.64-17.78,17.37-21.32,29.96-1.91,6.79-2.21,12.71,5,16.56Z"/>
  <path class="cls-64" d="M532.27,1359.46c10.62.19,16.15-8.08,19.96-15.21,10.44-19.54,23.19-38.32,26.44-61,.81-5.68,2.16-11.77,8.76-10.66,7.75,1.3,4.79,7.95,3.47,12.85-7.64,28.21-15.41,56.39-23.13,84.58-13.09-.75-26.09-2.06-38.46-6.88.99-1.23,1.97-2.45,2.96-3.68Z"/>
  <path class="cls-35" d="M624.06,847.64c-18.33-16.24-40.75-21.43-64.23-23.7-5.16-.5-12.22.71-14.12-4.8-9.04-26.16-32.8-38.22-51.34-55.27,1.99-2.12,4.18-2.49,6.58-.7,37.23-2.71,71.32,5.55,101.09,28.9,18.27,14.4,27.49,37.65,22.02,55.56Z"/>
  <path class="cls-25" d="M500.95,763.17c-2.2.23-4.39.46-6.59.7-18.84-2.68-37.26,1.57-55.8,3.53-3.99.42-8.73,2.98-10.26-2.71-1.33-4.95,3.33-6.8,6.92-8.8,20.42-11.41,43.78-11.42,65.69-17.02,6.3,8.09,11.87,16.19.03,24.31Z"/>
  <path class="cls-27" d="M624.06,847.64c-.73-21.14-11.87-38.15-22.01-55.56,11.46-1.2,20.26.97,22.67,14.64,1.6,9.07,7.61,15.09,17.18,16.7,1.47,14.2-2.53,26.25-13.92,35.39-1.31-3.72-2.61-7.45-3.92-11.17Z"/>
  <path class="cls-37" d="M515.08,728.33c11.78.38,24.03-3.76,35.11,3.57-10.04,5.71-21.02,2.59-31.59,3.39-1.17-2.32-2.35-4.64-3.52-6.95Z"/>
  <path class="cls-3" d="M701.88,1246.55c-6.89.2-13.77.4-20.66.61-30.32-10.18-62.44-11.93-94.32-19.69,3.34-7.68,9.33-8.65,15.73-8.71,11.15-.1,22.31,0,33.46-.11,10.54-.11,25.28,3.62,14.38-16.12-2.5-4.53.55-7.74,5.69-8.29,25.47-2.75,51.15-3.46,76.4-8.59,8.04-1.63,11.77,5.76,15.17,11.91.15,2.28.3,4.55.46,6.83,4.05,22.94-9.17,33.05-28.62,38.55-4.72,6.97-11.85,2.14-17.68,3.62Z"/>
  <path class="cls-8" d="M701.88,1246.55c5.08-5.22,11.84-2.18,17.69-3.62,14.45,17.46,16.21,40.71,27.37,59.87,6.65,11.42,10.21,24.85,13.85,37.75,5.52,19.6,1.27,24.71-19.84,26.38-6.86-32.48-20.22-62.92-29.79-94.55-2.65-8.74-6.16-17.23-9.27-25.83Z"/>
  <path class="cls-15" d="M462.34,1076.85c.89,1.33,1.79,2.66,2.68,3.99-11.67,12.26-27.53,14.97-42.91,18.83-12.94.34-25.84.5-35.2-10.81-.83-1.43-2.1-2.77-2.4-4.31-.99-5.04-.95-11.84-5.96-13.42-6.9-2.17-8.63,6.06-12.68,9.7-18.61-35.49-37.37-70.91-55.74-106.53-6.41-12.42-11.87-25.33-17.77-38.02,15.93,19.74,31.47,39.95,55.92,50.18,2.6,1.09,5.4,1.72,8.1,2.56,13.44-2.54,25.54,1.22,31.54,13.2,15.05,30.06,38.4,51.12,67.09,67.19,3.17,1.78,4.91,4.94,7.33,7.44Z"/>
  <path class="cls-46" d="M538.67,1152.64c-7.78,5.73-15.55,11.46-23.33,17.19-9.16,10.41-21.38,16.1-33.98,20.48-19.14,6.65-38.34,13.25-58.12,17.86-16.19-5.06-6.67-19.05-9.93-28.6,15.21-9.83,17.44-24.52,15.78-40.97-.69-6.78-3.4-13.61-.69-20.53,11.3-4.78,13.22,5.79,17.15,11.4,8.68,12.4,37.8,12.19,45.81-.89,3.08-5.02.36-8.94-2.09-12.91-4.28-6.96-9.73-13.33-12.26-21.18-1.11-3.44-5.64-8.9,2.74-10.24,15.3,3.64,31.29,4.34,45.89,10.92,7.36,3.66,7.58,10.82,8.76,17.59,2.07,11.86,4.01,23.74,6.82,35.46.04,1.99-.82,3.46-2.56,4.42Z"/>
  <path class="cls-36" d="M430.69,1116.47c2.15,13.21,4.37,26.37,3.42,39.9-.94,13.4-6.37,22.19-20.81,23.21-11.27-21.96-26.59-41.9-32.22-66.67-2.13-9.36-.09-17,5.83-24.05,12.06,3,23.74,7.83,36.47,7.61,5.81,5.43,7.92,12.22,7.31,20Z"/>
  <path class="cls-24" d="M423.23,1208.18c7.38-6.93,16.47-10.81,26.07-12.86,23.41-5,44.72-15.18,66.03-25.49-9.27,20.18-29.61,26.33-46.69,36.46-6.86,4.07-14.66,6.54-21.99,9.84-6.19,2.78-8.66,7.29-6.05,13.94-7.12.97-13.6,1.7-13.47-9.02.05-4.27-2.52-8.58-3.9-12.87Z"/>
  <path class="cls-40" d="M462.34,1076.85c-32.79-15.04-60.9-35.73-75.91-69.56-6.37-14.37-20.09-12.23-30.06-18.26-13.02-11.31-9.01-25.45-6.54-39.33,14.54,1.33,20.07,14.22,30.05,22.99-8.9-36.02,2.22-71.33,1.18-106.88,12.33-18.14,32.87-24.35,50.54-34.68,14.63-8.55,29.87-2.91,37.6,13.45-14.09,7.93-31.24,10.5-42.03,24.21-24.98,31.75-8.2,76.87,32.94,88.52,25.25,7.15,51.05,6.4,76.38,2.55,23.04-3.5,45.3-11.29,67.2-19.52,9.57-3.59,18.76-6.4,11.5-20.63-4.45-8.71-1.25-16.13,11-15.22,6.42.48,12.89.25,19.34.34,2.67,4.08,7.31,2.91,11.03,4.23,5.61,2,8.79,7.15,8.53,12.16-.36,6.87-7.14,4.6-11.2,4.43-10.68-.43-15.69,3.02-11.83,14.27-.7,3.63-3.28,5.93-5.98,7.98-11.84,9.01-11.37,19.82-4.83,31.59l3.83,9.9c-1.62,14.56-6.11,15.44-24.38,3.53,2.45,7.98,5.09,13.85,11.58,17.72,17.68,10.54,18.29,22.22,2.04,35.29-.15,1.16.1,2.63-.51,3.44-6.65,8.8,4.59,23.43-7.05,28.88-13.99,6.54-30.23,3.99-45.02,1.79-31.67-4.71-64-4.9-95.09-13.44-9.54-2.62-12.85,2.22-14.32,10.24Z"/>
  <path class="cls-31" d="M267.43,841.77c23.92-27.32,56.66-39.95,88.93-53.38-7.53,39.11-24.7,74.85-38.98,111.6-1.69,4.35-2.91,8.89-7.03,11.75-17.06-21.63-31.42-44.92-42.92-69.98Z"/>
  <path class="cls-46" d="M540.49,1194.29c-.61-13.88-1.22-27.77-1.83-41.65.51-.46,1-.95,1.47-1.45,1.17-.7,2.14-.46,2.95.6.06,14.08.13,28.16.19,42.24-.92.16-1.85.24-2.78.26Z"/>
  <path class="cls-2" d="M719.59,890.56c44.28-33.66,103.08-20.94,133.5,16.08-14.6-15.86-21.75-6.53-29.98,5.21-25.29,36.1-69.73,37.66-96.77,10.32-3.92-10.18-7.6-20.41-6.75-31.61Z"/>
  <path class="cls-18" d="M490.16,940.5c-12,.47-23.17-2.01-33.1-9.1-20.28-14.48-20.39-37.79,1.55-49.48,34.41-18.33,68.93-11.51,102.48,4.17,4.72,2.21,8.93,5.51,13.38,8.31,5.08,9.88.53,13.18-8.53,10.73-11.72-3.18-17.57,2.3-24.42,10.88-12.82,16.07-28.54,28.33-51.36,24.49Z"/>
  <path class="cls-55" d="M490.16,940.5c22.78-4.4,42.45-13.54,53.11-35.8,5.29-11.05,13.23-6.57,20.95-4.1,5.78,1.84,12,4.42,10.25-6.19,8.51,13.42.74,23.72-8.51,31.03-20.38,16.08-45.78,17.92-70.45,20.94-3.37.41-4.58-2.96-5.35-5.87Z"/>
  <path class="cls-65" d="M621.48,893.28c4.13-12.1,11.7-18.43,21.53-22.42,8.16-3.32,11.74,2.15,14.37,8.4,3.81,9.06-4.14,9.71-9.07,10.79-8.25,1.79-16.82,2.12-26.82,3.24Z"/>
  <path class="cls-9" d="M543.09,1151.79c-1.01-.08-1.99-.28-2.95-.6-12.11-16.79-7.01-38.03-14.5-56.02,30.64,2.49,61.03,7.95,91.91,7.53,19.19,7.28,39.2.56,58.3,3.71-35.25,30.5-76.01,44.49-132.76,45.38Z"/>
  <path class="cls-10" d="M430.69,1116.47c-5.37-5.6-6.55-12.72-7.31-20.01,13.88-5.21,27.76-10.42,41.64-15.63,4.97.9,10.66-1.32,14.74,3.42-2.55,13.41,8.08,21.12,14.33,30.01,8.72,12.4,5.82,18.77-7.18,23.26-.55.19-1.09.44-1.62.7-9.03,4.51-19,5.4-28.62,7.72-17.81,4.31-8.77-14.67-17.05-18.93-3.79-1.94-6-6.94-8.93-10.56Z"/>
  <path class="cls-22" d="M624.33,1045.94c1.32-6.78,9.63-10.53,7.54-19.09-1.28-5.23.85-8.91-8.49-10.46-14.42-2.39-17.63-16.04-16.44-30.3,9.62.96,16.55,25.25,28.16,3.31,8.6-4.24,16.59-7.1,21.19,5.42,2.91,7.92,8.07,4.84,12.42,1.26,4.44-3.65,8.48-7.78,13.1-12.07,2.48,13.01-2.63,23.73-12.98,28.67-21.15,10.11-22.26,17.97-3.61,35.52-14.42-3.38-27.67-2.53-40.9-2.27Z"/>
  <path class="cls-21" d="M631.27,979.5c-16.75-13.54-13.28-26.25,10.8-39.57,12.35,1.03,25.15,1.3,29.54,16.52,3.92,13.59-1.61,21.5-15.72,22.26-8.2.44-16.42.54-24.63.79Z"/>
  <path class="cls-6" d="M533.31,822.29c-10.21,3.73-19.69-1.01-28.96-3.39-12.87-3.31-26.3-4.77-38.17-1.06-17.48,5.46-22.65-2.66-27.33-16.57-7.67-22.78-5.53-26.51,18.6-27.31,32.25-1.07,65.94,20.34,75.86,48.34Z"/>
  <path class="cls-20" d="M761.5,908.43c-.62,5.06-3.45,7.52-8.04,7.54-6.45.02-7.19-5.27-7.1-9.63.08-3.75,1.34-8.79,6.49-8.67,6.71.15,6.86,6.46,8.64,10.76Z"/>
  <path class="cls-23" d="M483.32,907.17c-.8,6.24-3.82,8.22-8.51,8.07-6.48-.21-7.2-5.12-7.08-9.75.1-4.03,1.31-8.61,6.76-8.28,6.81.41,6.81,6.69,8.83,9.96Z"/>
</svg>