<?xml version="1.0" encoding="UTF-8"?>
<svg id="Ebene_3" data-name="Ebene 3" xmlns="http://www.w3.org/2000/svg" viewBox="0 0 1132.66 1921.04">
  <defs>
    <style>
      .cls-1 {
        fill: #292629;
      }

      .cls-2 {
        fill: #caaf90;
      }

      .cls-3 {
        fill: #191722;
      }

      .cls-4 {
        fill: #675d5d;
      }

      .cls-5 {
        fill: #c2b0a6;
      }

      .cls-6 {
        fill: #845240;
      }

      .cls-7 {
        fill: #fcfcfc;
      }

      .cls-8 {
        fill: #9b756b;
      }

      .cls-9 {
        fill: #cbc5b0;
      }

      .cls-10 {
        fill: #cebaa6;
      }

      .cls-11 {
        fill: #ad9d3a;
      }

      .cls-12 {
        fill: #b6b6b7;
      }

      .cls-13 {
        fill: #342c25;
      }

      .cls-14 {
        fill: #5e4a3f;
      }

      .cls-15 {
        fill: #4c3c3c;
      }

      .cls-16 {
        fill: #f9c599;
      }

      .cls-17 {
        fill: #634d40;
      }

      .cls-18 {
        fill: #3e3231;
      }

      .cls-19 {
        fill: #db7f60;
      }

      .cls-20 {
        fill: #a66550;
      }

      .cls-21 {
        fill: #1a1826;
      }

      .cls-22 {
        fill: #06070c;
      }

      .cls-23 {
        fill: #cdc0ae;
      }

      .cls-24 {
        fill: #d98d65;
      }

      .cls-25 {
        fill: #734137;
      }

      .cls-26 {
        fill: #bba695;
      }

      .cls-27 {
        fill: #e8ba9c;
      }

      .cls-28 {
        fill: #8f5e46;
      }

      .cls-29 {
        fill: #8d5752;
      }

      .cls-30 {
        fill: #29222c;
      }

      .cls-31 {
        fill: #a19485;
      }

      .cls-32 {
        fill: #5c4a40;
      }

      .cls-33 {
        fill: #1a1823;
      }

      .cls-34 {
        fill: #2e2222;
      }

      .cls-35 {
        fill: #6b5d5d;
      }

      .cls-36 {
        fill: #87e1ce;
      }

      .cls-37 {
        fill: #8b7f7b;
      }

      .cls-38 {
        fill: #2b222a;
      }

      .cls-39 {
        fill: #a98881;
      }

      .cls-40 {
        fill: #54423b;
      }

      .cls-41 {
        fill: #4b3f3a;
      }

      .cls-42 {
        fill: #6cdbc4;
      }

      .cls-43 {
        fill: #eae7d9;
      }

      .cls-44 {
        fill: #b9a948;
      }

      .cls-45 {
        fill: #fdfdfd;
      }

      .cls-46 {
        fill: #be9881;
      }
    </style>
  </defs>
  <path class="cls-38" d="M476.65,1409.07c15.74-14.35,23.76-30.69,15.74-52.52-2.52-6.86-1.88-14.86-2.83-22.32-.54-4.21-.4-10.3-4.99-11.01-11.97-1.85-7.3-10.85-8.72-17.3-1-4.56,2.38-12.75-2.08-13.29-22.8-2.74-6.1-15.56-6.83-23.78-.05-.52.15-1.06.25-1.59,5.8-29.26,23.43-56.56,12.24-88.71-3.15-9.06-.08-20.29.14-30.52-5.04-13.87,4.14-22.87,11.18-32.63,25.24-2.58,50.3-3.88,72.93,10.99,4.07,10.98,2.77,22.46,2.11,33.64-.69,11.66,4.01,15.33,14.97,14.54,12.37-.89,24.81.11,37.2-.22,7.54-.43,15.1.07,22.66.03,22.56-.14,23.38-.95,22.92-24.03-.16-8.09.79-16.74-9.75-19.72-20.29-4.7-40.84-1.39-61.23-2.14-20.51-.75-23.13-2.11-27.21-21.94-2.99-14.54-11.25-28.27-7.35-43.97,6.66-4.42,11.79.17,17.24,2.9,40.86,25.17,82.75,48.25,129.07,62.11,10.28,4.39,21.04,7.36,31.65,10.81,2.75,1.9,4.23,4.65,5.15,7.76,1.45,5.69-2.91,11.2-.55,16.88-.68,2.12,2.69,1.1.55.78-.55-.08-.41-.51-.31-1.38.49-4.61,1.13-8.84,7.42-5.27,9.69,18.47,15.96,37.6,12.06,58.88-2.9,15.81,3.96,30.05,9.39,43.79,10.06,25.48-3.88,43.43-16.55,61.95-2.82,4.12-5.55,7.64-6.03,12.67-.94,9.66-1.87,19.45-3.84,28.84-2.85,13.61.66,24.19,9.79,33.98,4.01,4.3,7.53,9.19,10.22,14.57,5.05,19.29.51,26.29-18.49,27.73-10.14.77-20.35.73-30.5,0-20.43-1.45-35.93-9.93-42.35-30.77-3.33-20.38-6.27-40.92-20.55-57.4.79-5.71-.79-10.01-7.46-8.79-19.72,3.59-39.66,2.39-59.49,3.29-4.09.19-5.41,2.83-6.51,5.99-3.66,9.73-13.13,16.45-14.07,27.58-1.86,5.81-1.2,11.81-1.4,17.72-.9,25.53-15.97,41.21-41.43,42.39-11.32.52-22.69-.05-34.04.19-8.2-.31-16.25-1.54-19.02-10.73-2.62-8.71,1.48-15.23,8.73-20.01Z"/>
  <path class="cls-6" d="M643.29,633.92c28.57,2.06,53.66,11.83,73.5,33.2-5.88,10.34-19.8,10.39-26,20.33-10.77,1.7-16.32,8.47-20.2,18.37-10.06,25.73-14.06,52.67-16.98,77.63,7.73-23.3,15.42-49.06,28.9-72.46,2.8-4.86,4.17-11.47,11.4-12.48,6.62,7.56,10.19,16.54,12.3,26.2-4.08,15.52-11.41,29.61-19.29,43.46-5.02,2.22-9.62,5.19-12.23,10.12-8.34,15.75-17.13,30.62-33.18,40.54-8.54,5.28-7.98,15.08-5.28,24.9,7.41,26.95-.66,53.64-31.02,62.77-8.26,2.48-6.96,10.11-10.76,14.87-11.83,9.36-25.7,15.4-38.2,23.69-7.33,4.86-14.21,3.64-20.02-3.09-5.29-6.13-11.56-11.2-18.02-15.99-30.59-22.7-34.34-53.46-26.62-87.74,3.94-4.37,6.56-9.25,7.22-15.33.49-4.48.53-9.81,6.82-10.92,8.72,11.53,4.26,24.86,4.53,37.33.68,31.9,4.14,35.72,35.96,36.82,17.59.61,31.25-6.99,42.45-19.46,10.02-11.17,9.15-16.45-3.72-24-14.84-8.7-30.02-16.81-43.65-27.43-4.18-3.26-9.23-5.78-10.42-11.72.53-6.42,4.48-10.58,9.47-13.86,7.49-4.92,14.48-9.84,19.53-17.92,4.49-7.17,12.63-9.04,21.1-5.88,3.03,2.35,4.77,5.51,5.43,8.66,1.41-14.16-3.11-28.58-2.41-43.33,8.22-25.02,17.69-49.56,27.82-73.82,7.94-19.02,15.74-24.31,31.57-23.46Z"/>
  <path class="cls-30" d="M493.21,838.57c-.08,8.07.49,16.21-.35,24.21-2.63,24.96,7.66,43.69,26.65,58.79,9.52,7.57,17.98,20.85,28.07,22.06,9.23,1.11,19.91-10.69,30.12-16.5,5.1-2.9,10.57-5.14,15.87-7.68,11.72-9.69,25.47-8.88,38.57-5.48,16.15,4.2,32.29,9.62,45.31,20.74,7.8,6.66,13.96,6.42,20.81-.95,8.46-9.1,17.77-17.32,27.53-25.06,12.1-9.59,14.69-23.38,15.72-37.66.58-8.08-.46-16.25.79-24.27,2.19-14.02,11.1-18.29,25.57-12.6,3.27,11.29,4.51,22.43-2.46,32.94-4.95,23.07-4.45,47.45-16.5,68.83-10.82,17.22-16.92,37.73-34.77,50.1-6.94-1.43-11.05,3.19-15.04,7.44-11.44,12.19-24.7,22.33-36.98,33.55-15.21,13.89-31.73,17.15-50.45,8.51-42.27-19.5-80.16-45.64-115.13-76.17-6.04-5.27-9.62-11.56-6.53-19.93,1.37-2.13,3.63-3.94,1.56-6.97-12.93-18.95-14.44-40.59-14.58-62.54-.02-3.19.09-6.46-3.04-8.56-7.1-9.29-6.28-19.05-1.71-29.04,9.19-5.31,17.5-7.64,20.98,6.25Z"/>
  <path class="cls-25" d="M765.12,832.37c-15.73,2.02-20.93,10.87-19.37,26.42,2.58,25.73-3.91,48.06-28.08,62.11-2.25,1.31-3.85,3.74-5.79,5.62-6.97,6.74-12.88,15.94-21.21,19.58-11.02,4.81-14.49-9.87-22.92-13.94-23.69-11.44-47.34-20.63-74.17-12.73-.6-10.6-.19-17.08,14.97-17.69,9.59-.38,21.12-11.32,23.48-23.42,2.35-12.06,5.79-24.38-.88-37.29-6.17-11.95.72-23.53,11.01-28.79,13.31-6.81,18.7-18.13,25.37-29.77,3.69-6.44,4.91-17.39,16.92-15.28,2.93-.45,2.3,10.1,6.92,2.75,5.25-8.35,11.93-15.27,18.45-22.47,11.01-12.18,9.78-16.38-5.91-22.24-3.32-8.67-10.27-15.99-9.75-26.1-3.62-3.77-5.99-7.83-3.14-13.14,2.17-15.07,16.61-13.39,25.79-18.88,30.67,21.84,43.95,53.24,48.63,89.19.89,6.85.56,13.85.79,20.78,5.95,18.55,8.36,37.03-1.09,55.28Z"/>
  <path class="cls-21" d="M713.64,984.5c10.33-8.98,14.21-22.24,21.91-32.95,3.99-5.55,6.47-12.51,13.36-15.62,15.88,11.89,23.37,31.27,38.83,43.55,1.23.98,1.98,2.55,2.99,3.81q17.71,22.04,3.85,46.63c-4.23,9.7-11.52,17.21-18.02,25.3-19.95,18.73-40.04,37.31-61.15,54.74-4.6,3.8-9.14,7.59-15.61,7.45-42.75-13.63-82.17-34.27-120.42-57.35-12.84-6.99-24-16.49-36.36-24.22-10.65-9.54-21.49-18.86-32.57-27.9-5.55-4.53-12.54-8.58-11.6-17.59,7.9-9.38,14.85-2.59,20.94,2,26.8,20.18,55.21,37.6,85.38,52.28,33.19,16.15,43.67,14.15,70.49-14.55,9.89-10.59,18.43-22.53,26.77-34.49,3.02-4.34,5.36-9.54,11.21-11.08Z"/>
  <path class="cls-28" d="M493.21,838.57c-4.36-8.21-12.13-5.77-19.02-6.07-9.48-18.37-8.03-36.93-.97-55.59,7.28-84.18,49.07-132,127.15-144.5,14.16-2.27,28.79-3.89,42.91,1.52-18.86,1.87-24.38,16.77-30.14,31.19-8.84,22.12-17.38,44.37-26.05,66.56-10.22-2.8-7.79-12.64-10.68-19.45-3.07-7.23-2.68-16.44-11.82-19.94-2.05-.79-4.66-.31-5.76,1.78-4.77,9.07,2.52,15.32,5.95,22.16,6.08,12.12,11.12,24.61,15.45,37.41,1.51,4.45,4.35,9.03.23,13.64-8.88,1.11-16.18,1.8-20.85,12.94-4.55,10.87-20.99,11.74-27.67,22.75-10.57-1.67-21.34-3.9-26.39,9.61-4.53,5-2.68,11.15-2.67,16.8,0,6.97-3.11,9.67-9.69,9.21Z"/>
  <path class="cls-46" d="M674.65,1406.03c8.16,22.33,25.02,30.48,47.68,29.42,6.94-.33,13.92.03,20.86-.24,20.48-.79,22.21-3.27,16.51-23.05,7.31-6.24,16.26-5.04,24.47-4.19,28.05,2.9,56.27,4.72,83.91,10.63,5.77.31,7.1,10.18,14.63,6.83,2.34,1.2,4.57,2.97,7.05,3.46,4.6.92,8.14,2.48,8.86,7.69.87,6.35-3.78,8.46-8.24,10.27-19.52,7.92-40.35,10.86-60.92,13.37-32.9,4.02-65.86,8.65-99.18,7.67-9.05.03-19.88,7.61-25.46-6.93-1.23-3.21-6.94-1.85-10.6-2.43-25.67-4.1-51.73-3.41-77.54-4.7-28.54-1.42-57.12-3.43-85.69-4.64-15.29-.65-31.9-1.3-44.31-13.43,10.15-.19,20.31-.26,30.46-.61,28.94-1,39.97-12.14,41.18-41.08.24-5.77-1.09-11.84,2.43-17.18.83.69,1.89,1.3,2.28,2.22q9.34,21.81,34.09,21.83c19.27.02,38.54-.1,57.81.07,6.95.06,14.03-.11,19.72,5.03Z"/>
  <path class="cls-2" d="M486.69,1435.76c18.29,2.36,35.59,8.89,54.5,9.57,58.51,2.12,116.95,6.03,175.28,9.24,2.74,7.25-7.46,5.85-6.37,12.4,6.63.3,13.41.61,20.19.91-3.12,2.7-6.96,2.5-10.72,2.71-75.39,4.28-150.84,3.59-226.14-.51-49.29-2.68-98.83-4.92-147.42-15.32-9.01-1.93-17.76-4.33-25.95-8.56-3.31-1.71-7.38-3.21-7.64-7.54-.32-5.25,4.17-7.76,8.05-8.94,12.84-3.88,25.72-8.41,38.92-10.18,38.9-5.21,77.96-9.29,117.25-10.47-10.58,21.53-9.7,23.86,10.05,26.68Z"/>
  <path class="cls-32" d="M561.04,1126.93c-23.08-7.87-47.12-8.64-71.12-9.68-1.96-2.47-2.18-5.95.27-7.07,14.82-6.79,8.37-15.08,2.5-24.01-7.34-11.18-13.47-23.14-22.07-35.85-2.27,18.3-9.92,31.96-23.76,41.83-15.62,11.12-27.26,11.4-40.04-2.47-9.5-10.31-23.34-15.52-30.67-27.93,25.15-8.98,48.36-21.62,70.19-36.93,6.42-4.5,12.45-7.58,12.18-18.13-.14-5.37-.29-20.58,15.02-15.63,24.89,15.34,46.08,35.6,69.94,52.32,5.89,6.32,17.19,7.38,18.15,18.52-2.55,20.27,9.36,37.76,11.15,57.29.51,5.53,7.57,4.82,12.38,4.83,18.31.05,36.62-.05,54.93.12,5.24.05,10.87-1.38,15.48,2.66-8.81,8.6-19.91,3.7-29.95,5.08-15.51,1.02-31.03.34-46.55.36-6.49,0-12.89-.58-18.01-5.34Z"/>
  <path class="cls-42" d="M311.38,1068.34c-40.38-80.64-80.78-161.27-121.11-241.94-2.16-4.31-3.72-8.92-5.56-13.39.17-10.95,7.31-10.43,14.35-7.92,8.36,2.98,14.15,9.18,18.31,17.19,5.15,9.93,8.71,20.84,16.82,29.07,18.43,34.11,37.03,68.14,55.24,102.36,14.69,27.6,29.13,55.33,43.16,83.27,2.84,5.65,7.51,8.86,11.55,12.99-5.68,14.17-17.78,20.96-32.76,18.36Z"/>
  <path class="cls-17" d="M775.27,1052.64c5.7-8.2,10.06-17.53,19.3-22.72,24.46,12.8,47.49,29.14,77.93,32.4-13.65-21.39-1.72-40.42,1.09-59.53,1.26-8.58,10.76-4.26,16.7-4.75,6.03-.49,8.25,2.95,8.87,8.84,1.53,14.4,1.43,28.89,4,43.3,1.67,9.36-8.91,6.38-14.02,8.91-1.52,7.39-4.3,13.93-11.01,18.28-14.68,9.53-17.67,28.06-30.08,39.42-31.37,9.77-62.81,5.01-94.03-.35-13.35-2.29-15.4-8.03-7.06-18.98,10.78-14.16,20.38-28.91,28.28-44.81Z"/>
  <path class="cls-18" d="M376.14,1061.75c11.04,4.31,19.8,11.53,28,20.07,20.94,21.8,50.73,13.18,59.38-16.95,2.14-7.45,3.34-15.16,5.49-25.16,13.29,21.48,25.27,40.96,37.39,60.36,2.81,4.5,1.97,6.81-3.35,7.68-5.91.96-11.95,1.95-13.14,9.52,1.69,11.99-11.36,19.03-10.35,30.8-18.82,5.72-35.14,17.59-54.44,22.1-14.7,3.23-15.83-7.41-17.71-17.29-5.26-27.35-11.99-54.03-31.79-75.35-3.55-3.83-6.14-8.91-2.87-14.59,1.13-.39,2.26-.78,3.38-1.17Z"/>
  <path class="cls-33" d="M311.38,1068.34c12.75-2.85,24.64-7.24,32.76-18.36,4.17-1.72,5.79-8.92,11.64-6.42,5.42,2.31,4.02,7.94,4.32,12.61.2,3.14.88,6.25,1.34,9.37.68,11.42,5.33,21.54,10.18,31.63,7.28,15.16,20.58,27.33,21.93,45.51.32,4.27,5.5,6.25,8.63,9.1,2.55,9.43,3.47,19.43,9.47,27.7,1.94,3.79,4,7.53,5.8,11.39,2.92,6.27,11.53,11.56,4.58,19.76-6.1,7.19-14.21,12.26-23.77,11.21-9.71-1.07-9.91-11.14-13.26-17.91-11.09-22.42-19.9-46.15-37.81-64.57-9.94-11.04-13.31-25.26-18.67-38.52,0-7.62-1.56-12.75-11.42-12.64-8.53.1-11.01-9.05-14.59-14.96-1.16-1.92,5.42-3.78,8.89-4.9Z"/>
  <path class="cls-3" d="M849.29,1113.96c5.25-16.89,14.17-31.56,28.6-41.86,5.14-3.67,6.55-9.58,11.26-13.02.05,1.11.09,2.22.13,3.32,2.82,5.33,3.86,10.94,2.66,16.91-3.85,19.11-1.82,39.12-8.78,57.77-.15,96.11-.3,192.22-.45,288.33-1.34,2.95.92,8.66-5.03,8.06-7.18-.72-4.39-7.2-5.54-11.36-6.06-7.41-4.66-16.32-4.68-24.8-.14-53.29-.64-106.59.2-159.87.36-22.61,1.28-44.19-23.08-56.05-6.91-17.04-7.47-34.52-3.65-52.33,1.27-5.92,3.05-11.47,8.36-15.11Z"/>
  <path class="cls-36" d="M234.19,851.36c-10.47-3.99-12.66-14.32-16.61-22.85-4.1-8.86-10.61-14.54-18.44-19.62-6.82-4.42-10.99-2.07-14.41,4.13-20.29-33.76-35.69-70.02-53.5-105.04-13.44-26.41-25.83-53.35-38.54-80.13-1.84-3.87-3.25-8.04-4.17-12.22-1.03-4.68-2.67-10.55,1.69-13.67,5.67-4.05,8.2,2.77,11.61,5.54,10.82,8.78,16.3,21.45,22.57,33.23,36.23,68.03,72,136.3,107.87,204.52.98,1.86,1.31,4.06,1.95,6.1Z"/>
  <path class="cls-41" d="M713.64,984.5c-13.66,22.55-29.25,43.4-48.46,61.78-19.35,18.51-39.03,13.73-59.28,3.66-31.76-15.78-62.38-33.51-90.26-55.64-5.13-4.07-10.44-8.02-17.23-2.99-8.53,3.23-12.09-4.14-17.25-8.1-17.13-18.65,2.48-29.88,8.85-43.78,2.58,19.83,20.45,27.17,33.29,36.84,28.62,21.55,58.02,42.45,91.6,56.43,17.07,7.11,31.17,4.06,44.22-8.19,14.1-13.23,28.38-26.27,42.61-39.36,3.76-3.46,7.44-9.72,11.9-.64Z"/>
  <path class="cls-1" d="M928.33,1428.81c-3.79,8.63-7.23,5.46-8.56-.9-1.41-6.76-1.43-13.87-1.46-20.84-.35-88.86-.59-177.73-.85-266.59-2.23-3.06-5.57-4.93-8.14-7.64-9.85-10.43-15.37-22.65-9.75-36.44,5.43-13.32,17.75-17.35,31.41-17.5,2.05,0,4.11,0,6.16,0,6.5,1.97,10.16,7.04,13.61,12.37l-.06-.07c9.46,22.53,7.23,32.04-13.67,43.97-8.98,5.12-7.76,11.82-7.76,19.07-.06,85.63-.02,171.26-.08,256.89,0,5.89.83,11.85-.85,17.67Z"/>
  <path class="cls-24" d="M402.39,1153.3c-4.32-1.13-11.2,1.21-11.8-5.51-2.3-25.69-23.63-42.36-30.6-65.89-1.89-6.38-1.52-11.12,1.45-16.36,3.78-.87,7.56-1.75,11.33-2.62,2.81,11.57,12.87,18.34,18.55,28.02,10.78,18.37,15.73,38.69,19.93,59.26-2.45,2.46-4.84,5.12-8.86,3.1Z"/>
  <path class="cls-19" d="M765.12,832.37c.36-18.43.73-36.86,1.09-55.29,20.07,9.19,30.12,24.47,29.19,46.87-.87,20.88-10.86,35.11-29.99,43.15-.1-11.58-.19-23.16-.29-34.73Z"/>
  <path class="cls-20" d="M930.98,1078.9c-36.98,15.5-38.76,22.25-14.87,55.51,1.12,1.55.94,4.03,1.36,6.08-11.59.45-22.97-1.19-34.3-3.39-2.72-25.29,3.45-49.85,6.12-74.69,2.85,2.73,6.35,3.74,10.12,3.17,13.29-2.02,23.36,3.4,31.57,13.32Z"/>
  <path class="cls-16" d="M473.22,776.91c.32,18.53.65,37.06.97,55.59-.08,9.62-.17,19.24-.25,28.86-18.48-5.83-24.56-20.59-26.15-37.79-1.93-20.94,4.98-37.63,25.43-46.66Z"/>
  <path class="cls-29" d="M928.33,1428.81c-.35-32.28-.94-64.57-.99-96.85-.1-60.33.21-120.67.09-181-.02-9.75,1.46-16.91,11.79-21.87,16.49-7.92,13.92-23.3,11.46-37.88,15.36,16.54,11.31,40.74-10.01,47.93-11.23,3.78-10.46,10.06-10.48,17.85-.2,84.23-.29,168.46-.53,252.69-.02,6.38,1.56,12.94-1.34,19.14Z"/>
  <path class="cls-23" d="M481.16,983.21c8.41-2.96,10.19,8.18,17.25,8.1,15.47,14.08,30.94,28.15,46.41,42.23,3.92,5.32,3.08,9.46-3.04,12.29-23.59-17.2-48.31-33-68.24-54.77,2.54-2.62,5.09-5.24,7.63-7.85Z"/>
  <path class="cls-27" d="M328.5,1100.84c11.12,10.47,14.43,24.72,18.68,38.52-15.38-2.52-25.58-23.57-18.68-38.52Z"/>
  <path class="cls-10" d="M402.39,1153.3c2.95-1.03,5.9-2.07,8.86-3.1,2.82,7.91-.72,20.24,13.89,19.95-2.93,5.38-13.75-.64-13.49,9.34-12.05-5.56-12.78-15.13-9.25-26.19Z"/>
  <path class="cls-29" d="M950.75,1091.27c-6.35-2.12-9.28-8.02-13.6-12.37,10.46-2.4,16.12.49,13.6,12.37Z"/>
  <path class="cls-45" d="M846.51,1179.14c26.15,7.11,27,26.25,26.48,49.11-1.47,64.59-.71,129.24-.83,193.86-37.59-2.11-74.61-10.67-112.45-9.96-21.16-17.61-26.89-39.48-18.79-65.62,1.72-5.56,1.29-11.77,1.97-17.67.31-2.66.43-7.37,1.46-7.6,15.74-3.64,16.86-14.92,15.37-27.85-.11-.96.49-2.84.95-2.9,21.1-2.77,7.03-15.47,5.72-23.08-3.67-21.27-14.71-40.59-9.65-64.23,3.27-15.28-6.83-31.01-10.86-46.57-4.77-1.68-4.67-6.39-6.26-10.04-.88-2.1-1.75-4.2-2.63-6.3,1.54-4.7,5.49-5.43,9.15-4.16,34.45,11.99,69.21,23.31,100.36,43.01Z"/>
  <path class="cls-14" d="M531.05,1318.49c-3.78,0-7.56.02-11.34,0-38.63-.23-28.33,1.69-25.65-30.93,2.1-25.45,10.32-50.38,15.61-75.59,2.05-9.77,6.62-14.6,17.63-13.68,12.88,1.08,25.92.6,38.87.17,8.45-.28,11.25,3.13,11.32,11.42.21,25.89-5.23,51.48-3.62,77.45.72,11.6-7.13,5.55-12.11,5.01-7.46-.81-18.12-10.79-21.26-2.76-4.52,11.6,11.82,8.39,17.33,14.05,2.15,2.21,5.61,3.13,8.46,4.67,2.53,1.37,4.51,3.33,3.68,6.37-.85,3.12-3.75,3.54-6.51,3.55-10.8.04-21.61.02-32.41.02v.23Z"/>
  <path class="cls-40" d="M714.2,1277.35c-18.33,1.56-30.28,9.03-42.69,15.23-6.92,3.45-9.42,1.78-9.93-6.03-1.63-25.2-4.03-50.33-3.38-75.66.23-8.8,2.65-13.25,12-12.39,3.74.34,7.56.17,11.32-.06,32.12-2.03,31.86-1.96,41.99,27.99,8.27,24.46,15.02,49.1,17.81,74.95.94,8.69-1.79,9.86-8.52,11.34-20.04,4.42-40.24,6.39-60.73,5.7-3.63-.12-8.34.9-9.39-4-1.13-5.26,2.94-7.07,7.19-9.02,15.03-6.91,29.37-15.03,44.33-28.04Z"/>
  <path class="cls-15" d="M846.51,1179.14c-28.53-11.48-56.97-23.19-85.66-34.27-7.49-2.89-14.81-8.88-23.85-4.58-12.33,1.11-22.96-3.65-33.24-9.63-1.03-5.27-5.13-9.87-3.41-15.74,12.4-5.57,21.77-15.15,31.7-23.98,14.39-12.79,28.81-25.53,43.22-38.3.43,24.07-20.06,36.95-30.87,56.89,35.24,8.81,69.86,10.31,104.89,4.43-7.06,21.46-7.64,43.2-2.79,65.17Z"/>
  <path class="cls-7" d="M674.65,1406.03c-31.71-.06-63.44-.78-95.12.12-14.03.4-21.51-2.31-18.31-18.08.72-3.55-.27-7.45-.47-11.18-2.84-12.39,11.21-15.63,13.64-25.16,2.91-3.54,6.82-5.33,11.23-5.41,18.72-.34,37.45-.61,56.17-.07,3.79.11,7.38,1.32,10.18,4.15,4.62.1,7.72,1.68,9.74,6.49,6.64,15.81,12.81,31.66,12.92,49.15Z"/>
  <path class="cls-4" d="M625.71,1127.48c9.94-.22,19.88-.44,29.83-.66,9.72-1.2,12.73,2.88,12.94,12.76.82,39.41,1.17,39.42-38.19,39.36-3.74,0-7.49-.37-11.23-.56-11.41-3.48-22.95-4.6-34.86-2.93-8.03,1.13-15.59.06-16.7-10.26-1.07-9.9,2.74-17.08,13.14-18.88,11.73-2.03,23.63-.73,35.46-.99,14.94-.33,14.91-.28,8.85-13.28-.7-1.51-.04-3.13.76-4.57Z"/>
  <path class="cls-37" d="M625.71,1127.48c.36,1.01.53,2.13,1.11,3,3.52,5.33,15.66,3.87,12.75,13.46-2.99,9.87-12.8,5.2-19.65,5.62-12.29.74-24.64.51-36.97.39-10.34-.1-12.71,5.9-12,14.66.82,10.28,8.02,8.34,14.2,6.99,12.41-2.72,23.91-2,33.91,6.79-16.12.2-32.24.16-48.34.72-7.7.27-10.53-2.71-10.27-10.29.49-13.95.42-27.92.58-41.88,21.56.18,43.11.37,64.67.55Z"/>
  <path class="cls-35" d="M700.35,1114.92c1.56,5.15,9.82,8.85,3.41,15.73-47.04-12.54-89.42-34.79-129.36-62.12-.3-5.02-.03-9.77,5.65-11.96,39.03,21.66,78.5,42.4,120.3,58.34Z"/>
  <path class="cls-22" d="M651.99,1350.4c-25.83,2.45-51.71,1.65-77.58,1.33-.52-6.15.73-10.52,8.39-10.56,22.04-.12,44.12.7,66.01-3.05,4.42-.76,9.07.11,10.34,5.41,1.37,5.73-6.17,3.08-7.16,6.88Z"/>
  <path class="cls-31" d="M580.05,1056.58c-1.89,3.99-3.77,7.97-5.66,11.96-4.26-2.21-8.52-4.42-12.78-6.63-6.61-5.36-13.23-10.72-19.85-16.08,2.22-3.8,3.77-7.77,3.04-12.29,13.46,5.07,22.67,16.62,35.24,23.04Z"/>
  <path class="cls-12" d="M739.63,1146.59c4.53,1.83,5.04,6.16,6.26,10.04-8.01,5.2,1.99,12.34-4.22,21.8-3.95-12.42-7.43-21.45-2.04-31.85Z"/>
  <path class="cls-13" d="M505.57,812.56c2.7-20.91,4.88-21.7,26.39-9.61,18.91,16.03,40.37,28.16,61.96,39.97,9.83,5.38,9.49,10.66,3.92,19.07-18.36,27.73-54.71,37.72-83.89,22.92-7.12-3.61-8.11-9.11-8.1-15.91.02-18.81-.17-37.62-.28-56.44Z"/>
  <path class="cls-39" d="M690.99,686c2.24,4.09,3.51,8.42,3.14,13.14-19.97,30.03-29.33,64.7-42.67,97.91-4.65-15.45.45-30.27,2.18-45.02,2.18-18.59,8.22-36.5,15.44-53.83,3.97-9.54,9.53-17.28,21.91-12.2Z"/>
  <path class="cls-26" d="M580.48,767.26c-6.12-20.7-13.84-40.72-25.39-59.09-4.76-7.57-7.34-16.07,2.07-20.9,9.97-5.12,16.02,1.62,19.51,10.79,4.18,10.98,4.51,23.15,10.43,33.59,3.17,19.34,4.62,38.73-.32,58.83-2.1-7.74-4.2-15.49-6.3-23.23Z"/>
  <path class="cls-8" d="M703.89,725.23c4.76-2.84,9.74-5.83,14.28-.06,3.83,4.87,6.35,10.68,1.74,16.19-11.17,13.34-23.57,25.63-32.68,41.85-4.28-6.51-2.21-11.42-2.8-16.02,6.49-13.99,12.97-27.97,19.46-41.96Z"/>
  <path class="cls-34" d="M733.19,840.38c0,4.92-.09,8.16.01,11.39,1.34,41.84-2.99,31.78-35.55,38.06-26.46,5.1-52.79-11.76-57.78-33.26-1.57-6.75,1.84-10.71,6.71-13.14,25.6-12.78,48.63-29.64,72.32-45.39,8.81-5.85,10.72-2.18,12.64,5.4,3.23,12.79.55,25.77,1.65,36.93Z"/>
  <path class="cls-5" d="M554.15,778.06c-8.98-12.01-18.19-23.85-26.84-36.1-4.79-6.78-6.76-14.07,3.03-18.7,8.32-3.93,13.16.14,16.29,7.74,6.11,14.81,11.83,29.68,7.52,47.06Z"/>
  <path class="cls-43" d="M888.22,1030.06c-7.75-.54-14.17,1.29-12.56-6.87,1.32-6.67-.98-16.04,10.8-16.23,8.14-.12,8.03,5.05,8,10.72-.03,6.59,1.53,14.24-6.25,12.37Z"/>
  <path class="cls-9" d="M882.23,1049.35c-4.72-.86-11.07.71-10.79-6.63.27-7.06,6.16-8.42,11.67-8,4.93.37,12.26-.12,11.58,7.7-.63,7.23-8.08,5.14-12.46,6.93Z"/>
  <path class="cls-44" d="M522.53,821.6c19.9,10.16,36.07,21.56,50.21,35.02,10.23,9.75-1.52,12.6-8.13,14-31.27,6.62-42.15-2.63-42.09-34.84,0-3.73,0-7.47,0-14.19Z"/>
  <path class="cls-11" d="M716.56,841.64c-.85,26-22.15,39.92-44.95,29.13-9.57-4.53-14.33-10.59-2.67-18.33,10.71-7.12,21.43-14.3,32.6-20.65,15.44-8.77,15.62-8.44,15.02,9.86Z"/>
</svg>