<?xml version="1.0" encoding="UTF-8"?>
<svg id="Ebene_4" data-name="Ebene 4" xmlns="http://www.w3.org/2000/svg" viewBox="0 0 1132.66 1921.04">
  <defs>
    <style>
      .cls-1 {
        fill: #2c2834;
      }

      .cls-2 {
        fill: #ed9768;
      }

      .cls-3 {
        fill: #87dfcb;
      }

      .cls-4 {
        fill: #f2926a;
      }

      .cls-5 {
        fill: #bd957f;
      }

      .cls-6 {
        fill: #251a25;
      }

      .cls-7 {
        fill: #070b1c;
      }

      .cls-8 {
        fill: #573731;
      }

      .cls-9 {
        fill: #633226;
      }

      .cls-10 {
        fill: #c77d58;
      }

      .cls-11 {
        fill: #3e1c19;
      }

      .cls-12 {
        fill: #2e1f26;
      }

      .cls-13 {
        fill: #4a322e;
      }

      .cls-14 {
        fill: #ea8e6a;
      }

      .cls-15 {
        fill: #d0826c;
      }

      .cls-16 {
        fill: #0b0d17;
      }

      .cls-17 {
        fill: #774237;
      }

      .cls-18 {
        fill: #1d1924;
      }

      .cls-19 {
        fill: #f9ba87;
      }

      .cls-20 {
        fill: #f6a57a;
      }

      .cls-21 {
        fill: #482423;
      }

      .cls-22 {
        fill: #4c2a26;
      }

      .cls-23 {
        fill: #fdfcfc;
      }

      .cls-24 {
        fill: #13141e;
      }

      .cls-25 {
        fill: #f4956a;
      }

      .cls-26 {
        fill: #332126;
      }

      .cls-27 {
        fill: #72dbc2;
      }

      .cls-28 {
        fill: #eea67b;
      }

      .cls-29 {
        fill: #895b47;
      }

      .cls-30 {
        fill: #0f0d18;
      }

      .cls-31 {
        fill: #caaf8f;
      }

      .cls-32 {
        fill: #fdb885;
      }
    </style>
  </defs>
  <path class="cls-6" d="M526.72,1073.11c-22.6-28.49-40.55-59.1-45.18-96.12-.42-3.36-4.23-6.3-6.46-9.44-9.25-9.82-5.57-20.72-2.67-31.54,5.31-10.61,12.63-19.37,23.51-24.74,7.24,11.81,4.03,24.91,4.09,37.42.13,24.43,8.37,42.73,28.92,58.34,23.52,17.87,49.04,30.06,76.09,40.38,10.7,4.08,19.57,3.81,26.13-6.97,5.53-9.08,13.79-14.49,24.06-16.93,29.91-6.59,57.81-6.84,76.29,23.71,4.17,6.89,10.85,7.09,17.88,4.96,34.49-10.46,66.52-24.64,92.45-51.29,19.61-20.16,19.27-44.19,15.42-67.9-3.45-21.24-45.43-37.01-65.47-26.3-12.59,6.72-25.16,12.86-39.41,14.83-8.62,1.19-17.01-.04-20.19-9.14-3.39-9.71,3.77-14.74,11.34-18.62,7.16-3.67,14.46-7.09,23.35-14.94-25.87-9.87-49.08-20.69-74.07-27.38-10.23-2.74-21.45-3.81-28.6-13.33,2.69-10.72,12.14-8.67,19.55-10.05,5.92-1.1,12.18.32,18.04-1.73,4.63-1.61,9.19-4.04,8.83-9.63-.31-4.74-5-5.92-8.84-7.04-10.38-3.01-21.17-4.18-31.61-6.94-5.99-1.58-13.98-3.85-13.06-10.41,1.26-8.99,10.17-6.37,16.66-5.89,3.24.24,6.34,1.59,10.28,1.6-9.84-5.31-20.47-7.2-29.63-12.44-3.57-2.04-6.9-5.26-5.11-9.77,1.29-3.26,5.12-4.27,8.59-4.22,11.57.14,22.67,3.09,33.69,6.27,20.09,5.8,40.35,10.99,60.85,15.09,5.85,1.17,13.01,2.45,16.48-3.95,3.59-6.63-2.27-11.2-6.21-15.63-9.63-10.84-21.36-19.29-35.32-22.6-28.79-6.84-57.46-15.12-87.54-14.59-7.59,0-15.24.48-22.19-3.47-1.92-1.49-2.64-3.42-2.18-5.79,1.31-1.77,3-3.08,5.03-3.92,44.37-5.72,88.06-1.37,133.88,13.73-5.67-15.02-15.11-17.51-23.88-20.03-17.51-5.04-35.31-8.66-53.68-9.25-7.01-.22-17.42.34-16.8-9.79.58-9.57,10.88-8.86,17.91-8.57,32.65,1.38,64.03,8.66,93.92,22.06,6.58,2.95,12.67,7.49,22.57,7.78-3.42-27.07-18.46-46.4-34.19-65.39-5.5-6.64-13.61-11.36-15.31-20.79-1.39-3.05-2.72-6.12-4.19-9.13-2.07-4.25-4.82-8.99-.44-12.78,4.2-3.63,8.78-.53,13.06,1.45,59.05,27.4,109,65.58,145.28,120.55,20.76,31.45,30.7,66.62,37.94,102.91,11.24,37.18,2.77,71.96-20.51,100.47-11.8,14.45-22.4,26.31-21.13,45.47-13.55.22-12.57,11.4-14.89,19.92-8.6,31.56-15.46,64.13-44.83,84.46-6.97,4.82-4.67,8.11-.58,12.66,32.46,36.12,56.26,78.43,83.95,117.95,19.49,27.81,18.72,31.41-2.19,57.97-2.86,3.63-5.45,7.47-8.16,11.21-11.05,30.33-29.46,54.96-56.54,72.86-1.28-1.54-2.27-3.65-3.91-4.51-4.94-2.57-3.89,1.83-3.45,3.79,2.16,9.78,4.69,19.48,7.09,29.21-.97,12.9-1.45,27.09-16.33,31.6-16.84,5.11-36.46,4.81-47.21-9.3-19.27-25.31-46.81-23.44-72.61-28.54-5.25-1.04-10.77-.4-16.13-1.16-8.5-1.2-16.24-4.4-18.79-13.12-3.06-10.46,5.96-13.94,12.82-17.82,8.31-4.7,16.85-9.54,22.22-17.26,14.24-20.47,34.25-29.62,58.08-32.45,2.67-.32,5.28-1.09,7.91-1.7,27.75-6.48,36.12-26.65,20.65-50.64-7.92-12.28-20.42-7.22-31.44-7.19-3.35,0-6.65,1.1-9.96,1.66-24.82,1.68-49.81.77-74.52,4.88-6.58,1.1-13.5.65-20.17-.45-10.65-1.75-21.39-6.43-20.87-18.02.43-9.64,12.03-8.42,19.69-9.67,3.82-.63,8.06.52,13.46-5.55-24.59-24.81-45.67-53.06-78.02-70.18-3.35,7.01.92,10.53,2.64,14.64,2.57,6.11,8.1,14.21.86,18.02-8.82,4.64-11.66-5.89-15.59-11.55-2.67-3.85-4.94-8.16-6.38-12.61-8.52-26.26-25.98-45.21-48.4-60.26-2.81-1.88-5.27-4.19-6.66-7.42Z"/>
  <path class="cls-12" d="M758.18,1227.25c12.68-7.05,26.44-3.3,39.75-3.9,4.49-.2,7.61,2.05,8.99,6.56.98,3.22,2.74,6.27,3.3,9.54,9.15,53.82,10.71,43.83-39.46,56.06-19.25,4.69-36.63,7.76-47.79,27.66-5.32,9.48-18.96,14.28-28.81,21.23-4.12,2.9-12.17,3.16-10.83,9.96,1.41,7.17,7.96,11.08,15.38,10.44,21.91-1.87,42.45,6.25,63.78,8.01,10.07.83,15.71,5.36,20.7,13.47,10.55,17.17,32.65,24.92,51.02,18.71,13.34-4.51,7.28-21.12,17.23-27.78,1.93,3.36,4.08,6.62,5.74,10.11,15.52,32.5,15.58,32.71-16.17,46.22-4.5,1.91-6.06,4.28-6.68,8.35-35.34,15.81-71.53,27.75-111.07,24.71-17.95-6.04-26.47-21.43-34.98-36.38-6.87-12.08-13.45-24.43-18.23-37.57,1.89-17-4.63-23.91-22.68-22.81-17.41,1.06-34.77-3.97-52.32-4.87-6.23-.32-13.74-1.75-15.54,5.58-4.87,19.8-22.28,29.92-33.1,45.06-10.68,14.95-11.16,16.11,5.88,24.82,18.24,9.33,37.45,15.32,58.03,16.45,6.04.33,12.23.05,17.52,3.87-6.04,8.44.28,16.91-.14,25.25-.9,17.64-10.72,32.5-17.19,48.39-.64,2.6-.92,5.92-2.92,7.31-22.23,15.43-20.44,40.02-24.14,62.53-5.25,28.09-25.04,39.65-50.66,44.67-6.53,1.39-13.13,1.71-19.73,1.23-10.07-.73-20.48-1.88-24.88-12.76-4.43-10.96,1.58-18.96,9.62-25.76,8.53-11.62,13.5-24.49,14.73-38.96.84-9.78,1.77-16.35-8.7-24.88-10.45-8.5-10.09-27.61-8.97-42.17,1.49-19.28,5.41-38.56,10.25-57.34,3.2-12.42.21-17.31-12.16-18.63-18.66-1.99-24.28-12.31-20.76-30.76,3.34-17.52,3.73-35.6,5.41-53.44-3.97-4.44-3.6-9.52-2.25-14.75,9.96-14.6,26.15-17.73,43.4-23.09-27.27-17.51-33.96-46.99-46.63-72.89-5.97-12.2-4.48-21.96,7.11-29.75,2.78-1.87,5.14-4.36,7.75-6.51,20.5-16.83,21.39-16.94,37.47,4.69,10.09,13.57,20.52,27.05,32.25,38.96,13.71,13.92,13.71,26.31,2.71,40.82-2.37,3.12-4.91,6.51-4.98,12.49,11.29.52,19.54,5.72,23.12,17.62,2.48,8.26,10.68,9.47,18.02,10.98,16.32,6.25,17.37-11.73,26.57-16.76,8.03,4.48,17.9,6.01,23.12,14.97,2.25,3.85,5.64,6.49,9.25,1.53,2.6-3.57,2.32-7.55-1.18-10.85-4.84-4.55-13.35-3.23-16.78-10.62,4.69-9.07,13.56-6.46,21.09-7.33,2.66-.31,5.37-.07,8.06-.09,57.48-.27,65.71-5.91,86.69-59.4,1.26-3.22,3.5-5.69,5.75-8.18Z"/>
  <path class="cls-13" d="M758.18,1227.25c-4.04,14.77,1.61,34.25-19.72,40.63-9.7,45.99-45.87,30.78-74.76,32.22-7.36.37-14.75.06-25.73.06,9.46,5.87,18.66,2.93,23.95,9.1,6.41,7.48-.3,14.13-2.4,20.56-2.22,6.78-14.05,8.21-14.36,5.45-1.79-16.06-20.66-14.71-25.1-26.99-13.08.67-24.22,3.62-23.85,20.18-12.1-1.25-24.67-1.14-25.04-18.88-.15-7.08-5.97-10.1-13.26-8.28-4.27,1.07-9.46,5.32-12.36-.62-2.22-4.53,1.73-9.17,4.58-12.68,13.57-16.74,17.94-31.76-1.9-48.18-11.15-9.23-18.23-23.21-28.52-33.72-5.06-5.17-4.57-20.04-17.01-14.07-20.78,9.97-31.09,27.6-25.31,40.95,7.49,17.29,16.23,34.04,23.55,51.4,4.54,10.74,14.49,13.39,23.1,18.32,2.91,1.67,6.6,3.3,5.3,7.29-.68,2.09-4.12,5.22-5.51,4.85-17.96-4.78-29.85,9.6-44.9,13.75-5.94-6.65-1.51-14.18-1.75-21.29-1.14-34.05-9.99-63.88-43.44-80.47-2.76-1.71-4.77-3.88-4.51-7.42,9.68-15.25,19.18-30.61,29.1-45.7,6.94-10.56,11.56-20.67,12.99-34.37,2.14-20.46,20.06-33.92,33.77-48.42,6.37-6.73,14.37-11.92,21.64-17.8,25.05,10.69,43.83,27.46,54.15,53.38,5.16,12.95,12.17,25.16,20.67,36.71,2.3-10.44-7.15-16.53-9.55-25.16-1.21-4.34-5.47-8.62-.27-12.67,3.94-3.06,7.67.25,11.15,1.86,20.06,9.3,34.47,25.52,49.63,40.81,9.02,9.1,18.06,18.18,27.11,27.26,4.01,4.03,6.94,8.67,4.83,14.45-2.58,7.07-8.51,5.65-13.58,3.83-8.49-3.05-15.41,1.88-23.77,3.11,10.34,21.32,29.7,15.77,44.71,13.58,22.24-3.25,44.25-2.48,66.38-3.03Z"/>
  <path class="cls-9" d="M616.43,720.64c8.09.03,16.18.05,24.28.08,5.58,7.04,2.82,13.1-3.38,17.19-9.44,6.22-21.64,7.83-28.95,17.79-6.71,9.14-11.43,19.85-22.71,25.94,7.72,5.25,19.46,4.7,16.56,16.49-2.3,9.33-10.93,11.1-19.11,12.29-7.36,1.07-14.84.39-22.24.83-15.2.9-29.38,5.05-40.62,15.73-11.97,11.37-21.7,24.4-36.67,33.44-13.38,8.07-27.17,19.45-22.95,40.86,1.71,8.68-7.45,15.06-17.98,14.47-17.5-26.62-23.13-55.05-13.21-85.87,9.92-99.24,119.45-184.44,211.58-202.47,26.93-5.27,54.09-11.21,81.81-4.53-7.32,7.78-6.19,13.77,3.41,18.7,8.97,4.61,18.17,8.71,27.26,13.04,6.39,3.04,15.8,5.41,13.44,14.78-2.23,8.81-11.66,7.34-18.81,7.97-5.35.47-10.87.55-16.06-.74-18.21-4.51-36.29-3.19-53.65,2.7-23.43,7.94-48.34,7.87-71.94,14.45-2.5,1.14,2.25,3.45.38,1.5-.6-.63-.21-1.17,1.2-1.59,10.97-3.27,21.99-6.17,33.62-5.3,5.49.41,11.27.74,12.52,7.54,1.11,6.01-2.72,10.13-7.07,13.53-7.84,6.14-18.17,3.23-26.65,7.12-1.34.05-2.69.07-4.03.08-10.28,7.7-23.37,3.04-31.99,8.28,9.05-2.23,20.36-4.62,31.97-4.29Z"/>
  <path class="cls-5" d="M534.6,1644.17c21.01-6.64,40.13-15.39,44.81-40.22,33.41-2.26,66.84-5.04,100.33-3.05,28.9,1.72,57.77.51,86.61.75,9.45-.39,11.4,7.11,14.74,13.63,9.8,19.15,38.23,29.2,58.26,22.41,11.33-3.85,6.75-14.84,12.06-21.01,36.88,2.97,73.55,7.56,109.44,16.64,8.69,2.2,22.01,4.2,22.55,14.11.66,12.17-13.74,13.62-22.63,16.23-31.69,9.31-64.48,13.73-97.24,16.93-26.75,2.62-53.55,6.35-80.6,4.88-11.62-8.36,5.74-7.52,3.89-13-.94-1.78-3.01-1.59-4.77-1.54-67.8,1.55-135.35-2.8-202.83-8.57-16.51-1.41-33.96-1.84-44.63-18.18Z"/>
  <path class="cls-31" d="M534.6,1644.17c26.6,16.32,57.28,13.7,86.09,15.78,52.31,3.78,104.84,6.91,157.46,5.24,8.74-.28,23.56-5.32,25.43,3.83,2.18,10.7-14.01,8.09-21.25,12.91-.4.27-.57,1.26-.46,1.84.12.61.7,1.13,1.08,1.69-7.23,5.22-15.64,3.41-23.52,3.43-79.54.15-159.16,2.09-238.61-.66-63.67-2.21-127.63-5.33-190.32-19.22-11.24-2.49-22.1-5.66-32.31-11.03-13.36-7.02-10.78-14.25.5-19.81,17.09-8.43,36.04-10.76,54.58-13.54,47.92-7.18,96.29-9.7,144.58-13.03-12.01,30-10.36,32.36,22.69,32.43,4.69.01,9.39.1,14.08.15Z"/>
  <path class="cls-18" d="M851.4,1616.68c6.2,23.29,3.98,26.33-20.01,27.48-36.46,1.75-50.64-7.82-60.11-40.53-.54-.38-1.51-.7-1.57-1.15-4.19-29.06-20.86-51.25-39.77-72.22-13.55-21.35-15.16-44.15-8.22-67.97,34.15,2.15,65.75-9.1,97.64-18.69,4.99-1.5,9.46-5.5,14.97-1.71,6.99,21.03,13.2,42.46,14.26,64.55.83,17.27,3.77,36.45-15.23,48.13-5.11,3.14-2.77,8.47-2.33,12.94,1.84,18.41,8.49,34.89,20.36,49.18Z"/>
  <path class="cls-27" d="M219.28,947.58c47.01,92.39,94.09,184.74,140.88,277.25,2.83,5.6,3.31,12.4,4.89,18.64-6.26,14.75-17.08,20.06-32.55,15.71-26.84-37.43-42.86-80.47-62.61-121.53-27.06-56.26-52.92-113.1-79.29-169.69,1.28-13.37,2.88-26.53-5.02-39.03-3.54-5.6-5.15-14.13,2.69-17.49,6.53-2.8,11.39,3.5,13.6,9.15,4.01,10.29,11.17,18.31,17.43,27.01Z"/>
  <path class="cls-3" d="M219.28,947.58c-15.72-5.87-19.32-22.44-29.91-34.1-1.25,18.73,20.83,36.32,1.21,54.47-19.58-29.28-31.15-62.56-46.23-94.04-26.17-54.65-50.48-110.2-74.93-165.65-4.26-9.66-5.74-20.62-7.84-31.11-.96-4.8.62-9.8,5.94-11.52,4.56-1.48,7.68,2.11,10.03,5.27,4.41,5.93,8.93,11.93,12.27,18.48,42.6,83.43,85.01,166.95,127.38,250.5,1.18,2.32,1.4,5.12,2.07,7.7Z"/>
  <path class="cls-22" d="M620.48,716.57c7.14-6.56,18.47-3.85,25.19-11.36,2.57-2.87,6.97-5.18,4.64-9.96-1.75-3.61-5.83-2.25-8.98-2.92-15.22-3.2-29.75,6.87-50.87,1.61,61.3-10.36,114.61-35.15,174.02-20.32.15-2.36.29-4.73.44-7.09-15.21-7.39-30.45-14.73-45.63-22.21-6.13-3.02-13.2-6.66-12.62-14.22.78-10.33,10.7-4.78,16.17-7.23,7.36-.05,14.73-.09,22.09-.14,28.29,20.6,46.28,48.23,55.86,81.64,1.31,4.57,3.82,9.65-.19,13.28-4.45,4.02-8.98-.51-12.72-2.62-32.86-18.52-68.54-27.29-105.72-30.54-5.97-.52-13.24-2.94-20.94,5.93,24.32,2.35,46.63,3.45,68.07,9.71,10.55,3.08,20.41,6.87,28.5,14.35,4.36,4.03,5.99,9.53,2.91,14.71-2.91,4.89-8.34,4.01-12.76,2.17-41.09-17.13-84.35-15.26-127.45-14.79Z"/>
  <path class="cls-2" d="M429.23,1219.41c1.62,1.22,3.23,2.45,4.85,3.67,25.18,38.38,36.39,78.85,20.56,124.26-4.57,13.11-11.34,22.37-24.98,25.9l-1.72.43-1.74-.34c-7.26-1.86-9.26-9.03-13.85-13.59-16.86-16.6-23.92-38.37-30.1-60.15-2.09-7.38-2.27-15.86-2.62-23.92,3.42-8.06,3.11-17.75,10.49-24.08,20.38-1.81,30.16-16.49,39.1-32.2Z"/>
  <path class="cls-1" d="M417.25,1357.28c2.98,5.35,5.96,10.7,8.94,16.06,9.26,15.2,9.58,34.45,23.78,47.87,7.17,6.78,13.22,18.24,9.64,28.59-3.63,10.46-14.03,15.59-25.33,17.65-10.12,1.85-15.75-1.2-19.92-11.39-6.58-16.1-8.94-33.39-20.66-48.43-6.38-8.19-1.98-25.25-12.87-34.89-.88-2.07-1-4.18-.38-6.34,9.57-13.9,22.14-15.72,36.8-9.11Z"/>
  <path class="cls-10" d="M429.66,1373.24c24.99-19.4,28.18-47.58,26.55-75.4-1.35-23.1-7.98-46.07-22.68-65.38-2.51-3.3-.51-6.31.55-9.39,18.23-.56,25.27,14.05,32.83,26.08,15.33,24.4,19.48,51.22,12.03,79.43-.43,5.61-.87,11.22-1.31,16.83-13.21,14.07-23.39,33.36-47.97,27.83Z"/>
  <path class="cls-14" d="M894.95,971.66c-1.88-7.05-4.07-14.03-5.57-21.16-1.84-8.75-.87-12.24,10.42-16.71,23.26-9.21,28.44-33.81,32.35-56.26,2.96-17.01,3.07-34.52,4.45-51.81,19.24,16.94,16.45,40.05,15.64,61.63-1.78,47.7-21.87,76.04-57.29,84.3Z"/>
  <path class="cls-21" d="M851.71,1348.7c20.59-22.93,39.35-47.29,56.54-72.86,8.95,14.11,16.4,28.92,21.24,44.97,1.69,4.82.87,9.49-2.44,13.06-17.51,18.87-35.28,37.49-63.18,40-4.05-8.39-8.1-16.78-12.16-25.17Z"/>
  <path class="cls-19" d="M429.45,829.87c1.48,29.27.41,59.03,16.76,85.38,9.76,8.2,21.32,13.77,31.47,21.4-5.84,9.88-2.16,20.56-2.61,30.9-6,8.11-12.49,2.24-17.93-.17-41.14-18.27-58.24-103.98-27.7-137.5Z"/>
  <path class="cls-4" d="M863.87,1373.87c25.11-13.69,51.79-25.44,65.63-53.06,11.86,16.67,19.32,34.25,7.89,54.01-8.71,15.06-22.21,22.53-39.95,22.69-17.14.16-27.47-8.54-33.57-23.64Z"/>
  <path class="cls-24" d="M390.12,1251.61c-1.43,8.63.89,18.57-8.48,24.45-6.49,9.9-6.87,26.2-25.02,23.96-2.87-.56-5.29-1.83-6.89-4.39-3.43-7.25-11.01-5.85-16.8-8.31-8.03-3.41-17.02-9.84-18-16.99-1.3-9.55,12.34-5.86,17.56-11.15,12.34-2.15,23.34-7.09,32.56-15.71,1.2-.56,2.4-1.1,3.59-1.68,6.33-3.09,9.65-14.04,17.9-10.35,8.49,3.81,1.35,13.48,3.59,20.16Z"/>
  <path class="cls-28" d="M349.73,1295.63c2.25.46,4.5.93,6.75,1.39,11.95.07,18.18,5.86,18.51,18.01.49,18.25,15.06,34.71,6.94,54.09-.33,1.22-.7,2.43-1.1,3.62-32.54-25.76-41.89-48.94-31.1-77.12Z"/>
  <path class="cls-32" d="M656.92,1027.78c-10.96,2.89-20.44,8.65-24.16,19.44-4.07,11.8-11.84,11.53-20.66,8.57-37.18-12.49-71.91-29.51-101.58-55.81-12.33-10.93-14.01-25.65-14.9-40.42-.97-16.11-.7-32.3-.96-48.45-15.33-37.07,18.3-92.82,57.33-94.66,10.69-.51,21.54-1.36,32.04,1.95,10.16,7.19,2.41,14.11-.35,21.12-5.72,3.6-11.72,1.59-17.62.69-9.83-1.49-18.69,1.07-26.85,6.3-5.08,3.25-11.85,7.02-10.24,13.54,1.98,8.05,9.89,4.63,15.39,4.02,23.29-2.61,42.97,9.15,63.96,15.64,8.81,2.72,17.01,8.31,28.02,5.43-.05-8.77-7.67-11.76-12.3-16.77-4.76-5.14-12.91-9.21-5.89-18.23,25.51-11.74,48.42-3.32,69.7,10.42,11.19,7.22,12.69,20.38,10.69,32.66-4.66,28.63-2.76,57.37-2.75,86.04-1.86,10.11-10.5,8.33-17.37,9.95-8.56,2.03-19.66.33-21.14,13.46,3.61,8.43,2.36,16.78-.37,25.11Z"/>
  <path class="cls-25" d="M656.92,1027.78c-8.88-6.6,2.64-16.32-3.57-23.32.13-12.06,10.75-9.46,17.2-11.38,11.11-3.3,22.64-2.43,33.51.83-3.63-2.86-9.71-3.86-10.64-10.19-8.44-24.22-3.68-49.21-3.28-73.74.26-15.56,10.58-33.06-5.16-44.82-18.78-14.04-41.24-18.2-64.7-12.5-1.93.47-3.72,1.53-5.57,2.32-13.16.33-24.59-2.71-30.84-15.83-3.99-6.81-2.55-12.25,4.14-16.36.94-1.89,2.61-3.83,4.44-3.6,25.04,3.17,50.16,6.19,72.95,18.33,37.1,11.36,74.24,22.62,110.16,39.7-7.58,10.98-19.84,16.09-31.52,22.07-4.3,2.2-11.81,2-10.17,9.88,1.57,7.55,8.52,8.65,14.31,8.22,12.9-.95,25.29-4.95,35.86-12.46,20.41-14.51,38.17-8.1,57.68,3.27,19.74,11.51,23.98,26.2,23.66,48.18-.47,32.89-18.53,52.12-42.51,68.48-22.95,15.65-48.8,25.38-75.11,34.06-11.52,3.8-18.78,3.41-22.2-10.36-3.01-12.13-12.38-17.75-24.67-20.81-14.94-3.73-29.33-2.25-43.98.06Z"/>
  <path class="cls-22" d="M665.42,837.5c-25.8-4.91-51.6-9.82-77.39-14.73-58.76-10.81-86.37,11.18-93.36,88.33-1.32,11.4-15.13,14.5-16.98,25.54-15.73.57-27-5.43-31.48-21.4,6.64-7.88,14.95-14.44,8.69-27.38-3.37-6.97.67-15.36,8.09-18.79,8.24-3.8,16.44-6.52,16.27-17.62,26.11-.19,29.01-30.91,50.37-38.11,12.89-4.34,25.2-9.06,39.11-7.76,6,.56,12.24.49,18.17-.52,5.11-.87,11.76-2.31,12.01-8.84.32-8.37-7.12-5.89-12-6.68-4.38-.71-10.94,2.16-12.52-3.43-2.14-7.57,5.45-7.48,10.13-9.45,5.89-2.49,9.62-7.17,12.27-12.87,6.6-14.19,16.16-24.89,32.69-27.02,9.78-1.26,11.52-7.9,11.22-16.07,34.34,1.37,67.75,7.37,99.99,19.54,13.18,4.97,21.95,15.28,31.53,24.74,5.26,5.2,8.05,11.07,4.79,18.15-3.1,6.73-9.68,6.84-15.77,6.31-23.56-2.06-45.77-10.11-68.54-15.69-13.31-3.26-26.76-5.96-40.72-6.96,14.06,10.54,33.29,10.97,48,25.43-15.57,5.25-27.31-3.65-43.69-1.31,16.07,9.76,31.21,7.77,44.1,12.74,7.04,2.71,21.18-1.43,19.39,12.09-1.72,12.92-12.48,18.98-25.44,17.77-10.15-.94-19.75-.82-28.93,3.98Z"/>
  <path class="cls-20" d="M686.41,1069.94c-9.91-1.25-19.83-2.46-29.74-3.75-5.04-.66-9.04-2.76-9.51-8.44-.46-5.53.77-10.21,5.91-13.75,12.76-8.8,48.77-4.4,57.7,7.71,2.99,4.06,7.92,8.51,4.71,14.11-2.66,4.62-8.42,2.88-12.91,3.13-5.34.3-10.7.07-16.06.07-.04.31-.07.62-.11.93Z"/>
  <path class="cls-15" d="M707.65,1127.58c-.81,2.7-.89,4.13-1.59,5.11-8.29,11.67-11.8,32.85-26.51,32.23-16.75-.71-18.09-22.79-27.87-37.34h55.97Z"/>
  <path class="cls-22" d="M616.43,720.64c-11.02,8.17-24.8,1.16-36.33,6.89,10.82-8.3,23.19-10.91,36.34-10.88-.03,1.33-.03,2.66-.01,3.99Z"/>
  <path class="cls-23" d="M737.72,1529.38c-.75,5.84,1.84,12.54,5.77,14.07,29.12,11.28,23.92,37.71,27.79,60.18-2.97,4.92-7.89,4.33-12.52,4.32-56.22-.09-112.44-.21-168.66-.34-3.95,0-8.16.58-10.69-3.65,1.41-12.65,3.41-25.28,4.04-37.98.45-8.9,2.63-15.74,11.79-18.54,8.19-2.51,10.65-9.29,12.73-16.44,3.99-5.95,9.72-9.59,16.69-9.63,36.5-.18,73.16-4.74,109.36,3.99,2.66.64,2.62,2.57,3.69,4.03Z"/>
  <path class="cls-8" d="M628.71,1462.53c-32.6,1.96-62.16-7.53-90.45-22.98-10.35-5.65-13.83-11.57-3.36-19.04,13.13-9.38,16.04-28.3,32.78-33.99,1.08-.37,1.99-1.85,2.55-3.01,4.73-9.85-2.26-30.05,19.36-25.01,12.11,2.82,24.33.23,35.88,3.67,7.95,2.37,15.79,2.85,23.87,2.9q28.74.19,23.56,27.88c-7.17,19.4-16.31,37.9-26.85,55.63-3.82,6.43-6.94,15.11-17.34,13.96Z"/>
  <path class="cls-7" d="M628.71,1462.53c16.01-14.22,22.8-34.02,31.21-52.68,3.13-6.95,6.27-13.08,12.98-16.91,10.01,17.2,19.67,34.62,30.2,51.5,4.55,7.29,10.87,13.5,18.62,17.84-.51,16.85,6.83,33.12,4.07,50.06-1.63,10.01,10.31,9.73,11.92,17.03-43.28-2.35-86.57-4.7-129.74,1.61,3.74-10.04,7.83-19.97,11.11-30.16,2.74-8.51,7.8-16.92,1.62-26.36-6.16-9.41,6.7-7,8.02-11.93Z"/>
  <path class="cls-29" d="M596.21,1328.46c-3.54-6.5-7.53-14-1.62-20.06,7.59-7.79,16.92-4.47,25.47-.12-.49,15.54-4.4,27.03-23.85,20.18Z"/>
  <path class="cls-13" d="M674.12,1308.87c6.78.58,10.56,3.67,10.31,8.8-.36,7.32-2.49,15.35-10.73,16.86-4.83.88-4.7-5.38-4.47-9.16.37-6.01-2.26-13.39,4.89-16.5Z"/>
  <path class="cls-13" d="M705.35,1322.13c-1.6,5.35-2.05,12-8.24,12.33-6.92.37-7.59-6.07-7.53-11.39.06-4.94-1.03-11.99,6.44-11.79,5.66.15,8.02,5.85,9.33,10.85Z"/>
  <path class="cls-17" d="M381.94,1369.12c-.6-21.82-15.87-40.34-13.85-62.92.6-6.72-8.5-5.02-11.6-9.18,5.67-2.52,16.02,1.59,14.13-11.48-.91-6.32,6.03-7.76,11.03-9.48,3.36,6.01,7.26,10.34,6.11,19.49-1.12,8.9-4.21,23.75,10.84,28.83,2.9.98,4.6,2.88,3.61,5.96-4.63,14.42,6.89,19.72,15.05,26.94-13.06.11-26.02.51-35.31,11.84Z"/>
  <path class="cls-26" d="M583.88,839.13c10.28,5.28,20.56,10.55,30.84,15.83,8.85,7.14,17.87,14.09,26.48,21.5,3.4,2.93,7.42,6.48,4.26,11.97-2.72,4.73-7.34,6.08-12.16,4.74-9.01-2.51-17.98-5.29-26.69-8.67-24.38-9.46-48.33-19.91-75.73-14.29-11.72,2.4-14.41-2.77-8.65-13.44,10.7-19.8,27.4-24.82,61.66-17.63Z"/>
  <path class="cls-16" d="M560.9,975.15c-15.18.4-28.8-12.03-29.54-26.96-.77-15.75,12.01-28.49,29.12-29,16.79-.5,31.17,12,31.21,27.13.04,14.26-15.08,28.41-30.79,28.83Z"/>
  <path class="cls-11" d="M693.42,983.71q18.29,7.82,28.66,20.57c-24.07-7.53-46.7-14.01-68.72.17-3.4-.73-11.2,2.74-4.83-6.4,11.52-16.54,28.74-13.38,44.9-14.34Z"/>
  <path class="cls-30" d="M782.78,919.03c15.3-.22,30.26,12.93,30.42,26.75.17,14.7-14.96,28.8-30.81,28.74-16.49-.07-28.48-11.83-28.29-27.75.19-15.68,12.41-27.5,28.68-27.74Z"/>
</svg>