<?xml version="1.0" encoding="UTF-8" standalone="no"?>
<!-- Created with Inkscape (http://www.inkscape.org/) -->

<svg
   version="1.1"
   id="svg363"
   xml:space="preserve"
   width="682.66669"
   height="682.66669"
   viewBox="0 0 682.66669 682.66669"
   xmlns="http://www.w3.org/2000/svg"
   xmlns:svg="http://www.w3.org/2000/svg"><defs
     id="defs367"><clipPath
       clipPathUnits="userSpaceOnUse"
       id="clipPath377"><path
         d="M 0,512 H 512 V 0 H 0 Z"
         id="path375" /></clipPath></defs><g
     id="g369"
     transform="matrix(1.3333333,0,0,-1.3333333,0,682.66667)"><g
       id="g371"><g
         id="g373"
         clip-path="url(#clipPath377)"><g
           id="g379"
           transform="translate(446.6621,85.186)"><path
             d="m 0,0 c 40.621,45.31 65.338,105.172 65.338,170.814 0,141.385 -114.615,256 -256,256 -141.385,0 -256,-114.615 -256,-256 0,-65.642 24.717,-125.504 65.338,-170.814 z"
             style="fill:#81c66d;fill-opacity:1;fill-rule:nonzero;stroke:none"
             id="path381" /></g><g
           id="g383"
           transform="translate(421.3652,482.2295)"><path
             d="m 0,0 -14.228,-28.455 c -5.293,-10.587 -16.114,-17.274 -27.951,-17.274 h -246.373 c -11.836,0 -22.657,6.687 -27.95,17.274 L -330.73,0 c -1.309,2.617 -3.984,4.271 -6.91,4.271 -4.266,0 -7.725,-3.459 -7.725,-7.726 v -29.774 c 0,-34.518 27.982,-62.5 62.5,-62.5 h 235 c 34.517,0 62.5,27.982 62.5,62.5 v 29.774 c 0,4.267 -3.459,7.726 -7.726,7.726 C 3.983,4.271 1.309,2.617 0,0"
             style="fill:#e9efff;fill-opacity:1;fill-rule:nonzero;stroke:none"
             id="path385" /></g><g
           id="g387"
           transform="translate(373.5,411.5)"><path
             d="m 0,0 h -235 c -34.518,0 -62.5,27.982 -62.5,62.5 v -25 c 0,-34.518 27.982,-62.5 62.5,-62.5 H 0 c 34.518,0 62.5,27.982 62.5,62.5 v 25 C 62.5,27.982 34.518,0 0,0"
             style="fill:#bec8f7;fill-opacity:1;fill-rule:nonzero;stroke:none"
             id="path389" /></g><g
           id="g391"
           transform="translate(124.373,36.4204)"><path
             d="m 0,0 c 38.463,-23.112 83.485,-36.42 131.627,-36.42 48.142,0 93.164,13.308 131.627,36.42 V 76.324 H 0 Z"
             style="fill:#bec8f7;fill-opacity:1;fill-rule:nonzero;stroke:none"
             id="path393" /></g><g
           id="g395"
           transform="translate(369.25,87.6855)"><path
             d="m 0,0 v 80.231 c -33.043,9.188 -69.555,15.202 -69.555,15.202 h -43.695 -43.695 c 0,0 -36.512,-6.014 -69.555,-15.202 V 0 c 27.537,-31.597 68.045,-51.593 113.25,-51.593 45.204,0 85.713,19.996 113.25,51.593"
             style="fill:#543e5b;fill-opacity:1;fill-rule:nonzero;stroke:none"
             id="path397" /></g><g
           id="g399"
           transform="translate(417,148)"><path
             d="m 0,0 c -11.752,10.376 -44.419,19.687 -72.305,26.11 v -68.963 c 0,-16.516 6.561,-32.355 18.24,-44.034 l 24.692,-24.693 c 22.052,13.251 41.955,29.714 59.035,48.766 C 19.954,-34.439 9.048,-7.988 0,0"
             style="fill:#e9efff;fill-opacity:1;fill-rule:nonzero;stroke:none"
             id="path401" /></g><g
           id="g403"
           transform="translate(396.5156,61.1133)"><path
             d="m 0,0 c -11.678,11.679 -18.239,27.518 -18.239,44.034 v 60.145 c -10.891,3.312 -22.605,6.29 -33.581,8.818 V 44.034 c 0,-16.516 6.56,-32.355 18.238,-44.034 l 24.693,-24.693 c 6.935,4.168 13.657,8.653 20.146,13.436 z"
             style="fill:#dae2fe;fill-opacity:1;fill-rule:nonzero;stroke:none"
             id="path405" /></g><g
           id="g407"
           transform="translate(95,148)"><path
             d="m 0,0 c 11.752,10.376 44.419,19.687 72.305,26.11 v -68.963 c 0,-16.516 -6.561,-32.355 -18.239,-44.034 L 29.373,-111.58 C 7.321,-98.329 -12.583,-81.866 -29.663,-62.814 -19.955,-34.439 -9.047,-7.988 0,0"
             style="fill:#e9efff;fill-opacity:1;fill-rule:nonzero;stroke:none"
             id="path409" /></g><g
           id="g411"
           transform="translate(114.6631,127.9209)"><path
             d="M 0,0 C 9.052,7.992 30.515,15.351 52.642,21.247 V 46.189 C 24.756,39.766 -7.911,30.456 -19.663,20.079 -28.71,12.091 -39.618,-14.36 -49.326,-42.735 c 6.232,-6.951 12.845,-13.554 19.795,-19.786 C -19.891,-34.447 -8.961,-7.912 0,0"
             style="fill:#dae2fe;fill-opacity:1;fill-rule:nonzero;stroke:none"
             id="path413" /></g><g
           id="g415"
           transform="translate(362.9883,291.8789)"><path
             d="M 0,0 C 0,0 10.97,26.71 30.525,20.51 50.081,14.309 30.053,-43.573 -8.108,-47.219 Z"
             style="fill:#f9ba8f;fill-opacity:1;fill-rule:nonzero;stroke:none"
             id="path417" /></g><g
           id="g419"
           transform="translate(149.0122,291.8789)"><path
             d="m 0,0 c 0,0 -10.97,26.71 -30.526,20.51 -19.556,-6.201 0.473,-64.083 38.634,-67.729 z"
             style="fill:#fcad6d;fill-opacity:1;fill-rule:nonzero;stroke:none"
             id="path421" /></g><g
           id="g423"
           transform="translate(397.3857,240.4199)"><path
             d="m 0,0 c -9.391,12.862 -29.787,44.699 -29.787,78.571 h -112.66 -112.659 c 0,-33.872 -20.397,-65.709 -29.788,-78.571 -2.332,-3.194 -0.22,-7.687 3.726,-7.943 4.884,-0.318 11.493,0.524 18.686,5.02 0,0 -11.718,-33.388 -7.306,-60.949 0.691,-4.313 6.2,-5.724 8.887,-2.28 l 9.687,12.42 c 0,0 -2.213,-42.899 28.898,-75.103 2.769,-2.867 7.632,-1.415 8.451,2.486 l 4.453,21.2 c 0,0 15.353,-49.53 63.295,-68.501 2.353,-0.932 4.987,-0.932 7.34,0 47.942,18.971 63.296,68.501 63.296,68.501 l 4.452,-21.2 c 0.819,-3.901 5.682,-5.353 8.452,-2.486 31.11,32.204 28.897,75.103 28.897,75.103 l 9.688,-12.42 c 2.686,-3.444 8.195,-2.033 8.886,2.28 4.412,27.561 -7.305,60.949 -7.305,60.949 7.192,-4.496 13.802,-5.338 18.685,-5.02 C 0.22,-7.687 2.332,-3.194 0,0"
             style="fill:#ff4155;fill-opacity:1;fill-rule:nonzero;stroke:none"
             id="path425" /></g><g
           id="g427"
           transform="translate(134.9038,237.4971)"><path
             d="m 0,0 c 0,0 -11.718,-33.388 -7.306,-60.949 0.691,-4.313 6.2,-5.724 8.887,-2.28 l 9.687,12.419 c 0,0 -2.213,-42.898 28.898,-75.102 2.769,-2.867 7.632,-1.415 8.451,2.486 l 4.453,21.2 c 0,0 15.352,-49.527 63.291,-68.5 2.358,-0.933 4.998,-0.93 7.356,0.003 20.888,8.269 35.585,22.339 45.525,35.583 -12.004,14.634 -17.759,32.914 -17.759,32.914 l -4.614,-21.97 c -0.784,-3.729 -5.309,-5.272 -8.169,-2.754 -27.63,24.316 -31.789,58.636 -31.789,58.636 V 81.494 H 7.375 c 0,-33.876 -20.401,-65.716 -29.79,-78.576 -2.331,-3.191 -0.22,-7.681 3.724,-7.938 C -13.807,-5.338 -7.196,-4.498 0,0"
             style="fill:#e80054;fill-opacity:1;fill-rule:nonzero;stroke:none"
             id="path429" /></g><g
           id="g431"
           transform="translate(208.9971,177.5957)"><path
             d="m 0,0 c -0.217,2.882 -0.243,5.719 -0.149,8.401 0.173,4.934 6.645,6.58 9.26,2.391 10.172,-16.293 23.707,-19.205 23.707,-19.205 1.522,10.309 6.528,18.656 10.162,23.561 2.006,2.706 6.041,2.706 8.045,0 3.635,-4.905 8.641,-13.252 10.163,-23.561 0,0 13.535,2.912 23.707,19.205 2.615,4.189 9.087,2.543 9.26,-2.391 C 94.249,5.719 94.223,2.882 94.006,0 c 0,0 47.306,39.913 49.336,109.179 1.608,54.873 -41.775,101.189 -96.671,101.004 C -6.42,210.004 -49.403,166.91 -49.403,113.777 -49.403,41.683 0,0 0,0"
             style="fill:#f9d0b4;fill-opacity:1;fill-rule:nonzero;stroke:none"
             id="path433" /></g><g
           id="g435"
           transform="translate(207.0879,299.8086)"><path
             d="m 0,0 v 74.651 0.001 C -28.423,57.883 -47.494,26.954 -47.494,-8.436 c 0,-72.094 49.403,-113.777 49.403,-113.777 -0.217,2.882 -0.243,5.719 -0.149,8.401 0.173,4.934 6.645,6.58 9.26,2.392 C -2.259,-69.888 0,0 0,0"
             style="fill:#f9ba8f;fill-opacity:1;fill-rule:nonzero;stroke:none"
             id="path437" /></g><g
           id="g439"
           transform="translate(280.6904,262.9253)"><path
             d="m 0,0 c -9.767,1.028 -16.714,-2.888 -20.701,-6.175 -2.311,-1.905 -5.669,-1.905 -7.979,0 -3.987,3.287 -10.934,7.203 -20.7,6.175 -10.14,-1.067 -30.934,-19.784 -45.137,-33.706 -4.524,-4.434 -0.529,-12.031 5.684,-10.795 20.197,4.018 50.075,9.443 64.143,9.443 14.067,0 43.946,-5.425 64.142,-9.443 6.213,-1.236 10.207,6.361 5.684,10.795 C 30.934,-19.784 10.139,-1.067 0,0"
             style="fill:#ff4155;fill-opacity:1;fill-rule:nonzero;stroke:none"
             id="path441" /></g><g
           id="g443"
           transform="translate(256,449.3608)"><path
             d="m 0,0 v 0 c -67.379,0 -122,-54.621 -122,-122 v -12.552 H 122 V -122 C 122,-54.621 67.379,0 0,0"
             style="fill:#665364;fill-opacity:1;fill-rule:nonzero;stroke:none"
             id="path445" /></g><g
           id="g447"
           transform="translate(256,449.3613)"><path
             d="m 0,0 v 0 c -67.379,0 -122,-54.622 -122,-122 v -12.553 h 40 V -122 c 0,53.366 34.27,98.716 82,115.274 z"
             style="fill:#543e5b;fill-opacity:1;fill-rule:nonzero;stroke:none"
             id="path449" /></g><g
           id="g451"
           transform="translate(381,326.8086)"><path
             d="m 0,0 h -250 c -8.284,0 -15,6.715 -15,15 0,8.284 6.716,15 15,15 H 0 C 8.284,30 15,23.284 15,15 15,6.715 8.284,0 0,0"
             style="fill:#dae2fe;fill-opacity:1;fill-rule:nonzero;stroke:none"
             id="path453" /></g><g
           id="g455"
           transform="translate(205.6597,341.8086)"><path
             d="m 0,0 c 0,8.284 6.716,15 15,15 h -89.66 c -8.284,0 -15,-6.716 -15,-15 0,-8.285 6.716,-15 15,-15 H 15 C 6.716,-15 0,-8.285 0,0"
             style="fill:#bec8f7;fill-opacity:1;fill-rule:nonzero;stroke:none"
             id="path457" /></g><g
           id="g459"
           transform="translate(271,314.8086)"><path
             d="m 0,0 h -30 v 135 c 0,8.284 6.716,15 15,15 8.284,0 15,-6.716 15,-15 z"
             style="fill:#e9efff;fill-opacity:1;fill-rule:nonzero;stroke:none"
             id="path461" /></g><g
           id="g463"
           transform="translate(256,371.5)"><path
             d="M 0,0 C -8.284,0 -15,6.716 -15,15 V -56.691 H 15 V 15 C 15,6.716 8.284,0 0,0"
             style="fill:#dae2fe;fill-opacity:1;fill-rule:nonzero;stroke:none"
             id="path465" /></g><g
           id="g467"
           transform="translate(421,299.8086)"><path
             d="m 0,0 h -330 c -8.284,0 -15,6.715 -15,15 0,8.284 6.716,15 15,15 H 0 C 8.284,30 15,23.284 15,15 15,6.715 8.284,0 0,0"
             style="fill:#e9efff;fill-opacity:1;fill-rule:nonzero;stroke:none"
             id="path469" /></g><g
           id="g471"
           transform="translate(192.0884,314.8086)"><path
             d="m 0,0 c 0,8.284 6.715,15 15,15 h -116.088 c -8.285,0 -15,-6.716 -15,-15 0,-8.284 6.715,-15 15,-15 H 15 C 6.715,-15 0,-8.284 0,0"
             style="fill:#dae2fe;fill-opacity:1;fill-rule:nonzero;stroke:none"
             id="path473" /></g></g></g></g></svg>
